%TF.GenerationSoftware,KiCad,Pcbnew,(5.1.6-0-10_14)*%
%TF.CreationDate,2021-01-18T11:29:05-08:00*%
%TF.ProjectId,lv3273_shield,6c763332-3733-45f7-9368-69656c642e6b,rev?*%
%TF.SameCoordinates,Original*%
%TF.FileFunction,Soldermask,Top*%
%TF.FilePolarity,Negative*%
%FSLAX46Y46*%
G04 Gerber Fmt 4.6, Leading zero omitted, Abs format (unit mm)*
G04 Created by KiCad (PCBNEW (5.1.6-0-10_14)) date 2021-01-18 11:29:05*
%MOMM*%
%LPD*%
G01*
G04 APERTURE LIST*
%ADD10R,0.510000X0.510000*%
%ADD11C,0.510000*%
G04 APERTURE END LIST*
D10*
%TO.C,J1*%
X99375000Y-90075000D03*
X99375000Y-92025000D03*
X99375000Y-91375000D03*
X99375000Y-90725000D03*
X99375000Y-89425000D03*
X99375000Y-88775000D03*
X99375000Y-88125000D03*
X99375000Y-87475000D03*
X99375000Y-86825000D03*
X99375000Y-86175000D03*
D11*
X99600000Y-91375000D03*
X99600000Y-92025000D03*
X99600000Y-88775000D03*
X99600000Y-89425000D03*
X99600000Y-90725000D03*
X99600000Y-90075000D03*
X99600000Y-87475000D03*
X99600000Y-88125000D03*
X99600000Y-86825000D03*
X99600000Y-86175000D03*
%TD*%
D10*
%TO.C,J2*%
X92925000Y-88125000D03*
X92925000Y-86175000D03*
X92925000Y-86825000D03*
X92925000Y-87475000D03*
X92925000Y-88775000D03*
X92925000Y-89425000D03*
X92925000Y-90075000D03*
X92925000Y-90725000D03*
X92925000Y-91375000D03*
X92925000Y-92025000D03*
D11*
X92700000Y-86825000D03*
X92700000Y-86175000D03*
X92700000Y-89425000D03*
X92700000Y-88775000D03*
X92700000Y-87475000D03*
X92700000Y-88125000D03*
X92700000Y-90725000D03*
X92700000Y-90075000D03*
X92700000Y-91375000D03*
X92700000Y-92025000D03*
%TD*%
%TO.C,U1*%
G36*
G01*
X101650000Y-83145000D02*
X101980000Y-83145000D01*
G75*
G02*
X102145000Y-83310000I0J-165000D01*
G01*
X102145000Y-85015000D01*
G75*
G02*
X101980000Y-85180000I-165000J0D01*
G01*
X101650000Y-85180000D01*
G75*
G02*
X101485000Y-85015000I0J165000D01*
G01*
X101485000Y-83310000D01*
G75*
G02*
X101650000Y-83145000I165000J0D01*
G01*
G37*
G36*
G01*
X100380000Y-83145000D02*
X100710000Y-83145000D01*
G75*
G02*
X100875000Y-83310000I0J-165000D01*
G01*
X100875000Y-85015000D01*
G75*
G02*
X100710000Y-85180000I-165000J0D01*
G01*
X100380000Y-85180000D01*
G75*
G02*
X100215000Y-85015000I0J165000D01*
G01*
X100215000Y-83310000D01*
G75*
G02*
X100380000Y-83145000I165000J0D01*
G01*
G37*
G36*
G01*
X99110000Y-83145000D02*
X99440000Y-83145000D01*
G75*
G02*
X99605000Y-83310000I0J-165000D01*
G01*
X99605000Y-85015000D01*
G75*
G02*
X99440000Y-85180000I-165000J0D01*
G01*
X99110000Y-85180000D01*
G75*
G02*
X98945000Y-85015000I0J165000D01*
G01*
X98945000Y-83310000D01*
G75*
G02*
X99110000Y-83145000I165000J0D01*
G01*
G37*
G36*
G01*
X97840000Y-83145000D02*
X98170000Y-83145000D01*
G75*
G02*
X98335000Y-83310000I0J-165000D01*
G01*
X98335000Y-85015000D01*
G75*
G02*
X98170000Y-85180000I-165000J0D01*
G01*
X97840000Y-85180000D01*
G75*
G02*
X97675000Y-85015000I0J165000D01*
G01*
X97675000Y-83310000D01*
G75*
G02*
X97840000Y-83145000I165000J0D01*
G01*
G37*
G36*
G01*
X96570000Y-83145000D02*
X96900000Y-83145000D01*
G75*
G02*
X97065000Y-83310000I0J-165000D01*
G01*
X97065000Y-85015000D01*
G75*
G02*
X96900000Y-85180000I-165000J0D01*
G01*
X96570000Y-85180000D01*
G75*
G02*
X96405000Y-85015000I0J165000D01*
G01*
X96405000Y-83310000D01*
G75*
G02*
X96570000Y-83145000I165000J0D01*
G01*
G37*
G36*
G01*
X95300000Y-83145000D02*
X95630000Y-83145000D01*
G75*
G02*
X95795000Y-83310000I0J-165000D01*
G01*
X95795000Y-85015000D01*
G75*
G02*
X95630000Y-85180000I-165000J0D01*
G01*
X95300000Y-85180000D01*
G75*
G02*
X95135000Y-85015000I0J165000D01*
G01*
X95135000Y-83310000D01*
G75*
G02*
X95300000Y-83145000I165000J0D01*
G01*
G37*
G36*
G01*
X94030000Y-83145000D02*
X94360000Y-83145000D01*
G75*
G02*
X94525000Y-83310000I0J-165000D01*
G01*
X94525000Y-85015000D01*
G75*
G02*
X94360000Y-85180000I-165000J0D01*
G01*
X94030000Y-85180000D01*
G75*
G02*
X93865000Y-85015000I0J165000D01*
G01*
X93865000Y-83310000D01*
G75*
G02*
X94030000Y-83145000I165000J0D01*
G01*
G37*
G36*
G01*
X92760000Y-83145000D02*
X93090000Y-83145000D01*
G75*
G02*
X93255000Y-83310000I0J-165000D01*
G01*
X93255000Y-85015000D01*
G75*
G02*
X93090000Y-85180000I-165000J0D01*
G01*
X92760000Y-85180000D01*
G75*
G02*
X92595000Y-85015000I0J165000D01*
G01*
X92595000Y-83310000D01*
G75*
G02*
X92760000Y-83145000I165000J0D01*
G01*
G37*
G36*
G01*
X91490000Y-83145000D02*
X91820000Y-83145000D01*
G75*
G02*
X91985000Y-83310000I0J-165000D01*
G01*
X91985000Y-85015000D01*
G75*
G02*
X91820000Y-85180000I-165000J0D01*
G01*
X91490000Y-85180000D01*
G75*
G02*
X91325000Y-85015000I0J165000D01*
G01*
X91325000Y-83310000D01*
G75*
G02*
X91490000Y-83145000I165000J0D01*
G01*
G37*
G36*
G01*
X90220000Y-83145000D02*
X90550000Y-83145000D01*
G75*
G02*
X90715000Y-83310000I0J-165000D01*
G01*
X90715000Y-85015000D01*
G75*
G02*
X90550000Y-85180000I-165000J0D01*
G01*
X90220000Y-85180000D01*
G75*
G02*
X90055000Y-85015000I0J165000D01*
G01*
X90055000Y-83310000D01*
G75*
G02*
X90220000Y-83145000I165000J0D01*
G01*
G37*
G36*
G01*
X90220000Y-76220000D02*
X90550000Y-76220000D01*
G75*
G02*
X90715000Y-76385000I0J-165000D01*
G01*
X90715000Y-78090000D01*
G75*
G02*
X90550000Y-78255000I-165000J0D01*
G01*
X90220000Y-78255000D01*
G75*
G02*
X90055000Y-78090000I0J165000D01*
G01*
X90055000Y-76385000D01*
G75*
G02*
X90220000Y-76220000I165000J0D01*
G01*
G37*
G36*
G01*
X91490000Y-76220000D02*
X91820000Y-76220000D01*
G75*
G02*
X91985000Y-76385000I0J-165000D01*
G01*
X91985000Y-78090000D01*
G75*
G02*
X91820000Y-78255000I-165000J0D01*
G01*
X91490000Y-78255000D01*
G75*
G02*
X91325000Y-78090000I0J165000D01*
G01*
X91325000Y-76385000D01*
G75*
G02*
X91490000Y-76220000I165000J0D01*
G01*
G37*
G36*
G01*
X92760000Y-76220000D02*
X93090000Y-76220000D01*
G75*
G02*
X93255000Y-76385000I0J-165000D01*
G01*
X93255000Y-78090000D01*
G75*
G02*
X93090000Y-78255000I-165000J0D01*
G01*
X92760000Y-78255000D01*
G75*
G02*
X92595000Y-78090000I0J165000D01*
G01*
X92595000Y-76385000D01*
G75*
G02*
X92760000Y-76220000I165000J0D01*
G01*
G37*
G36*
G01*
X94030000Y-76220000D02*
X94360000Y-76220000D01*
G75*
G02*
X94525000Y-76385000I0J-165000D01*
G01*
X94525000Y-78090000D01*
G75*
G02*
X94360000Y-78255000I-165000J0D01*
G01*
X94030000Y-78255000D01*
G75*
G02*
X93865000Y-78090000I0J165000D01*
G01*
X93865000Y-76385000D01*
G75*
G02*
X94030000Y-76220000I165000J0D01*
G01*
G37*
G36*
G01*
X95300000Y-76220000D02*
X95630000Y-76220000D01*
G75*
G02*
X95795000Y-76385000I0J-165000D01*
G01*
X95795000Y-78090000D01*
G75*
G02*
X95630000Y-78255000I-165000J0D01*
G01*
X95300000Y-78255000D01*
G75*
G02*
X95135000Y-78090000I0J165000D01*
G01*
X95135000Y-76385000D01*
G75*
G02*
X95300000Y-76220000I165000J0D01*
G01*
G37*
G36*
G01*
X96570000Y-76220000D02*
X96900000Y-76220000D01*
G75*
G02*
X97065000Y-76385000I0J-165000D01*
G01*
X97065000Y-78090000D01*
G75*
G02*
X96900000Y-78255000I-165000J0D01*
G01*
X96570000Y-78255000D01*
G75*
G02*
X96405000Y-78090000I0J165000D01*
G01*
X96405000Y-76385000D01*
G75*
G02*
X96570000Y-76220000I165000J0D01*
G01*
G37*
G36*
G01*
X97840000Y-76220000D02*
X98170000Y-76220000D01*
G75*
G02*
X98335000Y-76385000I0J-165000D01*
G01*
X98335000Y-78090000D01*
G75*
G02*
X98170000Y-78255000I-165000J0D01*
G01*
X97840000Y-78255000D01*
G75*
G02*
X97675000Y-78090000I0J165000D01*
G01*
X97675000Y-76385000D01*
G75*
G02*
X97840000Y-76220000I165000J0D01*
G01*
G37*
G36*
G01*
X99110000Y-76220000D02*
X99440000Y-76220000D01*
G75*
G02*
X99605000Y-76385000I0J-165000D01*
G01*
X99605000Y-78090000D01*
G75*
G02*
X99440000Y-78255000I-165000J0D01*
G01*
X99110000Y-78255000D01*
G75*
G02*
X98945000Y-78090000I0J165000D01*
G01*
X98945000Y-76385000D01*
G75*
G02*
X99110000Y-76220000I165000J0D01*
G01*
G37*
G36*
G01*
X100380000Y-76220000D02*
X100710000Y-76220000D01*
G75*
G02*
X100875000Y-76385000I0J-165000D01*
G01*
X100875000Y-78090000D01*
G75*
G02*
X100710000Y-78255000I-165000J0D01*
G01*
X100380000Y-78255000D01*
G75*
G02*
X100215000Y-78090000I0J165000D01*
G01*
X100215000Y-76385000D01*
G75*
G02*
X100380000Y-76220000I165000J0D01*
G01*
G37*
G36*
G01*
X101650000Y-76220000D02*
X101980000Y-76220000D01*
G75*
G02*
X102145000Y-76385000I0J-165000D01*
G01*
X102145000Y-78090000D01*
G75*
G02*
X101980000Y-78255000I-165000J0D01*
G01*
X101650000Y-78255000D01*
G75*
G02*
X101485000Y-78090000I0J165000D01*
G01*
X101485000Y-76385000D01*
G75*
G02*
X101650000Y-76220000I165000J0D01*
G01*
G37*
%TD*%
%TO.C,C1*%
G36*
G01*
X103228750Y-79420000D02*
X104171250Y-79420000D01*
G75*
G02*
X104430000Y-79678750I0J-258750D01*
G01*
X104430000Y-80196250D01*
G75*
G02*
X104171250Y-80455000I-258750J0D01*
G01*
X103228750Y-80455000D01*
G75*
G02*
X102970000Y-80196250I0J258750D01*
G01*
X102970000Y-79678750D01*
G75*
G02*
X103228750Y-79420000I258750J0D01*
G01*
G37*
G36*
G01*
X103228750Y-77545000D02*
X104171250Y-77545000D01*
G75*
G02*
X104430000Y-77803750I0J-258750D01*
G01*
X104430000Y-78321250D01*
G75*
G02*
X104171250Y-78580000I-258750J0D01*
G01*
X103228750Y-78580000D01*
G75*
G02*
X102970000Y-78321250I0J258750D01*
G01*
X102970000Y-77803750D01*
G75*
G02*
X103228750Y-77545000I258750J0D01*
G01*
G37*
%TD*%
M02*
