%TF.GenerationSoftware,KiCad,Pcbnew,(5.1.6-0-10_14)*%
%TF.CreationDate,2021-01-18T11:29:05-08:00*%
%TF.ProjectId,lv3273_shield,6c763332-3733-45f7-9368-69656c642e6b,rev?*%
%TF.SameCoordinates,Original*%
%TF.FileFunction,Legend,Bot*%
%TF.FilePolarity,Positive*%
%FSLAX46Y46*%
G04 Gerber Fmt 4.6, Leading zero omitted, Abs format (unit mm)*
G04 Created by KiCad (PCBNEW (5.1.6-0-10_14)) date 2021-01-18 11:29:05*
%MOMM*%
%LPD*%
G01*
G04 APERTURE LIST*
%ADD10C,0.100000*%
G04 APERTURE END LIST*
D10*
X104592142Y-77271428D02*
X104592142Y-76671428D01*
X104592142Y-76957142D02*
X104249285Y-76957142D01*
X104249285Y-77271428D02*
X104249285Y-76671428D01*
X103706428Y-77271428D02*
X103706428Y-76957142D01*
X103735000Y-76900000D01*
X103792142Y-76871428D01*
X103906428Y-76871428D01*
X103963571Y-76900000D01*
X103706428Y-77242857D02*
X103763571Y-77271428D01*
X103906428Y-77271428D01*
X103963571Y-77242857D01*
X103992142Y-77185714D01*
X103992142Y-77128571D01*
X103963571Y-77071428D01*
X103906428Y-77042857D01*
X103763571Y-77042857D01*
X103706428Y-77014285D01*
X103420714Y-76871428D02*
X103420714Y-77271428D01*
X103420714Y-76928571D02*
X103392142Y-76900000D01*
X103335000Y-76871428D01*
X103249285Y-76871428D01*
X103192142Y-76900000D01*
X103163571Y-76957142D01*
X103163571Y-77271428D01*
X102620714Y-77271428D02*
X102620714Y-76671428D01*
X102620714Y-77242857D02*
X102677857Y-77271428D01*
X102792142Y-77271428D01*
X102849285Y-77242857D01*
X102877857Y-77214285D01*
X102906428Y-77157142D01*
X102906428Y-76985714D01*
X102877857Y-76928571D01*
X102849285Y-76900000D01*
X102792142Y-76871428D01*
X102677857Y-76871428D01*
X102620714Y-76900000D01*
X102334999Y-77271428D02*
X102334999Y-76671428D01*
X102077857Y-77271428D02*
X102077857Y-76957142D01*
X102106428Y-76900000D01*
X102163571Y-76871428D01*
X102249285Y-76871428D01*
X102306428Y-76900000D01*
X102334999Y-76928571D01*
X101563571Y-77242857D02*
X101620714Y-77271428D01*
X101734999Y-77271428D01*
X101792142Y-77242857D01*
X101820714Y-77185714D01*
X101820714Y-76957142D01*
X101792142Y-76900000D01*
X101734999Y-76871428D01*
X101620714Y-76871428D01*
X101563571Y-76900000D01*
X101534999Y-76957142D01*
X101534999Y-77014285D01*
X101820714Y-77071428D01*
X101192142Y-77271428D02*
X101249285Y-77242857D01*
X101277857Y-77185714D01*
X101277857Y-76671428D01*
X100706428Y-77271428D02*
X100706428Y-76671428D01*
X100706428Y-77242857D02*
X100763571Y-77271428D01*
X100877857Y-77271428D01*
X100934999Y-77242857D01*
X100963571Y-77214285D01*
X100992142Y-77157142D01*
X100992142Y-76985714D01*
X100963571Y-76928571D01*
X100934999Y-76900000D01*
X100877857Y-76871428D01*
X100763571Y-76871428D01*
X100706428Y-76900000D01*
X100020714Y-76871428D02*
X99877857Y-77271428D01*
X99734999Y-76871428D01*
X99392142Y-76671428D02*
X99334999Y-76671428D01*
X99277857Y-76700000D01*
X99249285Y-76728571D01*
X99220714Y-76785714D01*
X99192142Y-76900000D01*
X99192142Y-77042857D01*
X99220714Y-77157142D01*
X99249285Y-77214285D01*
X99277857Y-77242857D01*
X99334999Y-77271428D01*
X99392142Y-77271428D01*
X99449285Y-77242857D01*
X99477857Y-77214285D01*
X99506428Y-77157142D01*
X99534999Y-77042857D01*
X99534999Y-76900000D01*
X99506428Y-76785714D01*
X99477857Y-76728571D01*
X99449285Y-76700000D01*
X99392142Y-76671428D01*
X98934999Y-77214285D02*
X98906428Y-77242857D01*
X98934999Y-77271428D01*
X98963571Y-77242857D01*
X98934999Y-77214285D01*
X98934999Y-77271428D01*
X98335000Y-77271428D02*
X98677857Y-77271428D01*
X98506428Y-77271428D02*
X98506428Y-76671428D01*
X98563571Y-76757142D01*
X98620714Y-76814285D01*
X98677857Y-76842857D01*
X97392142Y-77242857D02*
X97449285Y-77271428D01*
X97563571Y-77271428D01*
X97620714Y-77242857D01*
X97649285Y-77185714D01*
X97649285Y-76957142D01*
X97620714Y-76900000D01*
X97563571Y-76871428D01*
X97449285Y-76871428D01*
X97392142Y-76900000D01*
X97363571Y-76957142D01*
X97363571Y-77014285D01*
X97649285Y-77071428D01*
X97106428Y-77271428D02*
X97106428Y-76871428D01*
X97106428Y-76985714D02*
X97077857Y-76928571D01*
X97049285Y-76900000D01*
X96992142Y-76871428D01*
X96935000Y-76871428D01*
X96735000Y-77271428D02*
X96735000Y-76871428D01*
X96735000Y-76985714D02*
X96706428Y-76928571D01*
X96677857Y-76900000D01*
X96620714Y-76871428D01*
X96563571Y-76871428D01*
X96106428Y-77271428D02*
X96106428Y-76957142D01*
X96134999Y-76900000D01*
X96192142Y-76871428D01*
X96306428Y-76871428D01*
X96363571Y-76900000D01*
X96106428Y-77242857D02*
X96163571Y-77271428D01*
X96306428Y-77271428D01*
X96363571Y-77242857D01*
X96392142Y-77185714D01*
X96392142Y-77128571D01*
X96363571Y-77071428D01*
X96306428Y-77042857D01*
X96163571Y-77042857D01*
X96106428Y-77014285D01*
X95906428Y-76871428D02*
X95677857Y-76871428D01*
X95820714Y-76671428D02*
X95820714Y-77185714D01*
X95792142Y-77242857D01*
X95735000Y-77271428D01*
X95677857Y-77271428D01*
X95220714Y-77271428D02*
X95220714Y-76957142D01*
X95249285Y-76900000D01*
X95306428Y-76871428D01*
X95420714Y-76871428D01*
X95477857Y-76900000D01*
X95220714Y-77242857D02*
X95277857Y-77271428D01*
X95420714Y-77271428D01*
X95477857Y-77242857D01*
X95506428Y-77185714D01*
X95506428Y-77128571D01*
X95477857Y-77071428D01*
X95420714Y-77042857D01*
X95277857Y-77042857D01*
X95220714Y-77014285D01*
X94535000Y-77071428D02*
X94020714Y-77071428D01*
X93163571Y-76671428D02*
X93163571Y-77100000D01*
X93192142Y-77185714D01*
X93249285Y-77242857D01*
X93335000Y-77271428D01*
X93392142Y-77271428D01*
X92620714Y-77271428D02*
X92620714Y-76957142D01*
X92649285Y-76900000D01*
X92706428Y-76871428D01*
X92820714Y-76871428D01*
X92877857Y-76900000D01*
X92620714Y-77242857D02*
X92677857Y-77271428D01*
X92820714Y-77271428D01*
X92877857Y-77242857D01*
X92906428Y-77185714D01*
X92906428Y-77128571D01*
X92877857Y-77071428D01*
X92820714Y-77042857D01*
X92677857Y-77042857D01*
X92620714Y-77014285D01*
X92335000Y-76871428D02*
X92335000Y-77271428D01*
X92335000Y-76928571D02*
X92306428Y-76900000D01*
X92249285Y-76871428D01*
X92163571Y-76871428D01*
X92106428Y-76900000D01*
X92077857Y-76957142D01*
X92077857Y-77271428D01*
X91363571Y-76728571D02*
X91335000Y-76700000D01*
X91277857Y-76671428D01*
X91135000Y-76671428D01*
X91077857Y-76700000D01*
X91049285Y-76728571D01*
X91020714Y-76785714D01*
X91020714Y-76842857D01*
X91049285Y-76928571D01*
X91392142Y-77271428D01*
X91020714Y-77271428D01*
X90649285Y-76671428D02*
X90592142Y-76671428D01*
X90535000Y-76700000D01*
X90506428Y-76728571D01*
X90477857Y-76785714D01*
X90449285Y-76900000D01*
X90449285Y-77042857D01*
X90477857Y-77157142D01*
X90506428Y-77214285D01*
X90535000Y-77242857D01*
X90592142Y-77271428D01*
X90649285Y-77271428D01*
X90706428Y-77242857D01*
X90735000Y-77214285D01*
X90763571Y-77157142D01*
X90792142Y-77042857D01*
X90792142Y-76900000D01*
X90763571Y-76785714D01*
X90735000Y-76728571D01*
X90706428Y-76700000D01*
X90649285Y-76671428D01*
X90220714Y-76728571D02*
X90192142Y-76700000D01*
X90135000Y-76671428D01*
X89992142Y-76671428D01*
X89935000Y-76700000D01*
X89906428Y-76728571D01*
X89877857Y-76785714D01*
X89877857Y-76842857D01*
X89906428Y-76928571D01*
X90249285Y-77271428D01*
X89877857Y-77271428D01*
X89306428Y-77271428D02*
X89649285Y-77271428D01*
X89477857Y-77271428D02*
X89477857Y-76671428D01*
X89535000Y-76757142D01*
X89592142Y-76814285D01*
X89649285Y-76842857D01*
X104335000Y-77871428D02*
X104335000Y-78357142D01*
X104363571Y-78414285D01*
X104392142Y-78442857D01*
X104449285Y-78471428D01*
X104535000Y-78471428D01*
X104592142Y-78442857D01*
X104335000Y-78242857D02*
X104392142Y-78271428D01*
X104506428Y-78271428D01*
X104563571Y-78242857D01*
X104592142Y-78214285D01*
X104620714Y-78157142D01*
X104620714Y-77985714D01*
X104592142Y-77928571D01*
X104563571Y-77900000D01*
X104506428Y-77871428D01*
X104392142Y-77871428D01*
X104335000Y-77900000D01*
X104049285Y-78271428D02*
X104049285Y-77871428D01*
X104049285Y-77671428D02*
X104077857Y-77700000D01*
X104049285Y-77728571D01*
X104020714Y-77700000D01*
X104049285Y-77671428D01*
X104049285Y-77728571D01*
X103849285Y-77871428D02*
X103620714Y-77871428D01*
X103763571Y-77671428D02*
X103763571Y-78185714D01*
X103735000Y-78242857D01*
X103677857Y-78271428D01*
X103620714Y-78271428D01*
X103420714Y-78271428D02*
X103420714Y-77671428D01*
X103163571Y-78271428D02*
X103163571Y-77957142D01*
X103192142Y-77900000D01*
X103249285Y-77871428D01*
X103335000Y-77871428D01*
X103392142Y-77900000D01*
X103420714Y-77928571D01*
X102620714Y-77871428D02*
X102620714Y-78271428D01*
X102877857Y-77871428D02*
X102877857Y-78185714D01*
X102849285Y-78242857D01*
X102792142Y-78271428D01*
X102706428Y-78271428D01*
X102649285Y-78242857D01*
X102620714Y-78214285D01*
X102334999Y-78271428D02*
X102334999Y-77671428D01*
X102334999Y-77900000D02*
X102277857Y-77871428D01*
X102163571Y-77871428D01*
X102106428Y-77900000D01*
X102077857Y-77928571D01*
X102049285Y-77985714D01*
X102049285Y-78157142D01*
X102077857Y-78214285D01*
X102106428Y-78242857D01*
X102163571Y-78271428D01*
X102277857Y-78271428D01*
X102334999Y-78242857D01*
X101792142Y-78214285D02*
X101763571Y-78242857D01*
X101792142Y-78271428D01*
X101820714Y-78242857D01*
X101792142Y-78214285D01*
X101792142Y-78271428D01*
X101249285Y-78242857D02*
X101306428Y-78271428D01*
X101420714Y-78271428D01*
X101477857Y-78242857D01*
X101506428Y-78214285D01*
X101534999Y-78157142D01*
X101534999Y-77985714D01*
X101506428Y-77928571D01*
X101477857Y-77900000D01*
X101420714Y-77871428D01*
X101306428Y-77871428D01*
X101249285Y-77900000D01*
X100906428Y-78271428D02*
X100963571Y-78242857D01*
X100992142Y-78214285D01*
X101020714Y-78157142D01*
X101020714Y-77985714D01*
X100992142Y-77928571D01*
X100963571Y-77900000D01*
X100906428Y-77871428D01*
X100820714Y-77871428D01*
X100763571Y-77900000D01*
X100734999Y-77928571D01*
X100706428Y-77985714D01*
X100706428Y-78157142D01*
X100734999Y-78214285D01*
X100763571Y-78242857D01*
X100820714Y-78271428D01*
X100906428Y-78271428D01*
X100449285Y-78271428D02*
X100449285Y-77871428D01*
X100449285Y-77928571D02*
X100420714Y-77900000D01*
X100363571Y-77871428D01*
X100277857Y-77871428D01*
X100220714Y-77900000D01*
X100192142Y-77957142D01*
X100192142Y-78271428D01*
X100192142Y-77957142D02*
X100163571Y-77900000D01*
X100106428Y-77871428D01*
X100020714Y-77871428D01*
X99963571Y-77900000D01*
X99934999Y-77957142D01*
X99934999Y-78271428D01*
X99220714Y-77642857D02*
X99734999Y-78414285D01*
X98792142Y-78242857D02*
X98849285Y-78271428D01*
X98963571Y-78271428D01*
X99020714Y-78242857D01*
X99049285Y-78185714D01*
X99049285Y-77957142D01*
X99020714Y-77900000D01*
X98963571Y-77871428D01*
X98849285Y-77871428D01*
X98792142Y-77900000D01*
X98763571Y-77957142D01*
X98763571Y-78014285D01*
X99049285Y-78071428D01*
X98506428Y-78271428D02*
X98506428Y-77871428D01*
X98506428Y-77985714D02*
X98477857Y-77928571D01*
X98449285Y-77900000D01*
X98392142Y-77871428D01*
X98334999Y-77871428D01*
X98134999Y-78271428D02*
X98134999Y-77871428D01*
X98134999Y-77671428D02*
X98163571Y-77700000D01*
X98134999Y-77728571D01*
X98106428Y-77700000D01*
X98134999Y-77671428D01*
X98134999Y-77728571D01*
X97849285Y-78271428D02*
X97849285Y-77671428D01*
X97792142Y-78042857D02*
X97620714Y-78271428D01*
X97620714Y-77871428D02*
X97849285Y-78100000D01*
X97420714Y-77871428D02*
X97277857Y-78271428D01*
X97134999Y-77871428D01*
X96649285Y-78271428D02*
X96649285Y-77957142D01*
X96677857Y-77900000D01*
X96734999Y-77871428D01*
X96849285Y-77871428D01*
X96906428Y-77900000D01*
X96649285Y-78242857D02*
X96706428Y-78271428D01*
X96849285Y-78271428D01*
X96906428Y-78242857D01*
X96934999Y-78185714D01*
X96934999Y-78128571D01*
X96906428Y-78071428D01*
X96849285Y-78042857D01*
X96706428Y-78042857D01*
X96649285Y-78014285D01*
X96363571Y-77871428D02*
X96363571Y-78271428D01*
X96363571Y-77928571D02*
X96334999Y-77900000D01*
X96277857Y-77871428D01*
X96192142Y-77871428D01*
X96134999Y-77900000D01*
X96106428Y-77957142D01*
X96106428Y-78271428D01*
X95877857Y-77871428D02*
X95563571Y-77871428D01*
X95877857Y-78271428D01*
X95563571Y-78271428D01*
X95334999Y-78271428D02*
X95334999Y-77871428D01*
X95334999Y-77671428D02*
X95363571Y-77700000D01*
X95334999Y-77728571D01*
X95306428Y-77700000D01*
X95334999Y-77671428D01*
X95334999Y-77728571D01*
X95049285Y-77871428D02*
X95049285Y-78385714D01*
X95077857Y-78442857D01*
X95134999Y-78471428D01*
X95163571Y-78471428D01*
X95049285Y-77671428D02*
X95077857Y-77700000D01*
X95049285Y-77728571D01*
X95020714Y-77700000D01*
X95049285Y-77671428D01*
X95049285Y-77728571D01*
X94792142Y-78242857D02*
X94734999Y-78271428D01*
X94620714Y-78271428D01*
X94563571Y-78242857D01*
X94534999Y-78185714D01*
X94534999Y-78157142D01*
X94563571Y-78100000D01*
X94620714Y-78071428D01*
X94706428Y-78071428D01*
X94763571Y-78042857D01*
X94792142Y-77985714D01*
X94792142Y-77957142D01*
X94763571Y-77900000D01*
X94706428Y-77871428D01*
X94620714Y-77871428D01*
X94563571Y-77900000D01*
X94363571Y-77871428D02*
X94134999Y-77871428D01*
X94277857Y-77671428D02*
X94277857Y-78185714D01*
X94249285Y-78242857D01*
X94192142Y-78271428D01*
X94134999Y-78271428D01*
X93506428Y-77642857D02*
X94020714Y-78414285D01*
X93306428Y-78271428D02*
X93306428Y-77671428D01*
X93049285Y-78271428D02*
X93049285Y-77957142D01*
X93077857Y-77900000D01*
X93134999Y-77871428D01*
X93220714Y-77871428D01*
X93277857Y-77900000D01*
X93306428Y-77928571D01*
X92506428Y-78271428D02*
X92506428Y-77957142D01*
X92534999Y-77900000D01*
X92592142Y-77871428D01*
X92706428Y-77871428D01*
X92763571Y-77900000D01*
X92506428Y-78242857D02*
X92563571Y-78271428D01*
X92706428Y-78271428D01*
X92763571Y-78242857D01*
X92792142Y-78185714D01*
X92792142Y-78128571D01*
X92763571Y-78071428D01*
X92706428Y-78042857D01*
X92563571Y-78042857D01*
X92506428Y-78014285D01*
X92220714Y-77871428D02*
X92220714Y-78271428D01*
X92220714Y-77928571D02*
X92192142Y-77900000D01*
X92134999Y-77871428D01*
X92049285Y-77871428D01*
X91992142Y-77900000D01*
X91963571Y-77957142D01*
X91963571Y-78271428D01*
X91420714Y-78271428D02*
X91420714Y-77671428D01*
X91420714Y-78242857D02*
X91477857Y-78271428D01*
X91592142Y-78271428D01*
X91649285Y-78242857D01*
X91677857Y-78214285D01*
X91706428Y-78157142D01*
X91706428Y-77985714D01*
X91677857Y-77928571D01*
X91649285Y-77900000D01*
X91592142Y-77871428D01*
X91477857Y-77871428D01*
X91420714Y-77900000D01*
X91134999Y-78271428D02*
X91134999Y-77671428D01*
X90877857Y-78271428D02*
X90877857Y-77957142D01*
X90906428Y-77900000D01*
X90963571Y-77871428D01*
X91049285Y-77871428D01*
X91106428Y-77900000D01*
X91134999Y-77928571D01*
X90363571Y-78242857D02*
X90420714Y-78271428D01*
X90534999Y-78271428D01*
X90592142Y-78242857D01*
X90620714Y-78185714D01*
X90620714Y-77957142D01*
X90592142Y-77900000D01*
X90534999Y-77871428D01*
X90420714Y-77871428D01*
X90363571Y-77900000D01*
X90334999Y-77957142D01*
X90334999Y-78014285D01*
X90620714Y-78071428D01*
X89992142Y-78271428D02*
X90049285Y-78242857D01*
X90077857Y-78185714D01*
X90077857Y-77671428D01*
X89506428Y-78271428D02*
X89506428Y-77671428D01*
X89506428Y-78242857D02*
X89563571Y-78271428D01*
X89677857Y-78271428D01*
X89734999Y-78242857D01*
X89763571Y-78214285D01*
X89792142Y-78157142D01*
X89792142Y-77985714D01*
X89763571Y-77928571D01*
X89734999Y-77900000D01*
X89677857Y-77871428D01*
X89563571Y-77871428D01*
X89506428Y-77900000D01*
X104592142Y-78957142D02*
X104392142Y-78957142D01*
X104306428Y-79271428D02*
X104592142Y-79271428D01*
X104592142Y-78671428D01*
X104306428Y-78671428D01*
X104049285Y-79271428D02*
X104049285Y-78871428D01*
X104049285Y-78985714D02*
X104020714Y-78928571D01*
X103992142Y-78900000D01*
X103935000Y-78871428D01*
X103877857Y-78871428D01*
X103677857Y-79271428D02*
X103677857Y-78871428D01*
X103677857Y-78671428D02*
X103706428Y-78700000D01*
X103677857Y-78728571D01*
X103649285Y-78700000D01*
X103677857Y-78671428D01*
X103677857Y-78728571D01*
X103392142Y-79271428D02*
X103392142Y-78671428D01*
X103335000Y-79042857D02*
X103163571Y-79271428D01*
X103163571Y-78871428D02*
X103392142Y-79100000D01*
X102506428Y-78871428D02*
X102363571Y-79271428D01*
X102220714Y-78871428D01*
X101735000Y-79271428D02*
X101735000Y-78957142D01*
X101763571Y-78900000D01*
X101820714Y-78871428D01*
X101935000Y-78871428D01*
X101992142Y-78900000D01*
X101735000Y-79242857D02*
X101792142Y-79271428D01*
X101935000Y-79271428D01*
X101992142Y-79242857D01*
X102020714Y-79185714D01*
X102020714Y-79128571D01*
X101992142Y-79071428D01*
X101935000Y-79042857D01*
X101792142Y-79042857D01*
X101735000Y-79014285D01*
X101449285Y-78871428D02*
X101449285Y-79271428D01*
X101449285Y-78928571D02*
X101420714Y-78900000D01*
X101363571Y-78871428D01*
X101277857Y-78871428D01*
X101220714Y-78900000D01*
X101192142Y-78957142D01*
X101192142Y-79271428D01*
X100506428Y-78671428D02*
X100106428Y-78671428D01*
X100506428Y-79271428D01*
X100106428Y-79271428D01*
X99877857Y-79271428D02*
X99877857Y-78871428D01*
X99877857Y-78671428D02*
X99906428Y-78700000D01*
X99877857Y-78728571D01*
X99849285Y-78700000D01*
X99877857Y-78671428D01*
X99877857Y-78728571D01*
X99592142Y-78871428D02*
X99592142Y-79385714D01*
X99620714Y-79442857D01*
X99677857Y-79471428D01*
X99706428Y-79471428D01*
X99592142Y-78671428D02*
X99620714Y-78700000D01*
X99592142Y-78728571D01*
X99563571Y-78700000D01*
X99592142Y-78671428D01*
X99592142Y-78728571D01*
X99335000Y-79242857D02*
X99277857Y-79271428D01*
X99163571Y-79271428D01*
X99106428Y-79242857D01*
X99077857Y-79185714D01*
X99077857Y-79157142D01*
X99106428Y-79100000D01*
X99163571Y-79071428D01*
X99249285Y-79071428D01*
X99306428Y-79042857D01*
X99335000Y-78985714D01*
X99335000Y-78957142D01*
X99306428Y-78900000D01*
X99249285Y-78871428D01*
X99163571Y-78871428D01*
X99106428Y-78900000D01*
X98906428Y-78871428D02*
X98677857Y-78871428D01*
X98820714Y-78671428D02*
X98820714Y-79185714D01*
X98792142Y-79242857D01*
X98735000Y-79271428D01*
X98677857Y-79271428D01*
X104135000Y-79871428D02*
X104592142Y-80042857D01*
X104135000Y-80214285D01*
X103620714Y-80242857D02*
X103677857Y-80271428D01*
X103792142Y-80271428D01*
X103849285Y-80242857D01*
X103877857Y-80185714D01*
X103877857Y-79957142D01*
X103849285Y-79900000D01*
X103792142Y-79871428D01*
X103677857Y-79871428D01*
X103620714Y-79900000D01*
X103592142Y-79957142D01*
X103592142Y-80014285D01*
X103877857Y-80071428D01*
X103335000Y-80271428D02*
X103335000Y-79871428D01*
X103335000Y-79985714D02*
X103306428Y-79928571D01*
X103277857Y-79900000D01*
X103220714Y-79871428D01*
X103163571Y-79871428D01*
X102963571Y-80271428D02*
X102963571Y-79871428D01*
X102963571Y-79671428D02*
X102992142Y-79700000D01*
X102963571Y-79728571D01*
X102935000Y-79700000D01*
X102963571Y-79671428D01*
X102963571Y-79728571D01*
X102677857Y-80271428D02*
X102677857Y-79671428D01*
X102620714Y-80042857D02*
X102449285Y-80271428D01*
X102449285Y-79871428D02*
X102677857Y-80100000D01*
X102192142Y-80214285D02*
X102163571Y-80242857D01*
X102192142Y-80271428D01*
X102220714Y-80242857D01*
X102192142Y-80214285D01*
X102192142Y-80271428D01*
X101963571Y-79871428D02*
X101820714Y-80271428D01*
X101677857Y-79871428D01*
X101192142Y-80271428D02*
X101192142Y-79957142D01*
X101220714Y-79900000D01*
X101277857Y-79871428D01*
X101392142Y-79871428D01*
X101449285Y-79900000D01*
X101192142Y-80242857D02*
X101249285Y-80271428D01*
X101392142Y-80271428D01*
X101449285Y-80242857D01*
X101477857Y-80185714D01*
X101477857Y-80128571D01*
X101449285Y-80071428D01*
X101392142Y-80042857D01*
X101249285Y-80042857D01*
X101192142Y-80014285D01*
X100906428Y-79871428D02*
X100906428Y-80271428D01*
X100906428Y-79928571D02*
X100877857Y-79900000D01*
X100820714Y-79871428D01*
X100735000Y-79871428D01*
X100677857Y-79900000D01*
X100649285Y-79957142D01*
X100649285Y-80271428D01*
X100363571Y-80214285D02*
X100335000Y-80242857D01*
X100363571Y-80271428D01*
X100392142Y-80242857D01*
X100363571Y-80214285D01*
X100363571Y-80271428D01*
X100135000Y-79871428D02*
X99820714Y-79871428D01*
X100135000Y-80271428D01*
X99820714Y-80271428D01*
X99592142Y-80271428D02*
X99592142Y-79871428D01*
X99592142Y-79671428D02*
X99620714Y-79700000D01*
X99592142Y-79728571D01*
X99563571Y-79700000D01*
X99592142Y-79671428D01*
X99592142Y-79728571D01*
X99306428Y-79871428D02*
X99306428Y-80385714D01*
X99335000Y-80442857D01*
X99392142Y-80471428D01*
X99420714Y-80471428D01*
X99306428Y-79671428D02*
X99335000Y-79700000D01*
X99306428Y-79728571D01*
X99277857Y-79700000D01*
X99306428Y-79671428D01*
X99306428Y-79728571D01*
X99049285Y-80242857D02*
X98992142Y-80271428D01*
X98877857Y-80271428D01*
X98820714Y-80242857D01*
X98792142Y-80185714D01*
X98792142Y-80157142D01*
X98820714Y-80100000D01*
X98877857Y-80071428D01*
X98963571Y-80071428D01*
X99020714Y-80042857D01*
X99049285Y-79985714D01*
X99049285Y-79957142D01*
X99020714Y-79900000D01*
X98963571Y-79871428D01*
X98877857Y-79871428D01*
X98820714Y-79900000D01*
X98620714Y-79871428D02*
X98392142Y-79871428D01*
X98535000Y-79671428D02*
X98535000Y-80185714D01*
X98506428Y-80242857D01*
X98449285Y-80271428D01*
X98392142Y-80271428D01*
X97820714Y-79985714D02*
X97849285Y-79957142D01*
X97906428Y-79928571D01*
X97963571Y-79928571D01*
X98020714Y-79957142D01*
X98049285Y-79985714D01*
X98077857Y-80042857D01*
X98077857Y-80100000D01*
X98049285Y-80157142D01*
X98020714Y-80185714D01*
X97963571Y-80214285D01*
X97906428Y-80214285D01*
X97849285Y-80185714D01*
X97820714Y-80157142D01*
X97820714Y-79928571D02*
X97820714Y-80157142D01*
X97792142Y-80185714D01*
X97763571Y-80185714D01*
X97706428Y-80157142D01*
X97677857Y-80100000D01*
X97677857Y-79957142D01*
X97735000Y-79871428D01*
X97820714Y-79814285D01*
X97935000Y-79785714D01*
X98049285Y-79814285D01*
X98135000Y-79871428D01*
X98192142Y-79957142D01*
X98220714Y-80071428D01*
X98192142Y-80185714D01*
X98135000Y-80271428D01*
X98049285Y-80328571D01*
X97935000Y-80357142D01*
X97820714Y-80328571D01*
X97735000Y-80271428D01*
X97163571Y-79871428D02*
X97163571Y-80357142D01*
X97192142Y-80414285D01*
X97220714Y-80442857D01*
X97277857Y-80471428D01*
X97363571Y-80471428D01*
X97420714Y-80442857D01*
X97163571Y-80242857D02*
X97220714Y-80271428D01*
X97335000Y-80271428D01*
X97392142Y-80242857D01*
X97420714Y-80214285D01*
X97449285Y-80157142D01*
X97449285Y-79985714D01*
X97420714Y-79928571D01*
X97392142Y-79900000D01*
X97335000Y-79871428D01*
X97220714Y-79871428D01*
X97163571Y-79900000D01*
X96877857Y-80271428D02*
X96877857Y-79871428D01*
X96877857Y-79928571D02*
X96849285Y-79900000D01*
X96792142Y-79871428D01*
X96706428Y-79871428D01*
X96649285Y-79900000D01*
X96620714Y-79957142D01*
X96620714Y-80271428D01*
X96620714Y-79957142D02*
X96592142Y-79900000D01*
X96535000Y-79871428D01*
X96449285Y-79871428D01*
X96392142Y-79900000D01*
X96363571Y-79957142D01*
X96363571Y-80271428D01*
X95820714Y-80271428D02*
X95820714Y-79957142D01*
X95849285Y-79900000D01*
X95906428Y-79871428D01*
X96020714Y-79871428D01*
X96077857Y-79900000D01*
X95820714Y-80242857D02*
X95877857Y-80271428D01*
X96020714Y-80271428D01*
X96077857Y-80242857D01*
X96106428Y-80185714D01*
X96106428Y-80128571D01*
X96077857Y-80071428D01*
X96020714Y-80042857D01*
X95877857Y-80042857D01*
X95820714Y-80014285D01*
X95535000Y-80271428D02*
X95535000Y-79871428D01*
X95535000Y-79671428D02*
X95563571Y-79700000D01*
X95535000Y-79728571D01*
X95506428Y-79700000D01*
X95535000Y-79671428D01*
X95535000Y-79728571D01*
X95163571Y-80271428D02*
X95220714Y-80242857D01*
X95249285Y-80185714D01*
X95249285Y-79671428D01*
X94935000Y-80214285D02*
X94906428Y-80242857D01*
X94935000Y-80271428D01*
X94963571Y-80242857D01*
X94935000Y-80214285D01*
X94935000Y-80271428D01*
X94392142Y-80242857D02*
X94449285Y-80271428D01*
X94563571Y-80271428D01*
X94620714Y-80242857D01*
X94649285Y-80214285D01*
X94677857Y-80157142D01*
X94677857Y-79985714D01*
X94649285Y-79928571D01*
X94620714Y-79900000D01*
X94563571Y-79871428D01*
X94449285Y-79871428D01*
X94392142Y-79900000D01*
X94049285Y-80271428D02*
X94106428Y-80242857D01*
X94135000Y-80214285D01*
X94163571Y-80157142D01*
X94163571Y-79985714D01*
X94135000Y-79928571D01*
X94106428Y-79900000D01*
X94049285Y-79871428D01*
X93963571Y-79871428D01*
X93906428Y-79900000D01*
X93877857Y-79928571D01*
X93849285Y-79985714D01*
X93849285Y-80157142D01*
X93877857Y-80214285D01*
X93906428Y-80242857D01*
X93963571Y-80271428D01*
X94049285Y-80271428D01*
X93592142Y-80271428D02*
X93592142Y-79871428D01*
X93592142Y-79928571D02*
X93563571Y-79900000D01*
X93506428Y-79871428D01*
X93420714Y-79871428D01*
X93363571Y-79900000D01*
X93335000Y-79957142D01*
X93335000Y-80271428D01*
X93335000Y-79957142D02*
X93306428Y-79900000D01*
X93249285Y-79871428D01*
X93163571Y-79871428D01*
X93106428Y-79900000D01*
X93077857Y-79957142D01*
X93077857Y-80271428D01*
X92792142Y-79871428D02*
X92335000Y-80042857D01*
X92792142Y-80214285D01*
M02*
