M48
; DRILL file {KiCad (5.1.6-0-10_14)} date Monday, January 18, 2021 at 11:29:09 AM
; FORMAT={-:-/ absolute / inch / decimal}
; #@! TF.CreationDate,2021-01-18T11:29:09-08:00
; #@! TF.GenerationSoftware,Kicad,Pcbnew,(5.1.6-0-10_14)
; #@! TF.FileFunction,Plated,1,2,PTH
FMAT,2
INCH
T1C0.0118
T2C0.0138
T3C0.0157
%
G90
G05
T1
X3.5571Y-3.248
X3.5585Y-3.1083
X3.6083Y-3.1083
X3.6102Y-3.248
X3.6437Y-3.2067
X3.6594Y-3.1063
X3.6673Y-3.185
X3.6832Y-3.2501
X3.7028Y-3.185
X3.7087Y-3.1063
X3.7559Y-3.185
X3.8012Y-3.5197
X3.8287Y-3.5551
X3.8327Y-3.1831
X3.8563Y-3.5965
X3.8583Y-3.1063
X3.8711Y-3.3917
X3.9094Y-3.1063
T2
X3.6496Y-3.3927
X3.6496Y-3.4183
X3.6496Y-3.4439
X3.6496Y-3.4695
X3.6496Y-3.4951
X3.6496Y-3.5207
X3.6496Y-3.5463
X3.6496Y-3.5719
X3.6496Y-3.5974
X3.6496Y-3.623
X3.9213Y-3.3927
X3.9213Y-3.4183
X3.9213Y-3.4439
X3.9213Y-3.4695
X3.9213Y-3.4951
X3.9213Y-3.5207
X3.9213Y-3.5463
X3.9213Y-3.5719
X3.9213Y-3.5974
X3.9213Y-3.623
T3
X4.0827Y-3.0157
T0
M30
