%TF.GenerationSoftware,KiCad,Pcbnew,(5.1.6-0-10_14)*%
%TF.CreationDate,2021-01-18T11:29:05-08:00*%
%TF.ProjectId,lv3273_shield,6c763332-3733-45f7-9368-69656c642e6b,rev?*%
%TF.SameCoordinates,Original*%
%TF.FileFunction,Copper,L2,Bot*%
%TF.FilePolarity,Positive*%
%FSLAX46Y46*%
G04 Gerber Fmt 4.6, Leading zero omitted, Abs format (unit mm)*
G04 Created by KiCad (PCBNEW (5.1.6-0-10_14)) date 2021-01-18 11:29:05*
%MOMM*%
%LPD*%
G01*
G04 APERTURE LIST*
%TA.AperFunction,SMDPad,CuDef*%
%ADD10R,0.450000X0.450000*%
%TD*%
%TA.AperFunction,ComponentPad*%
%ADD11C,0.450000*%
%TD*%
%TA.AperFunction,ViaPad*%
%ADD12C,0.500000*%
%TD*%
%TA.AperFunction,ViaPad*%
%ADD13C,0.800000*%
%TD*%
%TA.AperFunction,Conductor*%
%ADD14C,0.152400*%
%TD*%
%TA.AperFunction,Conductor*%
%ADD15C,0.254000*%
%TD*%
G04 APERTURE END LIST*
D10*
%TO.P,J1,1*%
%TO.N,GND*%
X99375000Y-86175000D03*
%TO.P,J1,2*%
%TO.N,Net-(J1-Pad2)*%
X99375000Y-86825000D03*
%TO.P,J1,3*%
%TO.N,Net-(J1-Pad3)*%
X99375000Y-87475000D03*
%TO.P,J1,4*%
%TO.N,Net-(J1-Pad4)*%
X99375000Y-88125000D03*
%TO.P,J1,5*%
%TO.N,Net-(J1-Pad5)*%
X99375000Y-88775000D03*
%TO.P,J1,6*%
%TO.N,Net-(J1-Pad6)*%
X99375000Y-89425000D03*
%TO.P,J1,8*%
%TO.N,Net-(J1-Pad8)*%
X99375000Y-90725000D03*
%TO.P,J1,9*%
%TO.N,Net-(J1-Pad9)*%
X99375000Y-91375000D03*
%TO.P,J1,10*%
%TO.N,Net-(C1-Pad2)*%
X99375000Y-92025000D03*
%TO.P,J1,7*%
%TO.N,Net-(J1-Pad7)*%
X99375000Y-90075000D03*
D11*
%TO.P,J1,9*%
%TO.N,Net-(J1-Pad9)*%
X99600000Y-91375000D03*
%TO.P,J1,10*%
%TO.N,Net-(C1-Pad2)*%
X99600000Y-92025000D03*
%TO.P,J1,5*%
%TO.N,Net-(J1-Pad5)*%
X99600000Y-88775000D03*
%TO.P,J1,6*%
%TO.N,Net-(J1-Pad6)*%
X99600000Y-89425000D03*
%TO.P,J1,8*%
%TO.N,Net-(J1-Pad8)*%
X99600000Y-90725000D03*
%TO.P,J1,7*%
%TO.N,Net-(J1-Pad7)*%
X99600000Y-90075000D03*
%TO.P,J1,3*%
%TO.N,Net-(J1-Pad3)*%
X99600000Y-87475000D03*
%TO.P,J1,4*%
%TO.N,Net-(J1-Pad4)*%
X99600000Y-88125000D03*
%TO.P,J1,2*%
%TO.N,Net-(J1-Pad2)*%
X99600000Y-86825000D03*
%TO.P,J1,1*%
%TO.N,GND*%
X99600000Y-86175000D03*
%TD*%
D10*
%TO.P,J2,1*%
%TO.N,Net-(C1-Pad2)*%
X92925000Y-92025000D03*
%TO.P,J2,2*%
%TO.N,Net-(J2-Pad2)*%
X92925000Y-91375000D03*
%TO.P,J2,3*%
%TO.N,Net-(J2-Pad3)*%
X92925000Y-90725000D03*
%TO.P,J2,4*%
%TO.N,Net-(J2-Pad4)*%
X92925000Y-90075000D03*
%TO.P,J2,5*%
%TO.N,Net-(J2-Pad5)*%
X92925000Y-89425000D03*
%TO.P,J2,6*%
%TO.N,Net-(J2-Pad6)*%
X92925000Y-88775000D03*
%TO.P,J2,8*%
%TO.N,Net-(J2-Pad8)*%
X92925000Y-87475000D03*
%TO.P,J2,9*%
%TO.N,Net-(J2-Pad9)*%
X92925000Y-86825000D03*
%TO.P,J2,10*%
%TO.N,Net-(J2-Pad10)*%
X92925000Y-86175000D03*
%TO.P,J2,7*%
%TO.N,Net-(J2-Pad7)*%
X92925000Y-88125000D03*
D11*
%TO.P,J2,9*%
%TO.N,Net-(J2-Pad9)*%
X92700000Y-86825000D03*
%TO.P,J2,10*%
%TO.N,Net-(J2-Pad10)*%
X92700000Y-86175000D03*
%TO.P,J2,5*%
%TO.N,Net-(J2-Pad5)*%
X92700000Y-89425000D03*
%TO.P,J2,6*%
%TO.N,Net-(J2-Pad6)*%
X92700000Y-88775000D03*
%TO.P,J2,8*%
%TO.N,Net-(J2-Pad8)*%
X92700000Y-87475000D03*
%TO.P,J2,7*%
%TO.N,Net-(J2-Pad7)*%
X92700000Y-88125000D03*
%TO.P,J2,3*%
%TO.N,Net-(J2-Pad3)*%
X92700000Y-90725000D03*
%TO.P,J2,4*%
%TO.N,Net-(J2-Pad4)*%
X92700000Y-90075000D03*
%TO.P,J2,2*%
%TO.N,Net-(J2-Pad2)*%
X92700000Y-91375000D03*
%TO.P,J2,1*%
%TO.N,Net-(C1-Pad2)*%
X92700000Y-92025000D03*
%TD*%
D12*
%TO.N,Net-(C1-Pad2)*%
X97350000Y-80850000D03*
D13*
%TO.N,GND*%
X103700000Y-76600000D03*
D12*
X90385000Y-78950000D03*
%TO.N,Net-(J1-Pad9)*%
X99300000Y-78900000D03*
%TO.N,Net-(J1-Pad8)*%
X97950000Y-91350000D03*
X98000000Y-78900000D03*
%TO.N,Net-(J1-Pad7)*%
X97250000Y-90300000D03*
X94200000Y-78900000D03*
%TO.N,Net-(J1-Pad6)*%
X96550000Y-89400000D03*
X92950000Y-78900000D03*
%TO.N,Net-(J1-Pad5)*%
X98326200Y-86150000D03*
%TO.N,Net-(J2-Pad9)*%
X93553407Y-82552411D03*
X92550000Y-81450000D03*
%TO.N,Net-(J2-Pad6)*%
X91700000Y-82500000D03*
%TO.N,Net-(J2-Pad5)*%
X91650000Y-78950000D03*
%TO.N,Net-(J2-Pad4)*%
X93150000Y-80900000D03*
%TO.N,Net-(J2-Pad3)*%
X94050000Y-80900000D03*
%TO.N,Net-(J2-Pad2)*%
X95400000Y-80900000D03*
%TO.N,Net-(J2-Pad10)*%
X90350000Y-82500000D03*
%TD*%
D14*
%TO.N,Net-(C1-Pad2)*%
X92925000Y-92025000D02*
X93475000Y-92025000D01*
X93475000Y-92025000D02*
X97025000Y-92025000D01*
X97025000Y-92025000D02*
X99600000Y-92025000D01*
X97025000Y-88275000D02*
X97025000Y-81175000D01*
X97900000Y-89150000D02*
X97025000Y-88275000D01*
X97900000Y-90550000D02*
X97900000Y-89150000D01*
X97400000Y-91050000D02*
X97900000Y-90550000D01*
X97400000Y-92025000D02*
X97400000Y-91050000D01*
X97025000Y-81175000D02*
X97350000Y-80850000D01*
X97025000Y-92025000D02*
X97400000Y-92025000D01*
%TO.N,GND*%
X99050000Y-85050000D02*
X99350000Y-84750000D01*
X99050000Y-85850000D02*
X99050000Y-85050000D01*
X99375000Y-86175000D02*
X99050000Y-85850000D01*
%TO.N,Net-(J1-Pad9)*%
X97799999Y-85600001D02*
X99300000Y-84100000D01*
X99300000Y-84100000D02*
X99300000Y-78900000D01*
X97799999Y-87999999D02*
X97799999Y-85600001D01*
X98700000Y-88900000D02*
X97799999Y-87999999D01*
X98997600Y-91375000D02*
X98700000Y-91077400D01*
X98700000Y-91077400D02*
X98700000Y-88900000D01*
X99375000Y-91375000D02*
X98997600Y-91375000D01*
%TO.N,Net-(J1-Pad8)*%
X97950000Y-91350000D02*
X98300000Y-91000000D01*
X98300000Y-91000000D02*
X98300000Y-89000000D01*
X97447589Y-88147589D02*
X97447589Y-84952411D01*
X98300000Y-89000000D02*
X97447589Y-88147589D01*
X98000000Y-84400000D02*
X98000000Y-78900000D01*
X97447589Y-84952411D02*
X98000000Y-84400000D01*
%TO.N,Net-(J1-Pad7)*%
X96600000Y-79850000D02*
X95650000Y-78900000D01*
X95650000Y-78900000D02*
X94200000Y-78900000D01*
X96600000Y-88400000D02*
X96600000Y-79850000D01*
X97250000Y-89050000D02*
X96600000Y-88400000D01*
X97250000Y-90300000D02*
X97250000Y-89050000D01*
%TO.N,Net-(J1-Pad6)*%
X93550000Y-79500000D02*
X92950000Y-78900000D01*
X95500000Y-79500000D02*
X93550000Y-79500000D01*
X96100000Y-88950000D02*
X96100000Y-80100000D01*
X96100000Y-80100000D02*
X95500000Y-79500000D01*
X96550000Y-89400000D02*
X96100000Y-88950000D01*
%TO.N,Net-(J1-Pad5)*%
X99077838Y-88775000D02*
X99375000Y-88775000D01*
X98326200Y-88023362D02*
X99077838Y-88775000D01*
X98326200Y-86150000D02*
X98326200Y-88023362D01*
%TO.N,Net-(J1-Pad3)*%
X99223790Y-87400000D02*
X99298790Y-87475000D01*
%TO.N,Net-(J2-Pad9)*%
X92550000Y-81549004D02*
X92550000Y-81450000D01*
X93553407Y-82552411D02*
X92550000Y-81549004D01*
%TO.N,Net-(J2-Pad6)*%
X93302400Y-88775000D02*
X93600000Y-88477400D01*
X92925000Y-88775000D02*
X93302400Y-88775000D01*
X93600000Y-88477400D02*
X93600000Y-84400000D01*
X93600000Y-84400000D02*
X91700000Y-82500000D01*
%TO.N,Net-(J2-Pad5)*%
X93952410Y-88774990D02*
X93952410Y-83802410D01*
X91650000Y-81500000D02*
X91650000Y-78950000D01*
X93302400Y-89425000D02*
X93952410Y-88774990D01*
X93952410Y-83802410D02*
X91650000Y-81500000D01*
X93302400Y-89425000D02*
X92700000Y-89425000D01*
%TO.N,Net-(J2-Pad4)*%
X93625000Y-90075000D02*
X94000000Y-89700000D01*
X92925000Y-90075000D02*
X93625000Y-90075000D01*
X94304820Y-89395180D02*
X94304820Y-82054820D01*
X94000000Y-89700000D02*
X94304820Y-89395180D01*
X94304820Y-82054820D02*
X93150000Y-80900000D01*
%TO.N,Net-(J2-Pad3)*%
X93753778Y-90725000D02*
X94178778Y-90300000D01*
X92925000Y-90725000D02*
X93753778Y-90725000D01*
X94850000Y-81700000D02*
X94050000Y-80900000D01*
X94200000Y-90300000D02*
X94850000Y-89650000D01*
X94178778Y-90300000D02*
X94200000Y-90300000D01*
X94850000Y-89650000D02*
X94850000Y-81700000D01*
%TO.N,Net-(J2-Pad2)*%
X94675000Y-91375000D02*
X92925000Y-91375000D01*
X95400000Y-90650000D02*
X94675000Y-91375000D01*
X95400000Y-80900000D02*
X95400000Y-90650000D01*
%TO.N,Net-(J2-Pad10)*%
X90700000Y-82500000D02*
X90350000Y-82500000D01*
X93200000Y-85000000D02*
X90700000Y-82500000D01*
X93200000Y-85900000D02*
X93200000Y-85000000D01*
X92925000Y-86175000D02*
X93200000Y-85900000D01*
%TD*%
D15*
%TO.N,GND*%
G36*
X104648001Y-80691172D02*
G01*
X104529950Y-80703580D01*
X104489832Y-80711815D01*
X104449578Y-80719494D01*
X104443536Y-80721318D01*
X103958799Y-80871370D01*
X103921009Y-80887255D01*
X103883050Y-80902592D01*
X103877481Y-80905553D01*
X103877476Y-80905555D01*
X103877472Y-80905558D01*
X103431116Y-81146901D01*
X103397164Y-81169802D01*
X103362873Y-81192241D01*
X103357982Y-81196230D01*
X102967000Y-81519679D01*
X102938133Y-81548749D01*
X102908864Y-81577411D01*
X102904841Y-81582274D01*
X102584130Y-81975505D01*
X102561461Y-82009624D01*
X102538314Y-82043429D01*
X102535317Y-82048973D01*
X102535312Y-82048981D01*
X102535309Y-82048989D01*
X102297088Y-82497015D01*
X102281457Y-82534937D01*
X102265338Y-82572547D01*
X102263471Y-82578575D01*
X102116808Y-83064349D01*
X102108847Y-83104554D01*
X102100334Y-83144606D01*
X102099674Y-83150883D01*
X102050157Y-83655892D01*
X102050157Y-83655905D01*
X102048001Y-83677795D01*
X102048000Y-84948000D01*
X99622205Y-84948000D01*
X99600000Y-84945813D01*
X99577795Y-84948000D01*
X99511393Y-84954540D01*
X99426190Y-84980386D01*
X99347667Y-85022357D01*
X99278841Y-85078841D01*
X99222357Y-85147667D01*
X99180386Y-85226190D01*
X99154540Y-85311393D01*
X99145813Y-85400000D01*
X99148000Y-85422204D01*
X99148000Y-85722099D01*
X99105500Y-85726285D01*
X99062711Y-85739265D01*
X99023276Y-85760343D01*
X98988710Y-85788710D01*
X98960343Y-85823276D01*
X98939668Y-85861956D01*
X98926150Y-85829320D01*
X98852060Y-85718437D01*
X98757763Y-85624140D01*
X98646880Y-85550050D01*
X98586565Y-85525067D01*
X99638342Y-84473290D01*
X99657537Y-84457537D01*
X99720419Y-84380915D01*
X99767145Y-84293498D01*
X99793534Y-84206503D01*
X99795918Y-84198645D01*
X99798178Y-84175699D01*
X99803200Y-84124712D01*
X99803200Y-84124704D01*
X99805633Y-84100000D01*
X99803200Y-84075296D01*
X99803200Y-79354223D01*
X99825860Y-79331563D01*
X99899950Y-79220680D01*
X99950984Y-79097474D01*
X99977000Y-78966679D01*
X99977000Y-78833321D01*
X99950984Y-78702526D01*
X99899950Y-78579320D01*
X99825860Y-78468437D01*
X99731563Y-78374140D01*
X99620680Y-78300050D01*
X99497474Y-78249016D01*
X99366679Y-78223000D01*
X99233321Y-78223000D01*
X99102526Y-78249016D01*
X98979320Y-78300050D01*
X98868437Y-78374140D01*
X98774140Y-78468437D01*
X98700050Y-78579320D01*
X98650000Y-78700150D01*
X98599950Y-78579320D01*
X98525860Y-78468437D01*
X98431563Y-78374140D01*
X98320680Y-78300050D01*
X98197474Y-78249016D01*
X98066679Y-78223000D01*
X97933321Y-78223000D01*
X97802526Y-78249016D01*
X97679320Y-78300050D01*
X97568437Y-78374140D01*
X97474140Y-78468437D01*
X97400050Y-78579320D01*
X97349016Y-78702526D01*
X97323000Y-78833321D01*
X97323000Y-78966679D01*
X97349016Y-79097474D01*
X97400050Y-79220680D01*
X97474140Y-79331563D01*
X97496801Y-79354224D01*
X97496801Y-80188937D01*
X97416679Y-80173000D01*
X97283321Y-80173000D01*
X97152526Y-80199016D01*
X97103200Y-80219448D01*
X97103200Y-79874704D01*
X97105633Y-79850000D01*
X97103200Y-79825296D01*
X97103200Y-79825288D01*
X97095918Y-79751356D01*
X97093221Y-79742463D01*
X97067145Y-79656502D01*
X97054505Y-79632855D01*
X97020419Y-79569085D01*
X97005564Y-79550984D01*
X96973290Y-79511657D01*
X96973285Y-79511652D01*
X96957537Y-79492463D01*
X96938348Y-79476715D01*
X96023289Y-78561657D01*
X96007537Y-78542463D01*
X95930915Y-78479581D01*
X95843498Y-78432855D01*
X95748644Y-78404082D01*
X95674712Y-78396800D01*
X95674704Y-78396800D01*
X95650000Y-78394367D01*
X95625296Y-78396800D01*
X94654223Y-78396800D01*
X94631563Y-78374140D01*
X94520680Y-78300050D01*
X94397474Y-78249016D01*
X94266679Y-78223000D01*
X94133321Y-78223000D01*
X94002526Y-78249016D01*
X93879320Y-78300050D01*
X93768437Y-78374140D01*
X93674140Y-78468437D01*
X93600050Y-78579320D01*
X93575000Y-78639796D01*
X93549950Y-78579320D01*
X93475860Y-78468437D01*
X93381563Y-78374140D01*
X93270680Y-78300050D01*
X93147474Y-78249016D01*
X93016679Y-78223000D01*
X92883321Y-78223000D01*
X92752526Y-78249016D01*
X92629320Y-78300050D01*
X92518437Y-78374140D01*
X92424140Y-78468437D01*
X92350050Y-78579320D01*
X92299016Y-78702526D01*
X92292936Y-78733095D01*
X92249950Y-78629320D01*
X92175860Y-78518437D01*
X92081563Y-78424140D01*
X91970680Y-78350050D01*
X91847474Y-78299016D01*
X91716679Y-78273000D01*
X91583321Y-78273000D01*
X91452526Y-78299016D01*
X91329320Y-78350050D01*
X91218437Y-78424140D01*
X91124140Y-78518437D01*
X91050050Y-78629320D01*
X90999016Y-78752526D01*
X90973000Y-78883321D01*
X90973000Y-79016679D01*
X90999016Y-79147474D01*
X91050050Y-79270680D01*
X91124140Y-79381563D01*
X91146801Y-79404224D01*
X91146800Y-81475296D01*
X91144367Y-81500000D01*
X91146800Y-81524704D01*
X91146800Y-81524711D01*
X91150168Y-81558902D01*
X91154082Y-81598644D01*
X91164929Y-81634401D01*
X91182855Y-81693497D01*
X91229581Y-81780915D01*
X91292463Y-81857537D01*
X91311658Y-81873290D01*
X91354801Y-81916433D01*
X91268437Y-81974140D01*
X91174140Y-82068437D01*
X91100050Y-82179320D01*
X91097385Y-82185753D01*
X91073289Y-82161657D01*
X91057537Y-82142463D01*
X90980915Y-82079581D01*
X90893498Y-82032855D01*
X90817105Y-82009682D01*
X90781563Y-81974140D01*
X90670680Y-81900050D01*
X90547474Y-81849016D01*
X90416679Y-81823000D01*
X90283321Y-81823000D01*
X90152526Y-81849016D01*
X90029320Y-81900050D01*
X89918437Y-81974140D01*
X89824140Y-82068437D01*
X89750050Y-82179320D01*
X89699016Y-82302526D01*
X89673000Y-82433321D01*
X89673000Y-82566679D01*
X89699016Y-82697474D01*
X89750050Y-82820680D01*
X89824140Y-82931563D01*
X89918437Y-83025860D01*
X90029320Y-83099950D01*
X90152526Y-83150984D01*
X90283321Y-83177000D01*
X90416679Y-83177000D01*
X90547474Y-83150984D01*
X90612441Y-83124073D01*
X92436367Y-84948000D01*
X89452000Y-84948000D01*
X89452000Y-76452000D01*
X104648000Y-76452000D01*
X104648001Y-80691172D01*
G37*
X104648001Y-80691172D02*
X104529950Y-80703580D01*
X104489832Y-80711815D01*
X104449578Y-80719494D01*
X104443536Y-80721318D01*
X103958799Y-80871370D01*
X103921009Y-80887255D01*
X103883050Y-80902592D01*
X103877481Y-80905553D01*
X103877476Y-80905555D01*
X103877472Y-80905558D01*
X103431116Y-81146901D01*
X103397164Y-81169802D01*
X103362873Y-81192241D01*
X103357982Y-81196230D01*
X102967000Y-81519679D01*
X102938133Y-81548749D01*
X102908864Y-81577411D01*
X102904841Y-81582274D01*
X102584130Y-81975505D01*
X102561461Y-82009624D01*
X102538314Y-82043429D01*
X102535317Y-82048973D01*
X102535312Y-82048981D01*
X102535309Y-82048989D01*
X102297088Y-82497015D01*
X102281457Y-82534937D01*
X102265338Y-82572547D01*
X102263471Y-82578575D01*
X102116808Y-83064349D01*
X102108847Y-83104554D01*
X102100334Y-83144606D01*
X102099674Y-83150883D01*
X102050157Y-83655892D01*
X102050157Y-83655905D01*
X102048001Y-83677795D01*
X102048000Y-84948000D01*
X99622205Y-84948000D01*
X99600000Y-84945813D01*
X99577795Y-84948000D01*
X99511393Y-84954540D01*
X99426190Y-84980386D01*
X99347667Y-85022357D01*
X99278841Y-85078841D01*
X99222357Y-85147667D01*
X99180386Y-85226190D01*
X99154540Y-85311393D01*
X99145813Y-85400000D01*
X99148000Y-85422204D01*
X99148000Y-85722099D01*
X99105500Y-85726285D01*
X99062711Y-85739265D01*
X99023276Y-85760343D01*
X98988710Y-85788710D01*
X98960343Y-85823276D01*
X98939668Y-85861956D01*
X98926150Y-85829320D01*
X98852060Y-85718437D01*
X98757763Y-85624140D01*
X98646880Y-85550050D01*
X98586565Y-85525067D01*
X99638342Y-84473290D01*
X99657537Y-84457537D01*
X99720419Y-84380915D01*
X99767145Y-84293498D01*
X99793534Y-84206503D01*
X99795918Y-84198645D01*
X99798178Y-84175699D01*
X99803200Y-84124712D01*
X99803200Y-84124704D01*
X99805633Y-84100000D01*
X99803200Y-84075296D01*
X99803200Y-79354223D01*
X99825860Y-79331563D01*
X99899950Y-79220680D01*
X99950984Y-79097474D01*
X99977000Y-78966679D01*
X99977000Y-78833321D01*
X99950984Y-78702526D01*
X99899950Y-78579320D01*
X99825860Y-78468437D01*
X99731563Y-78374140D01*
X99620680Y-78300050D01*
X99497474Y-78249016D01*
X99366679Y-78223000D01*
X99233321Y-78223000D01*
X99102526Y-78249016D01*
X98979320Y-78300050D01*
X98868437Y-78374140D01*
X98774140Y-78468437D01*
X98700050Y-78579320D01*
X98650000Y-78700150D01*
X98599950Y-78579320D01*
X98525860Y-78468437D01*
X98431563Y-78374140D01*
X98320680Y-78300050D01*
X98197474Y-78249016D01*
X98066679Y-78223000D01*
X97933321Y-78223000D01*
X97802526Y-78249016D01*
X97679320Y-78300050D01*
X97568437Y-78374140D01*
X97474140Y-78468437D01*
X97400050Y-78579320D01*
X97349016Y-78702526D01*
X97323000Y-78833321D01*
X97323000Y-78966679D01*
X97349016Y-79097474D01*
X97400050Y-79220680D01*
X97474140Y-79331563D01*
X97496801Y-79354224D01*
X97496801Y-80188937D01*
X97416679Y-80173000D01*
X97283321Y-80173000D01*
X97152526Y-80199016D01*
X97103200Y-80219448D01*
X97103200Y-79874704D01*
X97105633Y-79850000D01*
X97103200Y-79825296D01*
X97103200Y-79825288D01*
X97095918Y-79751356D01*
X97093221Y-79742463D01*
X97067145Y-79656502D01*
X97054505Y-79632855D01*
X97020419Y-79569085D01*
X97005564Y-79550984D01*
X96973290Y-79511657D01*
X96973285Y-79511652D01*
X96957537Y-79492463D01*
X96938348Y-79476715D01*
X96023289Y-78561657D01*
X96007537Y-78542463D01*
X95930915Y-78479581D01*
X95843498Y-78432855D01*
X95748644Y-78404082D01*
X95674712Y-78396800D01*
X95674704Y-78396800D01*
X95650000Y-78394367D01*
X95625296Y-78396800D01*
X94654223Y-78396800D01*
X94631563Y-78374140D01*
X94520680Y-78300050D01*
X94397474Y-78249016D01*
X94266679Y-78223000D01*
X94133321Y-78223000D01*
X94002526Y-78249016D01*
X93879320Y-78300050D01*
X93768437Y-78374140D01*
X93674140Y-78468437D01*
X93600050Y-78579320D01*
X93575000Y-78639796D01*
X93549950Y-78579320D01*
X93475860Y-78468437D01*
X93381563Y-78374140D01*
X93270680Y-78300050D01*
X93147474Y-78249016D01*
X93016679Y-78223000D01*
X92883321Y-78223000D01*
X92752526Y-78249016D01*
X92629320Y-78300050D01*
X92518437Y-78374140D01*
X92424140Y-78468437D01*
X92350050Y-78579320D01*
X92299016Y-78702526D01*
X92292936Y-78733095D01*
X92249950Y-78629320D01*
X92175860Y-78518437D01*
X92081563Y-78424140D01*
X91970680Y-78350050D01*
X91847474Y-78299016D01*
X91716679Y-78273000D01*
X91583321Y-78273000D01*
X91452526Y-78299016D01*
X91329320Y-78350050D01*
X91218437Y-78424140D01*
X91124140Y-78518437D01*
X91050050Y-78629320D01*
X90999016Y-78752526D01*
X90973000Y-78883321D01*
X90973000Y-79016679D01*
X90999016Y-79147474D01*
X91050050Y-79270680D01*
X91124140Y-79381563D01*
X91146801Y-79404224D01*
X91146800Y-81475296D01*
X91144367Y-81500000D01*
X91146800Y-81524704D01*
X91146800Y-81524711D01*
X91150168Y-81558902D01*
X91154082Y-81598644D01*
X91164929Y-81634401D01*
X91182855Y-81693497D01*
X91229581Y-81780915D01*
X91292463Y-81857537D01*
X91311658Y-81873290D01*
X91354801Y-81916433D01*
X91268437Y-81974140D01*
X91174140Y-82068437D01*
X91100050Y-82179320D01*
X91097385Y-82185753D01*
X91073289Y-82161657D01*
X91057537Y-82142463D01*
X90980915Y-82079581D01*
X90893498Y-82032855D01*
X90817105Y-82009682D01*
X90781563Y-81974140D01*
X90670680Y-81900050D01*
X90547474Y-81849016D01*
X90416679Y-81823000D01*
X90283321Y-81823000D01*
X90152526Y-81849016D01*
X90029320Y-81900050D01*
X89918437Y-81974140D01*
X89824140Y-82068437D01*
X89750050Y-82179320D01*
X89699016Y-82302526D01*
X89673000Y-82433321D01*
X89673000Y-82566679D01*
X89699016Y-82697474D01*
X89750050Y-82820680D01*
X89824140Y-82931563D01*
X89918437Y-83025860D01*
X90029320Y-83099950D01*
X90152526Y-83150984D01*
X90283321Y-83177000D01*
X90416679Y-83177000D01*
X90547474Y-83150984D01*
X90612441Y-83124073D01*
X92436367Y-84948000D01*
X89452000Y-84948000D01*
X89452000Y-76452000D01*
X104648000Y-76452000D01*
X104648001Y-80691172D01*
%TD*%
M02*
