<?xml version="1.0" standalone="no"?>
 <!DOCTYPE svg PUBLIC "-//W3C//DTD SVG 1.1//EN" 
 "http://www.w3.org/Graphics/SVG/1.1/DTD/svg11.dtd"> 
<svg
  xmlns:svg="http://www.w3.org/2000/svg"
  xmlns="http://www.w3.org/2000/svg"
  xmlns:xlink="http://www.w3.org/1999/xlink"
  version="1.1"
  width="29.700220cm" height="21.000720cm" viewBox="0 0 116930 82680">
<title>SVG Picture created as handheld-Edge_Cuts.svg date 2021/02/01 23:05:53 </title>
  <desc>Picture generated by PCBNEW </desc>
<g style="fill:#000000; fill-opacity:1;stroke:#000000; stroke-opacity:1;
stroke-linecap:round; stroke-linejoin:round;"
 transform="translate(0 0) scale(1 1)">
</g>
<g style="fill:#000000; fill-opacity:0.0; 
stroke:#000000; stroke-width:-0.000393701; stroke-opacity:1; 
stroke-linecap:round; stroke-linejoin:round;">
</g>
<g style="fill:#000000; fill-opacity:0.0; 
stroke:#000000; stroke-width:19.685; stroke-opacity:1; 
stroke-linecap:round; stroke-linejoin:round;">
<path d="M50551 54960
L18661 54960
" />
</g>
<g style="fill:#000000; fill-opacity:0.0; 
stroke:#000000; stroke-width:15; stroke-opacity:1; 
stroke-linecap:round; stroke-linejoin:round;">
<path d="M54566 52677
L54566 54960
" />
<path d="M50551 52677
L54566 52677
" />
<path d="M50551 54960
L50551 52677
" />
</g>
<g style="fill:#000000; fill-opacity:0.0; 
stroke:#000000; stroke-width:39.3701; stroke-opacity:1; 
stroke-linecap:round; stroke-linejoin:round;">
<path d="M23897 41653
L23897 38307
" />
<path d="M26732 41653
L23897 41653
" />
<path d="M26732 38307
L26732 41653
" />
<path d="M23897 38307
L26732 38307
" />
<path d="M96023 38307
L96023 41653
" />
<path d="M93188 38307
L96023 38307
" />
<path d="M93188 41653
L93188 38307
" />
<path d="M96023 41653
L93188 41653
" />
</g>
<g style="fill:#000000; fill-opacity:0.0; 
stroke:#000000; stroke-width:19.685; stroke-opacity:1; 
stroke-linecap:round; stroke-linejoin:round;">
<path d="M64488 54960
L54566 54960
" />
</g>
<g style="fill:#000000; fill-opacity:0.0; 
stroke:#000000; stroke-width:15; stroke-opacity:1; 
stroke-linecap:round; stroke-linejoin:round;">
<path d="M70472 51653
L70472 54960
" />
<path d="M70826 51653
L70472 51653
" />
<path d="M70826 49448
L70826 51653
" />
<path d="M81574 49448
L70826 49448
" />
<path d="M81574 42322
L81574 49448
" />
<path d="M78897 42322
L81574 42322
" />
<path d="M81574 37677
L78897 37677
" />
<path d="M81574 30590
L81574 37677
" />
<path d="M38425 30590
L81574 30590
" />
<path d="M38425 37677
L38425 30590
" />
<path d="M41102 37677
L38425 37677
" />
<path d="M56023 37677
L49055 37677
" />
<path d="M70944 37677
L63976 37677
" />
<path d="M63976 42322
L70944 42322
" />
<path d="M49055 42322
L56023 42322
" />
<path d="M38425 42322
L41102 42322
" />
<path d="M38425 49448
L38425 42322
" />
<path d="M64094 49448
L38425 49448
" />
<path d="M64094 51653
L64094 49448
" />
<path d="M64488 51653
L64094 51653
" />
<path d="M64488 54960
L64488 51653
" />
</g>
<g style="fill:#000000; fill-opacity:0.0; 
stroke:#000000; stroke-width:39.3701; stroke-opacity:1; 
stroke-linecap:round; stroke-linejoin:round;">
<path d="M37440 31023
L37440 32204
" />
<path d="M35354 31023
L37440 31023
" />
<path d="M35354 32204
L35354 31023
" />
<path d="M37440 32204
L35354 32204
" />
<path d="M37283 34330
L37283 35196
" />
<path d="M35551 34330
L37283 34330
" />
<path d="M35551 35196
L35551 34330
" />
<path d="M37283 35196
L35551 35196
" />
</g>
<g style="fill:#000000; fill-opacity:0.0; 
stroke:#000000; stroke-width:15; stroke-opacity:1; 
stroke-linecap:round; stroke-linejoin:round;">
<circle cx="31417.3" cy="48248" r="461.235" /> 
<circle cx="31417.3" cy="46475" r="461.235" /> 
<circle cx="33976.4" cy="46475" r="461.235" /> 
<circle cx="33976.4" cy="48248" r="461.235" /> 
<circle cx="86043.3" cy="48248" r="461.235" /> 
<circle cx="88602.4" cy="48248" r="461.235" /> 
<circle cx="88602.4" cy="46475" r="461.235" /> 
<circle cx="86043.3" cy="46475" r="461.235" /> 
<circle cx="85236.2" cy="29015.7" r="461.235" /> 
<circle cx="95315" cy="26653.5" r="371.417" /> 
<circle cx="93976.4" cy="26653.5" r="371.417" /> 
</g>
<g style="fill:#000000; fill-opacity:0.0; 
stroke:#000000; stroke-width:39.3701; stroke-opacity:1; 
stroke-linecap:round; stroke-linejoin:round;">
<path d="M91299 26200
L91299 29192
" />
<path d="M89291 26200
L91299 26200
" />
<path d="M89291 29192
L89291 26200
" />
<path d="M91299 29192
L89291 29192
" />
<path d="M28021 28779
L28021 29685
" />
<path d="M28021 29685
L25078 29685
" />
<path d="M25078 29685
L25078 28779
" />
<path d="M25078 28779
L28021 28779
" />
<path d="M29173 28779
L37125 28779
" />
<path d="M37125 28779
L37125 29685
" />
<path d="M37125 29685
L29173 29685
" />
<path d="M29173 29685
L29173 28779
" />
<path d="M70944 52598
L78897 52598
" />
<path d="M78897 52598
L78897 53503
" />
<path d="M70944 53503
L70944 52598
" />
<path d="M78897 53503
L70944 53503
" />
<path d="M70944 41417
L78897 41417
" />
<path d="M78897 41417
L78897 42322
" />
<path d="M70944 42322
L70944 41417
" />
<path d="M78897 37677
L78897 38582
" />
<path d="M70944 38582
L70944 37677
" />
<path d="M78897 38582
L70944 38582
" />
<path d="M70944 27401
L70944 26496
" />
<path d="M70944 26496
L78897 26496
" />
<path d="M78897 26496
L78897 27401
" />
<path d="M78897 27401
L70944 27401
" />
<path d="M49055 37677
L49055 38582
" />
<path d="M49055 38582
L41102 38582
" />
<path d="M41102 38582
L41102 37677
" />
<path d="M41102 41417
L49055 41417
" />
<path d="M49055 41417
L49055 42322
" />
<path d="M41102 42322
L41102 41417
" />
<path d="M49055 52598
L49055 53503
" />
<path d="M41102 53503
L41102 52598
" />
<path d="M49055 53503
L41102 53503
" />
<path d="M41102 52598
L49055 52598
" />
<path d="M56023 53503
L56023 52598
" />
<path d="M63976 53503
L56023 53503
" />
<path d="M56023 52598
L63976 52598
" />
<path d="M63976 52598
L63976 53503
" />
<path d="M63976 41417
L63976 42322
" />
<path d="M56023 42322
L56023 41417
" />
<path d="M56023 41417
L63976 41417
" />
<path d="M63976 38582
L56023 38582
" />
<path d="M56023 38582
L56023 37677
" />
<path d="M63976 37677
L63976 38582
" />
<path d="M63976 26496
L63976 27401
" />
<path d="M63976 27401
L56023 27401
" />
<path d="M56023 27401
L56023 26496
" />
<path d="M56023 26496
L63976 26496
" />
<path d="M49055 26496
L49055 27401
" />
<path d="M41102 26496
L49055 26496
" />
<path d="M41102 27401
L41102 26496
" />
<path d="M49055 27401
L41102 27401
" />
</g>
<g style="fill:#000000; fill-opacity:0.0; 
stroke:#000000; stroke-width:15; stroke-opacity:1; 
stroke-linecap:round; stroke-linejoin:round;">
<circle cx="19704.7" cy="40964.6" r="695.693" /> 
<circle cx="19704.7" cy="38996.1" r="695.693" /> 
<circle cx="30925.2" cy="38996.1" r="695.693" /> 
<circle cx="30925.2" cy="40964.6" r="695.693" /> 
<circle cx="88996.1" cy="38996.1" r="695.693" /> 
<circle cx="88996.1" cy="40964.6" r="695.693" /> 
<circle cx="100217" cy="38996.1" r="695.693" /> 
<circle cx="100217" cy="40964.6" r="695.693" /> 
<circle cx="92145.7" cy="45885.8" r="695.693" /> 
<circle cx="92145.7" cy="43917.3" r="695.693" /> 
<circle cx="97066.9" cy="45885.8" r="695.693" /> 
<circle cx="97066.9" cy="43917.3" r="695.693" /> 
<circle cx="97066.9" cy="36043.3" r="695.693" /> 
<circle cx="97066.9" cy="34074.8" r="695.693" /> 
<circle cx="92145.7" cy="34074.8" r="695.693" /> 
<circle cx="92145.7" cy="36043.3" r="695.693" /> 
<circle cx="27775.6" cy="36043.3" r="695.693" /> 
<circle cx="27775.6" cy="34074.8" r="695.693" /> 
<circle cx="22854.3" cy="34074.8" r="695.693" /> 
<circle cx="22854.3" cy="36043.3" r="695.693" /> 
<circle cx="27775.6" cy="45885.8" r="695.693" /> 
<circle cx="22854.3" cy="45885.8" r="695.693" /> 
<circle cx="22854.3" cy="43917.3" r="695.693" /> 
<circle cx="27775.6" cy="43917.3" r="695.693" /> 
<circle cx="101339" cy="51023.6" r="688.976" /> 
<circle cx="101339" cy="28976.4" r="688.976" /> 
<circle cx="18661.4" cy="28976.4" r="688.976" /> 
<circle cx="52539.4" cy="40000" r="688.976" /> 
<circle cx="67460.6" cy="40000" r="688.976" /> 
<circle cx="18661.4" cy="51023.6" r="688.976" /> 
</g>
<g style="fill:#000000; fill-opacity:0.0; 
stroke:#000000; stroke-width:19.685; stroke-opacity:1; 
stroke-linecap:round; stroke-linejoin:round;">
<path d="M55275 25039
L64685 25039
" />
<path d="M64685 25039
L101338 25039
" />
</g>
<g style="fill:#000000; fill-opacity:0.0; 
stroke:#000000; stroke-width:15; stroke-opacity:1; 
stroke-linecap:round; stroke-linejoin:round;">
<path d="M18661.4 25039.4 A5905.51 5905.51 0.0 0 0 12755.9 30944.9" />
<path d="M12755.9 49055.1 A5905.51 5905.51 0.0 0 0 18661.4 54960.6" />
<path d="M101339 54960.6 A5905.51 5905.51 0.0 0 0 107244 49055.1" />
<path d="M107244 30944.9 A5905.51 5905.51 0.0 0 0 101339 25039.4" />
</g>
<g style="fill:#000000; fill-opacity:0.0; 
stroke:#000000; stroke-width:19.685; stroke-opacity:1; 
stroke-linecap:round; stroke-linejoin:round;">
<path d="M107244 30944
L107244 49055
" />
<path d="M12755 30944
L12755 49055
" />
<path d="M101338 54960
L70472 54960
" />
<path d="M18661 25039
L55275 25039
" />
<g >
</g>
<g >
</g>
<g >
</g>
<g >
</g>
<g >
</g>
<g >
</g>
<g >
</g>
<g >
</g>
<g >
</g>
<g >
</g>
<g >
</g>
<g >
</g>
<g >
</g>
<g >
</g>
<g >
</g>
<g >
</g>
<g >
</g>
<g >
</g>
<g >
</g>
<g >
</g>
<g >
</g>
<g >
</g>
<g >
</g>
<g >
</g>
<g >
</g>
<g >
</g>
<g >
</g>
<g >
</g>
<g >
</g>
<g >
</g>
<g >
</g>
<g >
</g>
<g >
</g>
<g >
</g>
<g >
</g>
<g >
</g>
<g >
</g>
<g >
</g>
<g >
</g>
<g >
</g>
<g >
</g>
<g >
</g>
<g >
</g>
<g >
</g>
<g >
</g>
<g >
</g>
<g >
</g>
<g >
</g>
<g >
</g>
<g >
</g>
<g >
</g>
<g >
</g>
<g >
</g>
<g >
</g>
<g >
</g>
<g >
</g>
<g >
</g>
<g >
</g>
<g >
</g>
<g >
</g>
<g >
</g>
<g >
</g>
<g >
</g>
<g >
</g>
<g >
</g>
<g >
</g>
<g >
</g>
<g >
</g>
<g >
</g>
<g >
</g>
<g >
</g>
<g >
</g>
<g >
</g>
<g >
</g>
<g >
</g>
<g >
</g>
<g >
</g>
<g >
</g>
<g >
</g>
<g >
</g>
<g >
</g>
<g >
</g>
<g >
</g>
<g >
</g>
<g >
</g>
<g >
</g>
<g >
</g>
<g >
</g>
<g >
</g>
<g >
</g>
<g >
</g>
<g >
</g>
<g >
</g>
<g >
</g>
<g >
</g>
<g >
</g>
<g >
</g>
<g >
</g>
<g >
</g>
<g >
</g>
<g >
</g>
<g >
</g>
<g >
</g>
<g >
</g>
<g >
</g>
<g >
</g>
<g >
</g>
<g >
</g>
<g >
</g>
<g >
</g>
<g >
</g>
<g >
</g>
<g >
</g>
<g >
</g>
<g >
</g>
<g >
</g>
<g >
</g>
<g >
</g>
<g >
</g>
<g >
</g>
<g >
</g>
<g >
</g>
<g >
</g>
<g >
</g>
<g >
</g>
<g >
</g>
<g >
</g>
<g >
</g>
</g> 
</svg>
