<?xml version="1.0" standalone="no"?>
 <!DOCTYPE svg PUBLIC "-//W3C//DTD SVG 1.1//EN" 
 "http://www.w3.org/Graphics/SVG/1.1/DTD/svg11.dtd"> 
<svg
  xmlns:svg="http://www.w3.org/2000/svg"
  xmlns="http://www.w3.org/2000/svg"
  xmlns:xlink="http://www.w3.org/1999/xlink"
  version="1.1"
  width="29.700220cm" height="21.000720cm" viewBox="0 0 116930 82680">
<title>SVG Picture created as handheld-Edge_Cuts.svg date 2021/02/01 23:24:52 </title>
  <desc>Picture generated by PCBNEW </desc>
<g style="fill:#000000; fill-opacity:1;stroke:#000000; stroke-opacity:1;
stroke-linecap:round; stroke-linejoin:round;"
 transform="translate(0 0) scale(1 1)">
</g>
<g style="fill:#000000; fill-opacity:0.0; 
stroke:#000000; stroke-width:-0.000393701; stroke-opacity:1; 
stroke-linecap:round; stroke-linejoin:round;">
</g>
<g style="fill:#000000; fill-opacity:0.0; 
stroke:#000000; stroke-width:19.685; stroke-opacity:1; 
stroke-linecap:round; stroke-linejoin:round;">
<path d="M50551 54960
L18661 54960
" />
</g>
<g style="fill:#000000; fill-opacity:0.0; 
stroke:#000000; stroke-width:15; stroke-opacity:1; 
stroke-linecap:round; stroke-linejoin:round;">
<path d="M54566 52677
L54566 54960
" />
<path d="M50551 52677
L54566 52677
" />
<path d="M50551 54960
L50551 52677
" />
</g>
<g style="fill:#000000; fill-opacity:0.0; 
stroke:#000000; stroke-width:19.685; stroke-opacity:1; 
stroke-linecap:round; stroke-linejoin:round;">
<path d="M64488 54960
L54566 54960
" />
</g>
<g style="fill:#000000; fill-opacity:0.0; 
stroke:#000000; stroke-width:15; stroke-opacity:1; 
stroke-linecap:round; stroke-linejoin:round;">
<path d="M70472 51653
L70472 54960
" />
<path d="M70826 51653
L70472 51653
" />
<path d="M70826 49448
L70826 51653
" />
<path d="M81574 49448
L70826 49448
" />
<path d="M81574 42322
L81574 49448
" />
<path d="M41102 42322
L81574 42322
" />
<path d="M81574 37677
L78897 37677
" />
<path d="M81574 30590
L81574 37677
" />
<path d="M38425 30590
L81574 30590
" />
<path d="M38425 37677
L38425 30590
" />
<path d="M78897 37677
L38425 37677
" />
<path d="M38425 42322
L41102 42322
" />
<path d="M38425 49448
L38425 42322
" />
<path d="M64094 49448
L38425 49448
" />
<path d="M64094 51653
L64094 49448
" />
<path d="M64488 51653
L64094 51653
" />
<path d="M64488 54960
L64488 51653
" />
<circle cx="101339" cy="51023.6" r="1771.65" /> 
<circle cx="101339" cy="28976.4" r="1771.65" /> 
<circle cx="18661.4" cy="28976.4" r="1771.65" /> 
<circle cx="52539.4" cy="40000" r="688.976" /> 
<circle cx="67460.6" cy="40000" r="688.976" /> 
<circle cx="18661.4" cy="51023.6" r="1771.65" /> 
</g>
<g style="fill:#000000; fill-opacity:0.0; 
stroke:#000000; stroke-width:19.685; stroke-opacity:1; 
stroke-linecap:round; stroke-linejoin:round;">
<path d="M55275 25039
L64685 25039
" />
<path d="M64685 25039
L101338 25039
" />
</g>
<g style="fill:#000000; fill-opacity:0.0; 
stroke:#000000; stroke-width:15; stroke-opacity:1; 
stroke-linecap:round; stroke-linejoin:round;">
<path d="M18661.4 25039.4 A5905.51 5905.51 0.0 0 0 12755.9 30944.9" />
<path d="M12755.9 49055.1 A5905.51 5905.51 0.0 0 0 18661.4 54960.6" />
<path d="M101339 54960.6 A5905.51 5905.51 0.0 0 0 107244 49055.1" />
<path d="M107244 30944.9 A5905.51 5905.51 0.0 0 0 101339 25039.4" />
</g>
<g style="fill:#000000; fill-opacity:0.0; 
stroke:#000000; stroke-width:19.685; stroke-opacity:1; 
stroke-linecap:round; stroke-linejoin:round;">
<path d="M107244 30944
L107244 49055
" />
<path d="M12755 30944
L12755 49055
" />
<path d="M101338 54960
L70472 54960
" />
<path d="M18661 25039
L55275 25039
" />
<g >
</g>
<g >
</g>
<g >
</g>
<g >
</g>
<g >
</g>
<g >
</g>
<g >
</g>
<g >
</g>
<g >
</g>
<g >
</g>
<g >
</g>
<g >
</g>
<g >
</g>
<g >
</g>
<g >
</g>
<g >
</g>
<g >
</g>
<g >
</g>
<g >
</g>
<g >
</g>
<g >
</g>
<g >
</g>
<g >
</g>
<g >
</g>
<g >
</g>
<g >
</g>
<g >
</g>
<g >
</g>
<g >
</g>
<g >
</g>
<g >
</g>
<g >
</g>
<g >
</g>
<g >
</g>
<g >
</g>
<g >
</g>
<g >
</g>
<g >
</g>
<g >
</g>
<g >
</g>
<g >
</g>
<g >
</g>
<g >
</g>
<g >
</g>
<g >
</g>
<g >
</g>
<g >
</g>
<g >
</g>
<g >
</g>
<g >
</g>
<g >
</g>
<g >
</g>
<g >
</g>
<g >
</g>
<g >
</g>
<g >
</g>
<g >
</g>
<g >
</g>
<g >
</g>
<g >
</g>
<g >
</g>
<g >
</g>
<g >
</g>
<g >
</g>
<g >
</g>
<g >
</g>
<g >
</g>
<g >
</g>
<g >
</g>
<g >
</g>
<g >
</g>
<g >
</g>
<g >
</g>
<g >
</g>
<g >
</g>
<g >
</g>
<g >
</g>
<g >
</g>
<g >
</g>
<g >
</g>
<g >
</g>
<g >
</g>
<g >
</g>
<g >
</g>
<g >
</g>
<g >
</g>
<g >
</g>
<g >
</g>
<g >
</g>
<g >
</g>
<g >
</g>
<g >
</g>
<g >
</g>
<g >
</g>
<g >
</g>
<g >
</g>
<g >
</g>
<g >
</g>
<g >
</g>
<g >
</g>
<g >
</g>
<g >
</g>
<g >
</g>
<g >
</g>
<g >
</g>
<g >
</g>
<g >
</g>
<g >
</g>
<g >
</g>
</g> 
</svg>
