M48
; DRILL file {KiCad (5.1.6-0-10_14)} date Tuesday, December 22, 2020 at 09:33:53 PM
; FORMAT={-:-/ absolute / inch / decimal}
; #@! TF.CreationDate,2020-12-22T21:33:53-08:00
; #@! TF.GenerationSoftware,Kicad,Pcbnew,(5.1.6-0-10_14)
; #@! TF.FileFunction,Plated,1,4,PTH
FMAT,2
INCH
T1C0.0100
T2C0.0295
T3C0.0300
T4C0.0315
T5C0.0335
T6C0.0354
T7C0.0362
T8C0.0394
T9C0.0433
T10C0.0484
T11C0.0512
T12C0.0906
%
G90
G05
T1
X2.7559Y-3.002
X3.4764Y-4.2953
X3.4764Y-4.3346
X3.5197Y-4.2953
X3.5197Y-4.3346
X3.563Y-3.002
X3.563Y-4.2953
X3.563Y-4.3346
X3.6713Y-3.002
X3.7559Y-4.3071
X3.7559Y-4.3386
X3.7874Y-4.3071
X3.7874Y-4.3386
X3.815Y-4.1181
X3.8189Y-4.5276
X3.9134Y-2.6496
X3.9134Y-3.0591
X3.9213Y-4.126
X3.9528Y-5.0472
X3.9606Y-4.252
X3.9606Y-4.2913
X3.9606Y-4.3307
X3.9606Y-4.3701
X3.9921Y-4.1929
X3.9921Y-4.2244
X4.0276Y-4.1929
X4.0276Y-4.2244
X4.0472Y-3.0079
X4.0512Y-5.0827
X4.0551Y-4.9213
X4.0551Y-4.9606
X4.0551Y-5.0
X4.0551Y-5.0394
X4.0787Y-3.0079
X4.0787Y-3.0472
X4.0787Y-3.0866
X4.0787Y-3.126
X4.0787Y-5.3819
X4.1496Y-3.1457
X4.1496Y-3.3661
X4.1535Y-3.1102
X4.1535Y-4.6339
X4.1594Y-4.4921
X4.1811Y-3.3661
X4.2028Y-4.9016
X4.252Y-3.3661
X4.252Y-3.1102
X4.252Y-4.6339
X4.2579Y-4.4724
X4.2992Y-3.1575
X4.3012Y-4.9016
X4.3033Y-3.3663
X4.3071Y-3.7677
X4.3543Y-3.626
X4.3579Y-4.7988
X4.3701Y-2.8425
X4.4055Y-4.6693
X4.4094Y-3.0315
X4.4094Y-3.8583
X4.4547Y-4.748
X4.4683Y-3.3663
X4.4724Y-3.1654
X4.4843Y-4.6339
X4.5177Y-5.0295
X4.5197Y-4.6339
X4.5197Y-4.8624
X4.5236Y-3.3661
X4.5591Y-3.689
X4.5591Y-4.0709
X4.5591Y-4.1181
X4.5591Y-4.3031
X4.5669Y-3.1811
X4.5669Y-4.6339
X4.5683Y-3.3675
X4.5925Y-4.5118
X4.5945Y-2.9764
X4.6181Y-4.6339
X4.6181Y-4.8476
X4.6183Y-3.3663
X4.626Y-5.0295
X4.6299Y-2.9055
X4.6614Y-2.8465
X4.6614Y-4.374
X4.6654Y-3.0354
X4.6654Y-3.3661
X4.6693Y-5.2165
X4.6909Y-4.5512
X4.7559Y-3.7165
X4.7598Y-4.689
X4.7638Y-4.0433
X4.7677Y-4.9646
X4.7874Y-2.9213
X4.7874Y-2.7677
X4.8579Y-4.187
X4.8583Y-4.0945
X4.9016Y-5.0945
X4.9528Y-5.0709
X5.0512Y-5.0945
X5.1102Y-3.4921
X5.1102Y-3.6732
X5.1378Y-3.6417
X5.1496Y-3.1063
X5.1693Y-3.5591
X5.185Y-2.9449
X5.1929Y-3.3228
X5.1939Y-5.1604
X5.2047Y-5.0118
X5.2126Y-2.9213
X5.2146Y-2.6949
X5.2165Y-2.7874
X5.2165Y-3.3622
X5.2165Y-3.5236
X5.2244Y-3.6024
X5.2402Y-2.8976
X5.2677Y-2.874
X5.2874Y-2.5866
X5.2953Y-2.8583
X5.2992Y-5.0906
X5.2992Y-5.1496
X5.3228Y-2.8346
X5.3278Y-5.1152
X5.3504Y-2.811
X5.3661Y-5.2008
X5.378Y-2.622
X5.3848Y-5.1368
X5.3898Y-3.6732
X5.4055Y-2.6929
X5.4055Y-3.3622
X5.4055Y-3.4449
X5.4055Y-3.5197
X5.4101Y-4.7369
X5.4101Y-4.5663
X5.4114Y-4.3957
X5.4114Y-4.9075
X5.4331Y-2.7402
X5.435Y-2.5492
X5.4488Y-5.1614
X5.4567Y-4.1063
X5.4587Y-3.2067
X5.4646Y-2.8661
X5.4823Y-2.5492
X5.4921Y-4.1063
X5.4961Y-2.5984
X5.5157Y-3.5472
X5.5157Y-3.6417
X5.5276Y-3.9528
X5.5276Y-4.1063
X5.5354Y-3.9055
X5.5906Y-3.1496
X5.6024Y-4.2559
X5.6181Y-3.6142
X5.6181Y-3.1142
X5.6437Y-4.4705
X5.645Y-4.6411
X5.645Y-4.8117
X5.6457Y-4.9803
X5.6496Y-3.7441
X5.6496Y-5.2362
X5.6969Y-2.5866
X5.7283Y-3.5039
X5.748Y-3.5315
X5.7992Y-4.9528
X5.815Y-3.5906
X5.8386Y-2.8543
X5.8386Y-3.6142
X5.8504Y-3.9055
X5.8661Y-2.5433
X5.9409Y-4.9016
X5.9488Y-3.9055
X5.9528Y-3.6969
X5.9724Y-2.622
X5.985Y-3.6969
X6.015Y-3.6969
X6.0157Y-2.622
X6.0276Y-4.6299
X6.0472Y-3.6969
X6.0499Y-5.399
X6.0512Y-2.7638
X6.0512Y-3.9055
X6.0512Y-4.1181
X6.0551Y-2.622
X6.0945Y-3.6732
X6.1024Y-2.811
X6.1024Y-5.0984
X6.122Y-3.6496
X6.1339Y-4.4646
X6.1378Y-2.563
X6.1417Y-2.811
X6.1496Y-4.0
X6.1496Y-4.0709
X6.1614Y-2.8898
X6.1614Y-3.6181
X6.1929Y-3.9764
X6.2047Y-2.937
X6.2087Y-3.6181
X6.2402Y-4.622
X6.2402Y-4.6693
X6.2402Y-4.7205
X6.2402Y-4.7717
X6.2402Y-4.8189
X6.2402Y-4.8701
X6.2402Y-4.9213
X6.2402Y-4.5709
X6.2441Y-3.9764
X6.248Y-3.8819
X6.252Y-3.6181
X6.252Y-4.0709
X6.252Y-5.378
X6.2913Y-3.9528
X6.2953Y-3.6181
X6.315Y-3.9291
X6.3307Y-3.4409
X6.3386Y-3.0709
X6.3386Y-3.6181
X6.3386Y-3.7126
X6.3504Y-2.7874
X6.3504Y-4.0945
X6.3622Y-2.8661
X6.3622Y-3.0906
X6.3622Y-3.4173
X6.3819Y-3.6181
X6.4252Y-4.9606
X6.4291Y-3.6181
X6.4291Y-4.1715
X6.4961Y-2.9567
X6.4961Y-3.5669
X6.6339Y-2.8189
X6.6339Y-2.8622
X6.6339Y-2.9094
X6.6339Y-2.9567
X6.6339Y-3.0079
X6.6339Y-3.0551
X6.6339Y-3.1339
X6.6339Y-3.1693
X6.6575Y-3.1969
X7.1024Y-3.0197
X7.1024Y-3.189
X7.1024Y-3.3583
X7.1024Y-3.5276
X7.1024Y-4.3976
X7.1024Y-4.5669
X7.1024Y-4.7362
X7.1024Y-4.9055
X7.1417Y-3.7441
X7.1417Y-5.2362
X7.3386Y-4.4685
X7.3386Y-4.6417
X7.3386Y-4.811
X7.3386Y-4.9803
X7.3425Y-2.5945
X7.3465Y-3.0945
X7.3465Y-3.2638
X7.3465Y-3.4213
X7.3465Y-3.5591
X7.4921Y-3.4567
X7.4921Y-4.9528
X7.5433Y-3.9055
X7.5433Y-5.4029
X7.5551Y-2.9843
X7.689Y-4.9547
X7.6949Y-3.4587
X7.7402Y-3.8819
X7.7421Y-5.3753
X7.8346Y-4.5945
X7.9016Y-3.1378
X7.9094Y-4.874
X7.937Y-2.6102
X8.0197Y-2.6535
X8.0433Y-2.5945
X8.0433Y-2.6339
X8.0965Y-3.0728
X8.0965Y-4.5728
X8.124Y-3.124
X8.126Y-4.622
X8.1535Y-3.1772
X8.1555Y-4.6713
X8.185Y-2.6969
X8.185Y-3.2283
X8.185Y-4.7244
X8.2126Y-4.7717
X8.2146Y-3.2776
X8.2441Y-3.3189
X8.2441Y-4.8228
X8.2717Y-4.874
X8.2736Y-3.3799
X8.3031Y-3.4291
X8.3031Y-4.9213
X8.3268Y-3.3819
X8.3268Y-4.2756
X8.3583Y-3.3661
X8.3583Y-4.2323
X8.3858Y-3.3504
X8.3858Y-3.7362
X8.3858Y-5.2362
X8.4134Y-3.3346
X8.4134Y-4.2559
X8.4409Y-3.3189
X8.4409Y-3.7638
X8.4409Y-5.2598
X8.4724Y-3.3071
X8.4724Y-4.2992
X8.5039Y-3.2953
X8.5039Y-4.3228
X8.5315Y-3.2008
X8.5315Y-3.7126
X8.5315Y-5.2126
X9.1811Y-2.9055
X9.5669Y-2.9055
X9.5669Y-2.815
T2
X3.5906Y-3.4764
X3.6406Y-3.4764
X3.6906Y-3.4764
T3
X4.1579Y-2.6949
X4.1579Y-3.813
X4.2579Y-2.6949
X4.2579Y-3.813
X4.3579Y-2.6949
X4.3579Y-3.813
X4.4579Y-2.6949
X4.4579Y-3.813
X4.5579Y-2.6949
X4.5579Y-3.813
X4.6579Y-2.6949
X4.6579Y-3.813
X4.7579Y-2.6949
X4.7579Y-3.813
X4.8579Y-2.6949
X4.8579Y-3.813
X5.65Y-2.6949
X5.65Y-3.813
X5.75Y-2.6949
X5.75Y-3.813
X5.85Y-2.6949
X5.85Y-3.813
X5.95Y-2.6949
X5.95Y-3.813
X6.05Y-2.6949
X6.05Y-3.813
X6.15Y-2.6949
X6.15Y-3.813
X6.25Y-2.6949
X6.25Y-3.813
X6.35Y-2.6949
X6.35Y-3.813
X5.65Y-4.187
X5.65Y-5.3051
X5.75Y-4.187
X5.75Y-5.3051
X5.85Y-4.187
X5.85Y-5.3051
X5.95Y-4.187
X5.95Y-5.3051
X6.05Y-4.187
X6.05Y-5.3051
X6.15Y-4.187
X6.15Y-5.3051
X6.25Y-4.187
X6.25Y-5.3051
X6.35Y-4.187
X6.35Y-5.3051
X4.1579Y-4.187
X4.1579Y-5.3051
X4.2579Y-4.187
X4.2579Y-5.3051
X4.3579Y-4.187
X4.3579Y-5.3051
X4.4579Y-4.187
X4.4579Y-5.3051
X4.5579Y-4.187
X4.5579Y-5.3051
X4.6579Y-4.187
X4.6579Y-5.3051
X4.7579Y-4.187
X4.7579Y-5.3051
X4.8579Y-4.187
X4.8579Y-5.3051
X7.1421Y-2.6949
X7.1421Y-3.813
X7.2421Y-2.6949
X7.2421Y-3.813
X7.3421Y-2.6949
X7.3421Y-3.813
X7.4421Y-2.6949
X7.4421Y-3.813
X7.5421Y-2.6949
X7.5421Y-3.813
X7.6421Y-2.6949
X7.6421Y-3.813
X7.7421Y-2.6949
X7.7421Y-3.813
X7.8421Y-2.6949
X7.8421Y-3.813
X7.1421Y-4.187
X7.1421Y-5.3051
X7.2421Y-4.187
X7.2421Y-5.3051
X7.3421Y-4.187
X7.3421Y-5.3051
X7.4421Y-4.187
X7.4421Y-5.3051
X7.5421Y-4.187
X7.5421Y-5.3051
X7.6421Y-4.187
X7.6421Y-5.3051
X7.7421Y-4.187
X7.7421Y-5.3051
X7.8421Y-4.187
X7.8421Y-5.3051
T4
X9.3976Y-2.6654
X9.5315Y-2.6654
T5
X8.5236Y-2.7047
X8.5236Y-2.9016
T6
X5.1575Y-5.315
X5.1575Y-5.4449
X5.2559Y-5.315
X5.2559Y-5.4449
X5.3543Y-5.315
X5.3543Y-5.4449
X3.5906Y-3.1614
X3.6906Y-3.1614
T7
X6.6083Y-4.9858
X6.7067Y-4.9858
X6.7854Y-4.9858
X6.8839Y-4.9858
T8
X8.9803Y-2.6693
X8.9803Y-2.7693
X8.9803Y-2.8693
X9.0803Y-2.6693
X9.0803Y-2.7693
X9.0803Y-2.8693
X2.5559Y-2.9232
X2.6559Y-2.9232
X2.7559Y-2.9232
X2.9654Y-2.9232
X3.0654Y-2.9232
X3.1654Y-2.9232
X3.2654Y-2.9232
X3.3654Y-2.9232
X3.4654Y-2.9232
X3.5654Y-2.9232
X3.6654Y-2.9232
T9
X8.6043Y-4.6476
X8.6043Y-4.8248
X8.8602Y-4.6476
X8.8602Y-4.8248
X3.1417Y-4.6476
X3.1417Y-4.8248
X3.3976Y-4.6476
X3.3976Y-4.8248
T10
X3.9921Y-3.4114
X8.0079Y-3.4114
X3.9921Y-4.5906
X8.0079Y-4.5906
T11
X9.5295Y-3.9
X9.5295Y-4.0969
X10.0217Y-3.9
X10.0217Y-4.0969
X2.6004Y-3.9
X2.6004Y-4.0969
X3.0925Y-3.9
X3.0925Y-4.0969
X2.2854Y-3.4079
X2.2854Y-3.6047
X2.7776Y-3.4079
X2.7776Y-3.6047
X9.2146Y-3.4079
X9.2146Y-3.6047
X9.7067Y-3.4079
X9.7067Y-3.6047
X2.2854Y-4.3921
X2.2854Y-4.589
X2.7776Y-4.3921
X2.7776Y-4.589
X9.2146Y-4.3921
X9.2146Y-4.589
X9.7067Y-4.3921
X9.7067Y-4.589
X1.9705Y-3.9
X1.9705Y-4.0969
X2.4626Y-3.9
X2.4626Y-4.0969
X8.8996Y-3.9
X8.8996Y-4.0969
X9.3917Y-3.9
X9.3917Y-4.0969
T12
X6.4874Y-5.0925
X7.0047Y-5.0925
T0
M30
