G04 #@! TF.GenerationSoftware,KiCad,Pcbnew,(5.1.6-0-10_14)*
G04 #@! TF.CreationDate,2020-12-21T23:22:52-08:00*
G04 #@! TF.ProjectId,handheld,68616e64-6865-46c6-942e-6b696361645f,rev?*
G04 #@! TF.SameCoordinates,Original*
G04 #@! TF.FileFunction,Soldermask,Bot*
G04 #@! TF.FilePolarity,Negative*
%FSLAX46Y46*%
G04 Gerber Fmt 4.6, Leading zero omitted, Abs format (unit mm)*
G04 Created by KiCad (PCBNEW (5.1.6-0-10_14)) date 2020-12-21 23:22:52*
%MOMM*%
%LPD*%
G01*
G04 APERTURE LIST*
%ADD10C,0.100000*%
G04 APERTURE END LIST*
D10*
G36*
X136218768Y-137578822D02*
G01*
X136355258Y-137635358D01*
X136478099Y-137717438D01*
X136582562Y-137821901D01*
X136664642Y-137944742D01*
X136721178Y-138081232D01*
X136750000Y-138226131D01*
X136750000Y-138373869D01*
X136721178Y-138518768D01*
X136664642Y-138655258D01*
X136582562Y-138778099D01*
X136478099Y-138882562D01*
X136355258Y-138964642D01*
X136218768Y-139021178D01*
X136073869Y-139050000D01*
X135926131Y-139050000D01*
X135781232Y-139021178D01*
X135644742Y-138964642D01*
X135521901Y-138882562D01*
X135417438Y-138778099D01*
X135335358Y-138655258D01*
X135278822Y-138518768D01*
X135250000Y-138373869D01*
X135250000Y-138226131D01*
X135278822Y-138081232D01*
X135335358Y-137944742D01*
X135417438Y-137821901D01*
X135521901Y-137717438D01*
X135644742Y-137635358D01*
X135781232Y-137578822D01*
X135926131Y-137550000D01*
X136073869Y-137550000D01*
X136218768Y-137578822D01*
G37*
G36*
X133718768Y-137578822D02*
G01*
X133855258Y-137635358D01*
X133978099Y-137717438D01*
X134082562Y-137821901D01*
X134164642Y-137944742D01*
X134221178Y-138081232D01*
X134250000Y-138226131D01*
X134250000Y-138373869D01*
X134221178Y-138518768D01*
X134164642Y-138655258D01*
X134082562Y-138778099D01*
X133978099Y-138882562D01*
X133855258Y-138964642D01*
X133718768Y-139021178D01*
X133573869Y-139050000D01*
X133426131Y-139050000D01*
X133281232Y-139021178D01*
X133144742Y-138964642D01*
X133021901Y-138882562D01*
X132917438Y-138778099D01*
X132835358Y-138655258D01*
X132778822Y-138518768D01*
X132750000Y-138373869D01*
X132750000Y-138226131D01*
X132778822Y-138081232D01*
X132835358Y-137944742D01*
X132917438Y-137821901D01*
X133021901Y-137717438D01*
X133144742Y-137635358D01*
X133281232Y-137578822D01*
X133426131Y-137550000D01*
X133573869Y-137550000D01*
X133718768Y-137578822D01*
G37*
G36*
X131218768Y-137578822D02*
G01*
X131355258Y-137635358D01*
X131478099Y-137717438D01*
X131582562Y-137821901D01*
X131664642Y-137944742D01*
X131721178Y-138081232D01*
X131750000Y-138226131D01*
X131750000Y-138373869D01*
X131721178Y-138518768D01*
X131664642Y-138655258D01*
X131582562Y-138778099D01*
X131478099Y-138882562D01*
X131355258Y-138964642D01*
X131218768Y-139021178D01*
X131073869Y-139050000D01*
X130926131Y-139050000D01*
X130781232Y-139021178D01*
X130644742Y-138964642D01*
X130521901Y-138882562D01*
X130417438Y-138778099D01*
X130335358Y-138655258D01*
X130278822Y-138518768D01*
X130250000Y-138373869D01*
X130250000Y-138226131D01*
X130278822Y-138081232D01*
X130335358Y-137944742D01*
X130417438Y-137821901D01*
X130521901Y-137717438D01*
X130644742Y-137635358D01*
X130781232Y-137578822D01*
X130926131Y-137550000D01*
X131073869Y-137550000D01*
X131218768Y-137578822D01*
G37*
G36*
X136750000Y-135750000D02*
G01*
X135250000Y-135750000D01*
X135250000Y-134250000D01*
X136750000Y-134250000D01*
X136750000Y-135750000D01*
G37*
G36*
X133718768Y-134278822D02*
G01*
X133855258Y-134335358D01*
X133978099Y-134417438D01*
X134082562Y-134521901D01*
X134164642Y-134644742D01*
X134221178Y-134781232D01*
X134250000Y-134926131D01*
X134250000Y-135073869D01*
X134221178Y-135218768D01*
X134164642Y-135355258D01*
X134082562Y-135478099D01*
X133978099Y-135582562D01*
X133855258Y-135664642D01*
X133718768Y-135721178D01*
X133573869Y-135750000D01*
X133426131Y-135750000D01*
X133281232Y-135721178D01*
X133144742Y-135664642D01*
X133021901Y-135582562D01*
X132917438Y-135478099D01*
X132835358Y-135355258D01*
X132778822Y-135218768D01*
X132750000Y-135073869D01*
X132750000Y-134926131D01*
X132778822Y-134781232D01*
X132835358Y-134644742D01*
X132917438Y-134521901D01*
X133021901Y-134417438D01*
X133144742Y-134335358D01*
X133281232Y-134278822D01*
X133426131Y-134250000D01*
X133573869Y-134250000D01*
X133718768Y-134278822D01*
G37*
G36*
X131218768Y-134278822D02*
G01*
X131355258Y-134335358D01*
X131478099Y-134417438D01*
X131582562Y-134521901D01*
X131664642Y-134644742D01*
X131721178Y-134781232D01*
X131750000Y-134926131D01*
X131750000Y-135073869D01*
X131721178Y-135218768D01*
X131664642Y-135355258D01*
X131582562Y-135478099D01*
X131478099Y-135582562D01*
X131355258Y-135664642D01*
X131218768Y-135721178D01*
X131073869Y-135750000D01*
X130926131Y-135750000D01*
X130781232Y-135721178D01*
X130644742Y-135664642D01*
X130521901Y-135582562D01*
X130417438Y-135478099D01*
X130335358Y-135355258D01*
X130278822Y-135218768D01*
X130250000Y-135073869D01*
X130250000Y-134926131D01*
X130278822Y-134781232D01*
X130335358Y-134644742D01*
X130417438Y-134521901D01*
X130521901Y-134417438D01*
X130644742Y-134335358D01*
X130781232Y-134278822D01*
X130926131Y-134250000D01*
X131073869Y-134250000D01*
X131218768Y-134278822D01*
G37*
G36*
X184186852Y-133969205D02*
G01*
X184334624Y-134030413D01*
X184387824Y-134065960D01*
X184467620Y-134119278D01*
X184580722Y-134232380D01*
X184611753Y-134278822D01*
X184669587Y-134365376D01*
X184730795Y-134513148D01*
X184762000Y-134670025D01*
X184762000Y-134829975D01*
X184730795Y-134986852D01*
X184669587Y-135134624D01*
X184634040Y-135187824D01*
X184580722Y-135267620D01*
X184467620Y-135380722D01*
X184387824Y-135434040D01*
X184334624Y-135469587D01*
X184186852Y-135530795D01*
X184029975Y-135562000D01*
X183870025Y-135562000D01*
X183713148Y-135530795D01*
X183565376Y-135469587D01*
X183512176Y-135434040D01*
X183432380Y-135380722D01*
X183319278Y-135267620D01*
X183265960Y-135187824D01*
X183230413Y-135134624D01*
X183169205Y-134986852D01*
X183138000Y-134829975D01*
X183138000Y-134670025D01*
X183169205Y-134513148D01*
X183230413Y-134365376D01*
X183288247Y-134278822D01*
X183319278Y-134232380D01*
X183432380Y-134119278D01*
X183512176Y-134065960D01*
X183565376Y-134030413D01*
X183713148Y-133969205D01*
X183870025Y-133938000D01*
X184029975Y-133938000D01*
X184186852Y-133969205D01*
G37*
G36*
X181646852Y-133969205D02*
G01*
X181794624Y-134030413D01*
X181847824Y-134065960D01*
X181927620Y-134119278D01*
X182040722Y-134232380D01*
X182071753Y-134278822D01*
X182129587Y-134365376D01*
X182190795Y-134513148D01*
X182222000Y-134670025D01*
X182222000Y-134829975D01*
X182190795Y-134986852D01*
X182129587Y-135134624D01*
X182094040Y-135187824D01*
X182040722Y-135267620D01*
X181927620Y-135380722D01*
X181847824Y-135434040D01*
X181794624Y-135469587D01*
X181646852Y-135530795D01*
X181489975Y-135562000D01*
X181330025Y-135562000D01*
X181173148Y-135530795D01*
X181025376Y-135469587D01*
X180972176Y-135434040D01*
X180892380Y-135380722D01*
X180779278Y-135267620D01*
X180725960Y-135187824D01*
X180690413Y-135134624D01*
X180629205Y-134986852D01*
X180598000Y-134829975D01*
X180598000Y-134670025D01*
X180629205Y-134513148D01*
X180690413Y-134365376D01*
X180748247Y-134278822D01*
X180779278Y-134232380D01*
X180892380Y-134119278D01*
X180972176Y-134065960D01*
X181025376Y-134030413D01*
X181173148Y-133969205D01*
X181330025Y-133938000D01*
X181489975Y-133938000D01*
X181646852Y-133969205D01*
G37*
G36*
X161526852Y-133969205D02*
G01*
X161674624Y-134030413D01*
X161727824Y-134065960D01*
X161807620Y-134119278D01*
X161920722Y-134232380D01*
X161951753Y-134278822D01*
X162009587Y-134365376D01*
X162070795Y-134513148D01*
X162102000Y-134670025D01*
X162102000Y-134829975D01*
X162070795Y-134986852D01*
X162009587Y-135134624D01*
X161974040Y-135187824D01*
X161920722Y-135267620D01*
X161807620Y-135380722D01*
X161727824Y-135434040D01*
X161674624Y-135469587D01*
X161526852Y-135530795D01*
X161369975Y-135562000D01*
X161210025Y-135562000D01*
X161053148Y-135530795D01*
X160905376Y-135469587D01*
X160852176Y-135434040D01*
X160772380Y-135380722D01*
X160659278Y-135267620D01*
X160605960Y-135187824D01*
X160570413Y-135134624D01*
X160509205Y-134986852D01*
X160478000Y-134829975D01*
X160478000Y-134670025D01*
X160509205Y-134513148D01*
X160570413Y-134365376D01*
X160628247Y-134278822D01*
X160659278Y-134232380D01*
X160772380Y-134119278D01*
X160852176Y-134065960D01*
X160905376Y-134030413D01*
X161053148Y-133969205D01*
X161210025Y-133938000D01*
X161369975Y-133938000D01*
X161526852Y-133969205D01*
G37*
G36*
X158986852Y-133969205D02*
G01*
X159134624Y-134030413D01*
X159187824Y-134065960D01*
X159267620Y-134119278D01*
X159380722Y-134232380D01*
X159411753Y-134278822D01*
X159469587Y-134365376D01*
X159530795Y-134513148D01*
X159562000Y-134670025D01*
X159562000Y-134829975D01*
X159530795Y-134986852D01*
X159469587Y-135134624D01*
X159434040Y-135187824D01*
X159380722Y-135267620D01*
X159267620Y-135380722D01*
X159187824Y-135434040D01*
X159134624Y-135469587D01*
X158986852Y-135530795D01*
X158829975Y-135562000D01*
X158670025Y-135562000D01*
X158513148Y-135530795D01*
X158365376Y-135469587D01*
X158312176Y-135434040D01*
X158232380Y-135380722D01*
X158119278Y-135267620D01*
X158065960Y-135187824D01*
X158030413Y-135134624D01*
X157969205Y-134986852D01*
X157938000Y-134829975D01*
X157938000Y-134670025D01*
X157969205Y-134513148D01*
X158030413Y-134365376D01*
X158088247Y-134278822D01*
X158119278Y-134232380D01*
X158232380Y-134119278D01*
X158312176Y-134065960D01*
X158365376Y-134030413D01*
X158513148Y-133969205D01*
X158670025Y-133938000D01*
X158829975Y-133938000D01*
X158986852Y-133969205D01*
G37*
G36*
X156446852Y-133969205D02*
G01*
X156594624Y-134030413D01*
X156647824Y-134065960D01*
X156727620Y-134119278D01*
X156840722Y-134232380D01*
X156871753Y-134278822D01*
X156929587Y-134365376D01*
X156990795Y-134513148D01*
X157022000Y-134670025D01*
X157022000Y-134829975D01*
X156990795Y-134986852D01*
X156929587Y-135134624D01*
X156894040Y-135187824D01*
X156840722Y-135267620D01*
X156727620Y-135380722D01*
X156647824Y-135434040D01*
X156594624Y-135469587D01*
X156446852Y-135530795D01*
X156289975Y-135562000D01*
X156130025Y-135562000D01*
X155973148Y-135530795D01*
X155825376Y-135469587D01*
X155772176Y-135434040D01*
X155692380Y-135380722D01*
X155579278Y-135267620D01*
X155525960Y-135187824D01*
X155490413Y-135134624D01*
X155429205Y-134986852D01*
X155398000Y-134829975D01*
X155398000Y-134670025D01*
X155429205Y-134513148D01*
X155490413Y-134365376D01*
X155548247Y-134278822D01*
X155579278Y-134232380D01*
X155692380Y-134119278D01*
X155772176Y-134065960D01*
X155825376Y-134030413D01*
X155973148Y-133969205D01*
X156130025Y-133938000D01*
X156289975Y-133938000D01*
X156446852Y-133969205D01*
G37*
G36*
X153906852Y-133969205D02*
G01*
X154054624Y-134030413D01*
X154107824Y-134065960D01*
X154187620Y-134119278D01*
X154300722Y-134232380D01*
X154331753Y-134278822D01*
X154389587Y-134365376D01*
X154450795Y-134513148D01*
X154482000Y-134670025D01*
X154482000Y-134829975D01*
X154450795Y-134986852D01*
X154389587Y-135134624D01*
X154354040Y-135187824D01*
X154300722Y-135267620D01*
X154187620Y-135380722D01*
X154107824Y-135434040D01*
X154054624Y-135469587D01*
X153906852Y-135530795D01*
X153749975Y-135562000D01*
X153590025Y-135562000D01*
X153433148Y-135530795D01*
X153285376Y-135469587D01*
X153232176Y-135434040D01*
X153152380Y-135380722D01*
X153039278Y-135267620D01*
X152985960Y-135187824D01*
X152950413Y-135134624D01*
X152889205Y-134986852D01*
X152858000Y-134829975D01*
X152858000Y-134670025D01*
X152889205Y-134513148D01*
X152950413Y-134365376D01*
X153008247Y-134278822D01*
X153039278Y-134232380D01*
X153152380Y-134119278D01*
X153232176Y-134065960D01*
X153285376Y-134030413D01*
X153433148Y-133969205D01*
X153590025Y-133938000D01*
X153749975Y-133938000D01*
X153906852Y-133969205D01*
G37*
G36*
X151366852Y-133969205D02*
G01*
X151514624Y-134030413D01*
X151567824Y-134065960D01*
X151647620Y-134119278D01*
X151760722Y-134232380D01*
X151791753Y-134278822D01*
X151849587Y-134365376D01*
X151910795Y-134513148D01*
X151942000Y-134670025D01*
X151942000Y-134829975D01*
X151910795Y-134986852D01*
X151849587Y-135134624D01*
X151814040Y-135187824D01*
X151760722Y-135267620D01*
X151647620Y-135380722D01*
X151567824Y-135434040D01*
X151514624Y-135469587D01*
X151366852Y-135530795D01*
X151209975Y-135562000D01*
X151050025Y-135562000D01*
X150893148Y-135530795D01*
X150745376Y-135469587D01*
X150692176Y-135434040D01*
X150612380Y-135380722D01*
X150499278Y-135267620D01*
X150445960Y-135187824D01*
X150410413Y-135134624D01*
X150349205Y-134986852D01*
X150318000Y-134829975D01*
X150318000Y-134670025D01*
X150349205Y-134513148D01*
X150410413Y-134365376D01*
X150468247Y-134278822D01*
X150499278Y-134232380D01*
X150612380Y-134119278D01*
X150692176Y-134065960D01*
X150745376Y-134030413D01*
X150893148Y-133969205D01*
X151050025Y-133938000D01*
X151209975Y-133938000D01*
X151366852Y-133969205D01*
G37*
G36*
X148826852Y-133969205D02*
G01*
X148974624Y-134030413D01*
X149027824Y-134065960D01*
X149107620Y-134119278D01*
X149220722Y-134232380D01*
X149251753Y-134278822D01*
X149309587Y-134365376D01*
X149370795Y-134513148D01*
X149402000Y-134670025D01*
X149402000Y-134829975D01*
X149370795Y-134986852D01*
X149309587Y-135134624D01*
X149274040Y-135187824D01*
X149220722Y-135267620D01*
X149107620Y-135380722D01*
X149027824Y-135434040D01*
X148974624Y-135469587D01*
X148826852Y-135530795D01*
X148669975Y-135562000D01*
X148510025Y-135562000D01*
X148353148Y-135530795D01*
X148205376Y-135469587D01*
X148152176Y-135434040D01*
X148072380Y-135380722D01*
X147959278Y-135267620D01*
X147905960Y-135187824D01*
X147870413Y-135134624D01*
X147809205Y-134986852D01*
X147778000Y-134829975D01*
X147778000Y-134670025D01*
X147809205Y-134513148D01*
X147870413Y-134365376D01*
X147928247Y-134278822D01*
X147959278Y-134232380D01*
X148072380Y-134119278D01*
X148152176Y-134065960D01*
X148205376Y-134030413D01*
X148353148Y-133969205D01*
X148510025Y-133938000D01*
X148669975Y-133938000D01*
X148826852Y-133969205D01*
G37*
G36*
X146286852Y-133969205D02*
G01*
X146434624Y-134030413D01*
X146487824Y-134065960D01*
X146567620Y-134119278D01*
X146680722Y-134232380D01*
X146711753Y-134278822D01*
X146769587Y-134365376D01*
X146830795Y-134513148D01*
X146862000Y-134670025D01*
X146862000Y-134829975D01*
X146830795Y-134986852D01*
X146769587Y-135134624D01*
X146734040Y-135187824D01*
X146680722Y-135267620D01*
X146567620Y-135380722D01*
X146487824Y-135434040D01*
X146434624Y-135469587D01*
X146286852Y-135530795D01*
X146129975Y-135562000D01*
X145970025Y-135562000D01*
X145813148Y-135530795D01*
X145665376Y-135469587D01*
X145612176Y-135434040D01*
X145532380Y-135380722D01*
X145419278Y-135267620D01*
X145365960Y-135187824D01*
X145330413Y-135134624D01*
X145269205Y-134986852D01*
X145238000Y-134829975D01*
X145238000Y-134670025D01*
X145269205Y-134513148D01*
X145330413Y-134365376D01*
X145388247Y-134278822D01*
X145419278Y-134232380D01*
X145532380Y-134119278D01*
X145612176Y-134065960D01*
X145665376Y-134030413D01*
X145813148Y-133969205D01*
X145970025Y-133938000D01*
X146129975Y-133938000D01*
X146286852Y-133969205D01*
G37*
G36*
X143746852Y-133969205D02*
G01*
X143894624Y-134030413D01*
X143947824Y-134065960D01*
X144027620Y-134119278D01*
X144140722Y-134232380D01*
X144171753Y-134278822D01*
X144229587Y-134365376D01*
X144290795Y-134513148D01*
X144322000Y-134670025D01*
X144322000Y-134829975D01*
X144290795Y-134986852D01*
X144229587Y-135134624D01*
X144194040Y-135187824D01*
X144140722Y-135267620D01*
X144027620Y-135380722D01*
X143947824Y-135434040D01*
X143894624Y-135469587D01*
X143746852Y-135530795D01*
X143589975Y-135562000D01*
X143430025Y-135562000D01*
X143273148Y-135530795D01*
X143125376Y-135469587D01*
X143072176Y-135434040D01*
X142992380Y-135380722D01*
X142879278Y-135267620D01*
X142825960Y-135187824D01*
X142790413Y-135134624D01*
X142729205Y-134986852D01*
X142698000Y-134829975D01*
X142698000Y-134670025D01*
X142729205Y-134513148D01*
X142790413Y-134365376D01*
X142848247Y-134278822D01*
X142879278Y-134232380D01*
X142992380Y-134119278D01*
X143072176Y-134065960D01*
X143125376Y-134030413D01*
X143273148Y-133969205D01*
X143430025Y-133938000D01*
X143589975Y-133938000D01*
X143746852Y-133969205D01*
G37*
G36*
X123626852Y-133969205D02*
G01*
X123774624Y-134030413D01*
X123827824Y-134065960D01*
X123907620Y-134119278D01*
X124020722Y-134232380D01*
X124051753Y-134278822D01*
X124109587Y-134365376D01*
X124170795Y-134513148D01*
X124202000Y-134670025D01*
X124202000Y-134829975D01*
X124170795Y-134986852D01*
X124109587Y-135134624D01*
X124074040Y-135187824D01*
X124020722Y-135267620D01*
X123907620Y-135380722D01*
X123827824Y-135434040D01*
X123774624Y-135469587D01*
X123626852Y-135530795D01*
X123469975Y-135562000D01*
X123310025Y-135562000D01*
X123153148Y-135530795D01*
X123005376Y-135469587D01*
X122952176Y-135434040D01*
X122872380Y-135380722D01*
X122759278Y-135267620D01*
X122705960Y-135187824D01*
X122670413Y-135134624D01*
X122609205Y-134986852D01*
X122578000Y-134829975D01*
X122578000Y-134670025D01*
X122609205Y-134513148D01*
X122670413Y-134365376D01*
X122728247Y-134278822D01*
X122759278Y-134232380D01*
X122872380Y-134119278D01*
X122952176Y-134065960D01*
X123005376Y-134030413D01*
X123153148Y-133969205D01*
X123310025Y-133938000D01*
X123469975Y-133938000D01*
X123626852Y-133969205D01*
G37*
G36*
X121086852Y-133969205D02*
G01*
X121234624Y-134030413D01*
X121287824Y-134065960D01*
X121367620Y-134119278D01*
X121480722Y-134232380D01*
X121511753Y-134278822D01*
X121569587Y-134365376D01*
X121630795Y-134513148D01*
X121662000Y-134670025D01*
X121662000Y-134829975D01*
X121630795Y-134986852D01*
X121569587Y-135134624D01*
X121534040Y-135187824D01*
X121480722Y-135267620D01*
X121367620Y-135380722D01*
X121287824Y-135434040D01*
X121234624Y-135469587D01*
X121086852Y-135530795D01*
X120929975Y-135562000D01*
X120770025Y-135562000D01*
X120613148Y-135530795D01*
X120465376Y-135469587D01*
X120412176Y-135434040D01*
X120332380Y-135380722D01*
X120219278Y-135267620D01*
X120165960Y-135187824D01*
X120130413Y-135134624D01*
X120069205Y-134986852D01*
X120038000Y-134829975D01*
X120038000Y-134670025D01*
X120069205Y-134513148D01*
X120130413Y-134365376D01*
X120188247Y-134278822D01*
X120219278Y-134232380D01*
X120332380Y-134119278D01*
X120412176Y-134065960D01*
X120465376Y-134030413D01*
X120613148Y-133969205D01*
X120770025Y-133938000D01*
X120929975Y-133938000D01*
X121086852Y-133969205D01*
G37*
G36*
X118546852Y-133969205D02*
G01*
X118694624Y-134030413D01*
X118747824Y-134065960D01*
X118827620Y-134119278D01*
X118940722Y-134232380D01*
X118971753Y-134278822D01*
X119029587Y-134365376D01*
X119090795Y-134513148D01*
X119122000Y-134670025D01*
X119122000Y-134829975D01*
X119090795Y-134986852D01*
X119029587Y-135134624D01*
X118994040Y-135187824D01*
X118940722Y-135267620D01*
X118827620Y-135380722D01*
X118747824Y-135434040D01*
X118694624Y-135469587D01*
X118546852Y-135530795D01*
X118389975Y-135562000D01*
X118230025Y-135562000D01*
X118073148Y-135530795D01*
X117925376Y-135469587D01*
X117872176Y-135434040D01*
X117792380Y-135380722D01*
X117679278Y-135267620D01*
X117625960Y-135187824D01*
X117590413Y-135134624D01*
X117529205Y-134986852D01*
X117498000Y-134829975D01*
X117498000Y-134670025D01*
X117529205Y-134513148D01*
X117590413Y-134365376D01*
X117648247Y-134278822D01*
X117679278Y-134232380D01*
X117792380Y-134119278D01*
X117872176Y-134065960D01*
X117925376Y-134030413D01*
X118073148Y-133969205D01*
X118230025Y-133938000D01*
X118389975Y-133938000D01*
X118546852Y-133969205D01*
G37*
G36*
X116006852Y-133969205D02*
G01*
X116154624Y-134030413D01*
X116207824Y-134065960D01*
X116287620Y-134119278D01*
X116400722Y-134232380D01*
X116431753Y-134278822D01*
X116489587Y-134365376D01*
X116550795Y-134513148D01*
X116582000Y-134670025D01*
X116582000Y-134829975D01*
X116550795Y-134986852D01*
X116489587Y-135134624D01*
X116454040Y-135187824D01*
X116400722Y-135267620D01*
X116287620Y-135380722D01*
X116207824Y-135434040D01*
X116154624Y-135469587D01*
X116006852Y-135530795D01*
X115849975Y-135562000D01*
X115690025Y-135562000D01*
X115533148Y-135530795D01*
X115385376Y-135469587D01*
X115332176Y-135434040D01*
X115252380Y-135380722D01*
X115139278Y-135267620D01*
X115085960Y-135187824D01*
X115050413Y-135134624D01*
X114989205Y-134986852D01*
X114958000Y-134829975D01*
X114958000Y-134670025D01*
X114989205Y-134513148D01*
X115050413Y-134365376D01*
X115108247Y-134278822D01*
X115139278Y-134232380D01*
X115252380Y-134119278D01*
X115332176Y-134065960D01*
X115385376Y-134030413D01*
X115533148Y-133969205D01*
X115690025Y-133938000D01*
X115849975Y-133938000D01*
X116006852Y-133969205D01*
G37*
G36*
X113466852Y-133969205D02*
G01*
X113614624Y-134030413D01*
X113667824Y-134065960D01*
X113747620Y-134119278D01*
X113860722Y-134232380D01*
X113891753Y-134278822D01*
X113949587Y-134365376D01*
X114010795Y-134513148D01*
X114042000Y-134670025D01*
X114042000Y-134829975D01*
X114010795Y-134986852D01*
X113949587Y-135134624D01*
X113914040Y-135187824D01*
X113860722Y-135267620D01*
X113747620Y-135380722D01*
X113667824Y-135434040D01*
X113614624Y-135469587D01*
X113466852Y-135530795D01*
X113309975Y-135562000D01*
X113150025Y-135562000D01*
X112993148Y-135530795D01*
X112845376Y-135469587D01*
X112792176Y-135434040D01*
X112712380Y-135380722D01*
X112599278Y-135267620D01*
X112545960Y-135187824D01*
X112510413Y-135134624D01*
X112449205Y-134986852D01*
X112418000Y-134829975D01*
X112418000Y-134670025D01*
X112449205Y-134513148D01*
X112510413Y-134365376D01*
X112568247Y-134278822D01*
X112599278Y-134232380D01*
X112712380Y-134119278D01*
X112792176Y-134065960D01*
X112845376Y-134030413D01*
X112993148Y-133969205D01*
X113150025Y-133938000D01*
X113309975Y-133938000D01*
X113466852Y-133969205D01*
G37*
G36*
X110926852Y-133969205D02*
G01*
X111074624Y-134030413D01*
X111127824Y-134065960D01*
X111207620Y-134119278D01*
X111320722Y-134232380D01*
X111351753Y-134278822D01*
X111409587Y-134365376D01*
X111470795Y-134513148D01*
X111502000Y-134670025D01*
X111502000Y-134829975D01*
X111470795Y-134986852D01*
X111409587Y-135134624D01*
X111374040Y-135187824D01*
X111320722Y-135267620D01*
X111207620Y-135380722D01*
X111127824Y-135434040D01*
X111074624Y-135469587D01*
X110926852Y-135530795D01*
X110769975Y-135562000D01*
X110610025Y-135562000D01*
X110453148Y-135530795D01*
X110305376Y-135469587D01*
X110252176Y-135434040D01*
X110172380Y-135380722D01*
X110059278Y-135267620D01*
X110005960Y-135187824D01*
X109970413Y-135134624D01*
X109909205Y-134986852D01*
X109878000Y-134829975D01*
X109878000Y-134670025D01*
X109909205Y-134513148D01*
X109970413Y-134365376D01*
X110028247Y-134278822D01*
X110059278Y-134232380D01*
X110172380Y-134119278D01*
X110252176Y-134065960D01*
X110305376Y-134030413D01*
X110453148Y-133969205D01*
X110610025Y-133938000D01*
X110769975Y-133938000D01*
X110926852Y-133969205D01*
G37*
G36*
X108386852Y-133969205D02*
G01*
X108534624Y-134030413D01*
X108587824Y-134065960D01*
X108667620Y-134119278D01*
X108780722Y-134232380D01*
X108811753Y-134278822D01*
X108869587Y-134365376D01*
X108930795Y-134513148D01*
X108962000Y-134670025D01*
X108962000Y-134829975D01*
X108930795Y-134986852D01*
X108869587Y-135134624D01*
X108834040Y-135187824D01*
X108780722Y-135267620D01*
X108667620Y-135380722D01*
X108587824Y-135434040D01*
X108534624Y-135469587D01*
X108386852Y-135530795D01*
X108229975Y-135562000D01*
X108070025Y-135562000D01*
X107913148Y-135530795D01*
X107765376Y-135469587D01*
X107712176Y-135434040D01*
X107632380Y-135380722D01*
X107519278Y-135267620D01*
X107465960Y-135187824D01*
X107430413Y-135134624D01*
X107369205Y-134986852D01*
X107338000Y-134829975D01*
X107338000Y-134670025D01*
X107369205Y-134513148D01*
X107430413Y-134365376D01*
X107488247Y-134278822D01*
X107519278Y-134232380D01*
X107632380Y-134119278D01*
X107712176Y-134065960D01*
X107765376Y-134030413D01*
X107913148Y-133969205D01*
X108070025Y-133938000D01*
X108229975Y-133938000D01*
X108386852Y-133969205D01*
G37*
G36*
X105846852Y-133969205D02*
G01*
X105994624Y-134030413D01*
X106047824Y-134065960D01*
X106127620Y-134119278D01*
X106240722Y-134232380D01*
X106271753Y-134278822D01*
X106329587Y-134365376D01*
X106390795Y-134513148D01*
X106422000Y-134670025D01*
X106422000Y-134829975D01*
X106390795Y-134986852D01*
X106329587Y-135134624D01*
X106294040Y-135187824D01*
X106240722Y-135267620D01*
X106127620Y-135380722D01*
X106047824Y-135434040D01*
X105994624Y-135469587D01*
X105846852Y-135530795D01*
X105689975Y-135562000D01*
X105530025Y-135562000D01*
X105373148Y-135530795D01*
X105225376Y-135469587D01*
X105172176Y-135434040D01*
X105092380Y-135380722D01*
X104979278Y-135267620D01*
X104925960Y-135187824D01*
X104890413Y-135134624D01*
X104829205Y-134986852D01*
X104798000Y-134829975D01*
X104798000Y-134670025D01*
X104829205Y-134513148D01*
X104890413Y-134365376D01*
X104948247Y-134278822D01*
X104979278Y-134232380D01*
X105092380Y-134119278D01*
X105172176Y-134065960D01*
X105225376Y-134030413D01*
X105373148Y-133969205D01*
X105530025Y-133938000D01*
X105689975Y-133938000D01*
X105846852Y-133969205D01*
G37*
G36*
X186726852Y-133969205D02*
G01*
X186874624Y-134030413D01*
X186927824Y-134065960D01*
X187007620Y-134119278D01*
X187120722Y-134232380D01*
X187151753Y-134278822D01*
X187209587Y-134365376D01*
X187270795Y-134513148D01*
X187302000Y-134670025D01*
X187302000Y-134829975D01*
X187270795Y-134986852D01*
X187209587Y-135134624D01*
X187174040Y-135187824D01*
X187120722Y-135267620D01*
X187007620Y-135380722D01*
X186927824Y-135434040D01*
X186874624Y-135469587D01*
X186726852Y-135530795D01*
X186569975Y-135562000D01*
X186410025Y-135562000D01*
X186253148Y-135530795D01*
X186105376Y-135469587D01*
X186052176Y-135434040D01*
X185972380Y-135380722D01*
X185859278Y-135267620D01*
X185805960Y-135187824D01*
X185770413Y-135134624D01*
X185709205Y-134986852D01*
X185678000Y-134829975D01*
X185678000Y-134670025D01*
X185709205Y-134513148D01*
X185770413Y-134365376D01*
X185828247Y-134278822D01*
X185859278Y-134232380D01*
X185972380Y-134119278D01*
X186052176Y-134065960D01*
X186105376Y-134030413D01*
X186253148Y-133969205D01*
X186410025Y-133938000D01*
X186569975Y-133938000D01*
X186726852Y-133969205D01*
G37*
G36*
X189266852Y-133969205D02*
G01*
X189414624Y-134030413D01*
X189467824Y-134065960D01*
X189547620Y-134119278D01*
X189660722Y-134232380D01*
X189691753Y-134278822D01*
X189749587Y-134365376D01*
X189810795Y-134513148D01*
X189842000Y-134670025D01*
X189842000Y-134829975D01*
X189810795Y-134986852D01*
X189749587Y-135134624D01*
X189714040Y-135187824D01*
X189660722Y-135267620D01*
X189547620Y-135380722D01*
X189467824Y-135434040D01*
X189414624Y-135469587D01*
X189266852Y-135530795D01*
X189109975Y-135562000D01*
X188950025Y-135562000D01*
X188793148Y-135530795D01*
X188645376Y-135469587D01*
X188592176Y-135434040D01*
X188512380Y-135380722D01*
X188399278Y-135267620D01*
X188345960Y-135187824D01*
X188310413Y-135134624D01*
X188249205Y-134986852D01*
X188218000Y-134829975D01*
X188218000Y-134670025D01*
X188249205Y-134513148D01*
X188310413Y-134365376D01*
X188368247Y-134278822D01*
X188399278Y-134232380D01*
X188512380Y-134119278D01*
X188592176Y-134065960D01*
X188645376Y-134030413D01*
X188793148Y-133969205D01*
X188950025Y-133938000D01*
X189109975Y-133938000D01*
X189266852Y-133969205D01*
G37*
G36*
X191806852Y-133969205D02*
G01*
X191954624Y-134030413D01*
X192007824Y-134065960D01*
X192087620Y-134119278D01*
X192200722Y-134232380D01*
X192231753Y-134278822D01*
X192289587Y-134365376D01*
X192350795Y-134513148D01*
X192382000Y-134670025D01*
X192382000Y-134829975D01*
X192350795Y-134986852D01*
X192289587Y-135134624D01*
X192254040Y-135187824D01*
X192200722Y-135267620D01*
X192087620Y-135380722D01*
X192007824Y-135434040D01*
X191954624Y-135469587D01*
X191806852Y-135530795D01*
X191649975Y-135562000D01*
X191490025Y-135562000D01*
X191333148Y-135530795D01*
X191185376Y-135469587D01*
X191132176Y-135434040D01*
X191052380Y-135380722D01*
X190939278Y-135267620D01*
X190885960Y-135187824D01*
X190850413Y-135134624D01*
X190789205Y-134986852D01*
X190758000Y-134829975D01*
X190758000Y-134670025D01*
X190789205Y-134513148D01*
X190850413Y-134365376D01*
X190908247Y-134278822D01*
X190939278Y-134232380D01*
X191052380Y-134119278D01*
X191132176Y-134065960D01*
X191185376Y-134030413D01*
X191333148Y-133969205D01*
X191490025Y-133938000D01*
X191649975Y-133938000D01*
X191806852Y-133969205D01*
G37*
G36*
X194346852Y-133969205D02*
G01*
X194494624Y-134030413D01*
X194547824Y-134065960D01*
X194627620Y-134119278D01*
X194740722Y-134232380D01*
X194771753Y-134278822D01*
X194829587Y-134365376D01*
X194890795Y-134513148D01*
X194922000Y-134670025D01*
X194922000Y-134829975D01*
X194890795Y-134986852D01*
X194829587Y-135134624D01*
X194794040Y-135187824D01*
X194740722Y-135267620D01*
X194627620Y-135380722D01*
X194547824Y-135434040D01*
X194494624Y-135469587D01*
X194346852Y-135530795D01*
X194189975Y-135562000D01*
X194030025Y-135562000D01*
X193873148Y-135530795D01*
X193725376Y-135469587D01*
X193672176Y-135434040D01*
X193592380Y-135380722D01*
X193479278Y-135267620D01*
X193425960Y-135187824D01*
X193390413Y-135134624D01*
X193329205Y-134986852D01*
X193298000Y-134829975D01*
X193298000Y-134670025D01*
X193329205Y-134513148D01*
X193390413Y-134365376D01*
X193448247Y-134278822D01*
X193479278Y-134232380D01*
X193592380Y-134119278D01*
X193672176Y-134065960D01*
X193725376Y-134030413D01*
X193873148Y-133969205D01*
X194030025Y-133938000D01*
X194189975Y-133938000D01*
X194346852Y-133969205D01*
G37*
G36*
X196886852Y-133969205D02*
G01*
X197034624Y-134030413D01*
X197087824Y-134065960D01*
X197167620Y-134119278D01*
X197280722Y-134232380D01*
X197311753Y-134278822D01*
X197369587Y-134365376D01*
X197430795Y-134513148D01*
X197462000Y-134670025D01*
X197462000Y-134829975D01*
X197430795Y-134986852D01*
X197369587Y-135134624D01*
X197334040Y-135187824D01*
X197280722Y-135267620D01*
X197167620Y-135380722D01*
X197087824Y-135434040D01*
X197034624Y-135469587D01*
X196886852Y-135530795D01*
X196729975Y-135562000D01*
X196570025Y-135562000D01*
X196413148Y-135530795D01*
X196265376Y-135469587D01*
X196212176Y-135434040D01*
X196132380Y-135380722D01*
X196019278Y-135267620D01*
X195965960Y-135187824D01*
X195930413Y-135134624D01*
X195869205Y-134986852D01*
X195838000Y-134829975D01*
X195838000Y-134670025D01*
X195869205Y-134513148D01*
X195930413Y-134365376D01*
X195988247Y-134278822D01*
X196019278Y-134232380D01*
X196132380Y-134119278D01*
X196212176Y-134065960D01*
X196265376Y-134030413D01*
X196413148Y-133969205D01*
X196570025Y-133938000D01*
X196729975Y-133938000D01*
X196886852Y-133969205D01*
G37*
G36*
X199426852Y-133969205D02*
G01*
X199574624Y-134030413D01*
X199627824Y-134065960D01*
X199707620Y-134119278D01*
X199820722Y-134232380D01*
X199851753Y-134278822D01*
X199909587Y-134365376D01*
X199970795Y-134513148D01*
X200002000Y-134670025D01*
X200002000Y-134829975D01*
X199970795Y-134986852D01*
X199909587Y-135134624D01*
X199874040Y-135187824D01*
X199820722Y-135267620D01*
X199707620Y-135380722D01*
X199627824Y-135434040D01*
X199574624Y-135469587D01*
X199426852Y-135530795D01*
X199269975Y-135562000D01*
X199110025Y-135562000D01*
X198953148Y-135530795D01*
X198805376Y-135469587D01*
X198752176Y-135434040D01*
X198672380Y-135380722D01*
X198559278Y-135267620D01*
X198505960Y-135187824D01*
X198470413Y-135134624D01*
X198409205Y-134986852D01*
X198378000Y-134829975D01*
X198378000Y-134670025D01*
X198409205Y-134513148D01*
X198470413Y-134365376D01*
X198528247Y-134278822D01*
X198559278Y-134232380D01*
X198672380Y-134119278D01*
X198752176Y-134065960D01*
X198805376Y-134030413D01*
X198953148Y-133969205D01*
X199110025Y-133938000D01*
X199269975Y-133938000D01*
X199426852Y-133969205D01*
G37*
G36*
X47881287Y-128013408D02*
G01*
X48181568Y-128137789D01*
X48451814Y-128318361D01*
X48681639Y-128548186D01*
X48862211Y-128818432D01*
X48986592Y-129118713D01*
X49050000Y-129437489D01*
X49050000Y-129762511D01*
X48986592Y-130081287D01*
X48862211Y-130381568D01*
X48681639Y-130651814D01*
X48451814Y-130881639D01*
X48181568Y-131062211D01*
X47881287Y-131186592D01*
X47562511Y-131250000D01*
X47237489Y-131250000D01*
X46918713Y-131186592D01*
X46618432Y-131062211D01*
X46348186Y-130881639D01*
X46118361Y-130651814D01*
X45937789Y-130381568D01*
X45813408Y-130081287D01*
X45750000Y-129762511D01*
X45750000Y-129437489D01*
X45813408Y-129118713D01*
X45937789Y-128818432D01*
X46118361Y-128548186D01*
X46348186Y-128318361D01*
X46618432Y-128137789D01*
X46918713Y-128013408D01*
X47237489Y-127950000D01*
X47562511Y-127950000D01*
X47881287Y-128013408D01*
G37*
G36*
X257881287Y-128013408D02*
G01*
X258181568Y-128137789D01*
X258451814Y-128318361D01*
X258681639Y-128548186D01*
X258862211Y-128818432D01*
X258986592Y-129118713D01*
X259050000Y-129437489D01*
X259050000Y-129762511D01*
X258986592Y-130081287D01*
X258862211Y-130381568D01*
X258681639Y-130651814D01*
X258451814Y-130881639D01*
X258181568Y-131062211D01*
X257881287Y-131186592D01*
X257562511Y-131250000D01*
X257237489Y-131250000D01*
X256918713Y-131186592D01*
X256618432Y-131062211D01*
X256348186Y-130881639D01*
X256118361Y-130651814D01*
X255937789Y-130381568D01*
X255813408Y-130081287D01*
X255750000Y-129762511D01*
X255750000Y-129437489D01*
X255813408Y-129118713D01*
X255937789Y-128818432D01*
X256118361Y-128548186D01*
X256348186Y-128318361D01*
X256618432Y-128137789D01*
X256918713Y-128013408D01*
X257237489Y-127950000D01*
X257562511Y-127950000D01*
X257881287Y-128013408D01*
G37*
G36*
X165275872Y-127715330D02*
G01*
X165585252Y-127843479D01*
X165863687Y-128029523D01*
X166100477Y-128266313D01*
X166286521Y-128544748D01*
X166414670Y-128854128D01*
X166480000Y-129182565D01*
X166480000Y-129517435D01*
X166414670Y-129845872D01*
X166286521Y-130155252D01*
X166100477Y-130433687D01*
X165863687Y-130670477D01*
X165585252Y-130856521D01*
X165275872Y-130984670D01*
X164947435Y-131050000D01*
X164612565Y-131050000D01*
X164284128Y-130984670D01*
X163974748Y-130856521D01*
X163696313Y-130670477D01*
X163459523Y-130433687D01*
X163273479Y-130155252D01*
X163145330Y-129845872D01*
X163080000Y-129517435D01*
X163080000Y-129182565D01*
X163145330Y-128854128D01*
X163273479Y-128544748D01*
X163459523Y-128266313D01*
X163696313Y-128029523D01*
X163974748Y-127843479D01*
X164284128Y-127715330D01*
X164612565Y-127650000D01*
X164947435Y-127650000D01*
X165275872Y-127715330D01*
G37*
G36*
X178415872Y-127715330D02*
G01*
X178725252Y-127843479D01*
X179003687Y-128029523D01*
X179240477Y-128266313D01*
X179426521Y-128544748D01*
X179554670Y-128854128D01*
X179620000Y-129182565D01*
X179620000Y-129517435D01*
X179554670Y-129845872D01*
X179426521Y-130155252D01*
X179240477Y-130433687D01*
X179003687Y-130670477D01*
X178725252Y-130856521D01*
X178415872Y-130984670D01*
X178087435Y-131050000D01*
X177752565Y-131050000D01*
X177424128Y-130984670D01*
X177114748Y-130856521D01*
X176836313Y-130670477D01*
X176599523Y-130433687D01*
X176413479Y-130155252D01*
X176285330Y-129845872D01*
X176220000Y-129517435D01*
X176220000Y-129182565D01*
X176285330Y-128854128D01*
X176413479Y-128544748D01*
X176599523Y-128266313D01*
X176836313Y-128029523D01*
X177114748Y-127843479D01*
X177424128Y-127715330D01*
X177752565Y-127650000D01*
X178087435Y-127650000D01*
X178415872Y-127715330D01*
G37*
G36*
X167986921Y-125647644D02*
G01*
X168141689Y-125678429D01*
X168323678Y-125753811D01*
X168487463Y-125863249D01*
X168626751Y-126002537D01*
X168736189Y-126166322D01*
X168811571Y-126348311D01*
X168850000Y-126541509D01*
X168850000Y-126738491D01*
X168811571Y-126931689D01*
X168736189Y-127113678D01*
X168626751Y-127277463D01*
X168487463Y-127416751D01*
X168323678Y-127526189D01*
X168141689Y-127601571D01*
X167986921Y-127632356D01*
X167948492Y-127640000D01*
X167751508Y-127640000D01*
X167713079Y-127632356D01*
X167558311Y-127601571D01*
X167376322Y-127526189D01*
X167212537Y-127416751D01*
X167073249Y-127277463D01*
X166963811Y-127113678D01*
X166888429Y-126931689D01*
X166850000Y-126738491D01*
X166850000Y-126541509D01*
X166888429Y-126348311D01*
X166963811Y-126166322D01*
X167073249Y-126002537D01*
X167212537Y-125863249D01*
X167376322Y-125753811D01*
X167558311Y-125678429D01*
X167713079Y-125647644D01*
X167751508Y-125640000D01*
X167948492Y-125640000D01*
X167986921Y-125647644D01*
G37*
G36*
X170486921Y-125647644D02*
G01*
X170641689Y-125678429D01*
X170823678Y-125753811D01*
X170987464Y-125863250D01*
X171126750Y-126002536D01*
X171236189Y-126166322D01*
X171303068Y-126327784D01*
X171307762Y-126336566D01*
X171314080Y-126344264D01*
X171321778Y-126350582D01*
X171330560Y-126355276D01*
X171340090Y-126358167D01*
X171350000Y-126359143D01*
X171359910Y-126358167D01*
X171369440Y-126355276D01*
X171378222Y-126350582D01*
X171385920Y-126344264D01*
X171392238Y-126336566D01*
X171396932Y-126327784D01*
X171463811Y-126166322D01*
X171573250Y-126002536D01*
X171712536Y-125863250D01*
X171876322Y-125753811D01*
X172058311Y-125678429D01*
X172213079Y-125647644D01*
X172251508Y-125640000D01*
X172448492Y-125640000D01*
X172486921Y-125647644D01*
X172641689Y-125678429D01*
X172823678Y-125753811D01*
X172987463Y-125863249D01*
X173126751Y-126002537D01*
X173236189Y-126166322D01*
X173311571Y-126348311D01*
X173350000Y-126541509D01*
X173350000Y-126738491D01*
X173311571Y-126931689D01*
X173236189Y-127113678D01*
X173126751Y-127277463D01*
X172987463Y-127416751D01*
X172823678Y-127526189D01*
X172641689Y-127601571D01*
X172486921Y-127632356D01*
X172448492Y-127640000D01*
X172251508Y-127640000D01*
X172213079Y-127632356D01*
X172058311Y-127601571D01*
X171876322Y-127526189D01*
X171712537Y-127416751D01*
X171573249Y-127277463D01*
X171463811Y-127113678D01*
X171396930Y-126952212D01*
X171392238Y-126943434D01*
X171385920Y-126935736D01*
X171378222Y-126929418D01*
X171369440Y-126924724D01*
X171359910Y-126921833D01*
X171350000Y-126920857D01*
X171340090Y-126921833D01*
X171330560Y-126924724D01*
X171321778Y-126929418D01*
X171314080Y-126935736D01*
X171307762Y-126943434D01*
X171303070Y-126952212D01*
X171236189Y-127113678D01*
X171126751Y-127277463D01*
X170987463Y-127416751D01*
X170823678Y-127526189D01*
X170641689Y-127601571D01*
X170486921Y-127632356D01*
X170448492Y-127640000D01*
X170251508Y-127640000D01*
X170213079Y-127632356D01*
X170058311Y-127601571D01*
X169876322Y-127526189D01*
X169712537Y-127416751D01*
X169573249Y-127277463D01*
X169463811Y-127113678D01*
X169388429Y-126931689D01*
X169350000Y-126738491D01*
X169350000Y-126541509D01*
X169388429Y-126348311D01*
X169463811Y-126166322D01*
X169573249Y-126002537D01*
X169712537Y-125863249D01*
X169876322Y-125753811D01*
X170058311Y-125678429D01*
X170213079Y-125647644D01*
X170251508Y-125640000D01*
X170448492Y-125640000D01*
X170486921Y-125647644D01*
G37*
G36*
X174986921Y-125647644D02*
G01*
X175141689Y-125678429D01*
X175323678Y-125753811D01*
X175487463Y-125863249D01*
X175626751Y-126002537D01*
X175736189Y-126166322D01*
X175811571Y-126348311D01*
X175850000Y-126541509D01*
X175850000Y-126738491D01*
X175811571Y-126931689D01*
X175736189Y-127113678D01*
X175626751Y-127277463D01*
X175487463Y-127416751D01*
X175323678Y-127526189D01*
X175141689Y-127601571D01*
X174986921Y-127632356D01*
X174948492Y-127640000D01*
X174751508Y-127640000D01*
X174713079Y-127632356D01*
X174558311Y-127601571D01*
X174376322Y-127526189D01*
X174212537Y-127416751D01*
X174073249Y-127277463D01*
X173963811Y-127113678D01*
X173888429Y-126931689D01*
X173850000Y-126738491D01*
X173850000Y-126541509D01*
X173888429Y-126348311D01*
X173963811Y-126166322D01*
X174073249Y-126002537D01*
X174212537Y-125863249D01*
X174376322Y-125753811D01*
X174558311Y-125678429D01*
X174713079Y-125647644D01*
X174751508Y-125640000D01*
X174948492Y-125640000D01*
X174986921Y-125647644D01*
G37*
G36*
X225356274Y-121540350D02*
G01*
X225547362Y-121619502D01*
X225719336Y-121734411D01*
X225865589Y-121880664D01*
X225980498Y-122052638D01*
X226059650Y-122243726D01*
X226100000Y-122446584D01*
X226100000Y-122653416D01*
X226059650Y-122856274D01*
X225980498Y-123047362D01*
X225865589Y-123219336D01*
X225719336Y-123365589D01*
X225547362Y-123480498D01*
X225356274Y-123559650D01*
X225153416Y-123600000D01*
X224946584Y-123600000D01*
X224743726Y-123559650D01*
X224552638Y-123480498D01*
X224380664Y-123365589D01*
X224234411Y-123219336D01*
X224119502Y-123047362D01*
X224040350Y-122856274D01*
X224000000Y-122653416D01*
X224000000Y-122446584D01*
X224040350Y-122243726D01*
X224119502Y-122052638D01*
X224234411Y-121880664D01*
X224380664Y-121734411D01*
X224552638Y-121619502D01*
X224743726Y-121540350D01*
X224946584Y-121500000D01*
X225153416Y-121500000D01*
X225356274Y-121540350D01*
G37*
G36*
X80106274Y-121540350D02*
G01*
X80297362Y-121619502D01*
X80469336Y-121734411D01*
X80615589Y-121880664D01*
X80730498Y-122052638D01*
X80809650Y-122243726D01*
X80850000Y-122446584D01*
X80850000Y-122653416D01*
X80809650Y-122856274D01*
X80730498Y-123047362D01*
X80615589Y-123219336D01*
X80469336Y-123365589D01*
X80297362Y-123480498D01*
X80106274Y-123559650D01*
X79903416Y-123600000D01*
X79696584Y-123600000D01*
X79493726Y-123559650D01*
X79302638Y-123480498D01*
X79130664Y-123365589D01*
X78984411Y-123219336D01*
X78869502Y-123047362D01*
X78790350Y-122856274D01*
X78750000Y-122653416D01*
X78750000Y-122446584D01*
X78790350Y-122243726D01*
X78869502Y-122052638D01*
X78984411Y-121880664D01*
X79130664Y-121734411D01*
X79302638Y-121619502D01*
X79493726Y-121540350D01*
X79696584Y-121500000D01*
X79903416Y-121500000D01*
X80106274Y-121540350D01*
G37*
G36*
X86606274Y-121540350D02*
G01*
X86797362Y-121619502D01*
X86969336Y-121734411D01*
X87115589Y-121880664D01*
X87230498Y-122052638D01*
X87309650Y-122243726D01*
X87350000Y-122446584D01*
X87350000Y-122653416D01*
X87309650Y-122856274D01*
X87230498Y-123047362D01*
X87115589Y-123219336D01*
X86969336Y-123365589D01*
X86797362Y-123480498D01*
X86606274Y-123559650D01*
X86403416Y-123600000D01*
X86196584Y-123600000D01*
X85993726Y-123559650D01*
X85802638Y-123480498D01*
X85630664Y-123365589D01*
X85484411Y-123219336D01*
X85369502Y-123047362D01*
X85290350Y-122856274D01*
X85250000Y-122653416D01*
X85250000Y-122446584D01*
X85290350Y-122243726D01*
X85369502Y-122052638D01*
X85484411Y-121880664D01*
X85630664Y-121734411D01*
X85802638Y-121619502D01*
X85993726Y-121540350D01*
X86196584Y-121500000D01*
X86403416Y-121500000D01*
X86606274Y-121540350D01*
G37*
G36*
X218856274Y-121540350D02*
G01*
X219047362Y-121619502D01*
X219219336Y-121734411D01*
X219365589Y-121880664D01*
X219480498Y-122052638D01*
X219559650Y-122243726D01*
X219600000Y-122446584D01*
X219600000Y-122653416D01*
X219559650Y-122856274D01*
X219480498Y-123047362D01*
X219365589Y-123219336D01*
X219219336Y-123365589D01*
X219047362Y-123480498D01*
X218856274Y-123559650D01*
X218653416Y-123600000D01*
X218446584Y-123600000D01*
X218243726Y-123559650D01*
X218052638Y-123480498D01*
X217880664Y-123365589D01*
X217734411Y-123219336D01*
X217619502Y-123047362D01*
X217540350Y-122856274D01*
X217500000Y-122653416D01*
X217500000Y-122446584D01*
X217540350Y-122243726D01*
X217619502Y-122052638D01*
X217734411Y-121880664D01*
X217880664Y-121734411D01*
X218052638Y-121619502D01*
X218243726Y-121540350D01*
X218446584Y-121500000D01*
X218653416Y-121500000D01*
X218856274Y-121540350D01*
G37*
G36*
X127929197Y-120099958D02*
G01*
X128165780Y-120197954D01*
X128378703Y-120340225D01*
X128559775Y-120521297D01*
X128702046Y-120734220D01*
X128800042Y-120970803D01*
X128850000Y-121221961D01*
X128850000Y-121478039D01*
X128800042Y-121729197D01*
X128702046Y-121965780D01*
X128559775Y-122178703D01*
X128378703Y-122359775D01*
X128165780Y-122502046D01*
X127929197Y-122600042D01*
X127678039Y-122650000D01*
X127421961Y-122650000D01*
X127170803Y-122600042D01*
X126934220Y-122502046D01*
X126721297Y-122359775D01*
X126540225Y-122178703D01*
X126397954Y-121965780D01*
X126299958Y-121729197D01*
X126250000Y-121478039D01*
X126250000Y-121221961D01*
X126299958Y-120970803D01*
X126397954Y-120734220D01*
X126540225Y-120521297D01*
X126721297Y-120340225D01*
X126934220Y-120197954D01*
X127170803Y-120099958D01*
X127421961Y-120050000D01*
X127678039Y-120050000D01*
X127929197Y-120099958D01*
G37*
G36*
X177629197Y-120099958D02*
G01*
X177865780Y-120197954D01*
X178078703Y-120340225D01*
X178259775Y-120521297D01*
X178402046Y-120734220D01*
X178500042Y-120970803D01*
X178550000Y-121221961D01*
X178550000Y-121478039D01*
X178500042Y-121729197D01*
X178402046Y-121965780D01*
X178259775Y-122178703D01*
X178078703Y-122359775D01*
X177865780Y-122502046D01*
X177629197Y-122600042D01*
X177378039Y-122650000D01*
X177121961Y-122650000D01*
X176870803Y-122600042D01*
X176634220Y-122502046D01*
X176421297Y-122359775D01*
X176240225Y-122178703D01*
X176097954Y-121965780D01*
X175999958Y-121729197D01*
X175950000Y-121478039D01*
X175950000Y-121221961D01*
X175999958Y-120970803D01*
X176097954Y-120734220D01*
X176240225Y-120521297D01*
X176421297Y-120340225D01*
X176634220Y-120197954D01*
X176870803Y-120099958D01*
X177121961Y-120050000D01*
X177378039Y-120050000D01*
X177629197Y-120099958D01*
G37*
G36*
X86606274Y-117040350D02*
G01*
X86797362Y-117119502D01*
X86969336Y-117234411D01*
X87115589Y-117380664D01*
X87230498Y-117552638D01*
X87309650Y-117743726D01*
X87350000Y-117946584D01*
X87350000Y-118153416D01*
X87309650Y-118356274D01*
X87230498Y-118547362D01*
X87115589Y-118719336D01*
X86969336Y-118865589D01*
X86797362Y-118980498D01*
X86606274Y-119059650D01*
X86403416Y-119100000D01*
X86196584Y-119100000D01*
X85993726Y-119059650D01*
X85802638Y-118980498D01*
X85630664Y-118865589D01*
X85484411Y-118719336D01*
X85369502Y-118547362D01*
X85290350Y-118356274D01*
X85250000Y-118153416D01*
X85250000Y-117946584D01*
X85290350Y-117743726D01*
X85369502Y-117552638D01*
X85484411Y-117380664D01*
X85630664Y-117234411D01*
X85802638Y-117119502D01*
X85993726Y-117040350D01*
X86196584Y-117000000D01*
X86403416Y-117000000D01*
X86606274Y-117040350D01*
G37*
G36*
X80106274Y-117040350D02*
G01*
X80297362Y-117119502D01*
X80469336Y-117234411D01*
X80615589Y-117380664D01*
X80730498Y-117552638D01*
X80809650Y-117743726D01*
X80850000Y-117946584D01*
X80850000Y-118153416D01*
X80809650Y-118356274D01*
X80730498Y-118547362D01*
X80615589Y-118719336D01*
X80469336Y-118865589D01*
X80297362Y-118980498D01*
X80106274Y-119059650D01*
X79903416Y-119100000D01*
X79696584Y-119100000D01*
X79493726Y-119059650D01*
X79302638Y-118980498D01*
X79130664Y-118865589D01*
X78984411Y-118719336D01*
X78869502Y-118547362D01*
X78790350Y-118356274D01*
X78750000Y-118153416D01*
X78750000Y-117946584D01*
X78790350Y-117743726D01*
X78869502Y-117552638D01*
X78984411Y-117380664D01*
X79130664Y-117234411D01*
X79302638Y-117119502D01*
X79493726Y-117040350D01*
X79696584Y-117000000D01*
X79903416Y-117000000D01*
X80106274Y-117040350D01*
G37*
G36*
X218856274Y-117040350D02*
G01*
X219047362Y-117119502D01*
X219219336Y-117234411D01*
X219365589Y-117380664D01*
X219480498Y-117552638D01*
X219559650Y-117743726D01*
X219600000Y-117946584D01*
X219600000Y-118153416D01*
X219559650Y-118356274D01*
X219480498Y-118547362D01*
X219365589Y-118719336D01*
X219219336Y-118865589D01*
X219047362Y-118980498D01*
X218856274Y-119059650D01*
X218653416Y-119100000D01*
X218446584Y-119100000D01*
X218243726Y-119059650D01*
X218052638Y-118980498D01*
X217880664Y-118865589D01*
X217734411Y-118719336D01*
X217619502Y-118547362D01*
X217540350Y-118356274D01*
X217500000Y-118153416D01*
X217500000Y-117946584D01*
X217540350Y-117743726D01*
X217619502Y-117552638D01*
X217734411Y-117380664D01*
X217880664Y-117234411D01*
X218052638Y-117119502D01*
X218243726Y-117040350D01*
X218446584Y-117000000D01*
X218653416Y-117000000D01*
X218856274Y-117040350D01*
G37*
G36*
X225356274Y-117040350D02*
G01*
X225547362Y-117119502D01*
X225719336Y-117234411D01*
X225865589Y-117380664D01*
X225980498Y-117552638D01*
X226059650Y-117743726D01*
X226100000Y-117946584D01*
X226100000Y-118153416D01*
X226059650Y-118356274D01*
X225980498Y-118547362D01*
X225865589Y-118719336D01*
X225719336Y-118865589D01*
X225547362Y-118980498D01*
X225356274Y-119059650D01*
X225153416Y-119100000D01*
X224946584Y-119100000D01*
X224743726Y-119059650D01*
X224552638Y-118980498D01*
X224380664Y-118865589D01*
X224234411Y-118719336D01*
X224119502Y-118547362D01*
X224040350Y-118356274D01*
X224000000Y-118153416D01*
X224000000Y-117946584D01*
X224040350Y-117743726D01*
X224119502Y-117552638D01*
X224234411Y-117380664D01*
X224380664Y-117234411D01*
X224552638Y-117119502D01*
X224743726Y-117040350D01*
X224946584Y-117000000D01*
X225153416Y-117000000D01*
X225356274Y-117040350D01*
G37*
G36*
X203739819Y-115479770D02*
G01*
X203951835Y-115567590D01*
X204142646Y-115695086D01*
X204304914Y-115857354D01*
X204432410Y-116048165D01*
X204520230Y-116260181D01*
X204565000Y-116485257D01*
X204565000Y-116714743D01*
X204520230Y-116939819D01*
X204432410Y-117151835D01*
X204304914Y-117342646D01*
X204142646Y-117504914D01*
X203951835Y-117632410D01*
X203739819Y-117720230D01*
X203514743Y-117765000D01*
X203285257Y-117765000D01*
X203060181Y-117720230D01*
X202848165Y-117632410D01*
X202657354Y-117504914D01*
X202495086Y-117342646D01*
X202367590Y-117151835D01*
X202279770Y-116939819D01*
X202235000Y-116714743D01*
X202235000Y-116485257D01*
X202279770Y-116260181D01*
X202367590Y-116048165D01*
X202495086Y-115857354D01*
X202657354Y-115695086D01*
X202848165Y-115567590D01*
X203060181Y-115479770D01*
X203285257Y-115435000D01*
X203514743Y-115435000D01*
X203739819Y-115479770D01*
G37*
G36*
X102565000Y-117765000D02*
G01*
X100235000Y-117765000D01*
X100235000Y-115435000D01*
X102565000Y-115435000D01*
X102565000Y-117765000D01*
G37*
G36*
X71340130Y-115599107D02*
G01*
X71523921Y-115654859D01*
X71614891Y-115703484D01*
X71693302Y-115745395D01*
X71841765Y-115867235D01*
X71963605Y-116015698D01*
X71980959Y-116048166D01*
X72054141Y-116185079D01*
X72109893Y-116368870D01*
X72128718Y-116560000D01*
X72109893Y-116751130D01*
X72054141Y-116934921D01*
X72019355Y-117000000D01*
X71963605Y-117104302D01*
X71963603Y-117104305D01*
X71963602Y-117104306D01*
X71841765Y-117252765D01*
X71732245Y-117342646D01*
X71693302Y-117374605D01*
X71614891Y-117416516D01*
X71523921Y-117465141D01*
X71340130Y-117520893D01*
X71196899Y-117535000D01*
X69903101Y-117535000D01*
X69759870Y-117520893D01*
X69576079Y-117465141D01*
X69485109Y-117416516D01*
X69406698Y-117374605D01*
X69367756Y-117342646D01*
X69258235Y-117252765D01*
X69136398Y-117104306D01*
X69136397Y-117104305D01*
X69136395Y-117104302D01*
X69080645Y-117000000D01*
X69045859Y-116934921D01*
X68990107Y-116751130D01*
X68971282Y-116560000D01*
X68990107Y-116368870D01*
X69045859Y-116185079D01*
X69119041Y-116048166D01*
X69136395Y-116015698D01*
X69258235Y-115867235D01*
X69406698Y-115745395D01*
X69485109Y-115703484D01*
X69576079Y-115654859D01*
X69759870Y-115599107D01*
X69903101Y-115585000D01*
X71196899Y-115585000D01*
X71340130Y-115599107D01*
G37*
G36*
X234840130Y-115599107D02*
G01*
X235023921Y-115654859D01*
X235114891Y-115703484D01*
X235193302Y-115745395D01*
X235341765Y-115867235D01*
X235463605Y-116015698D01*
X235480959Y-116048166D01*
X235554141Y-116185079D01*
X235609893Y-116368870D01*
X235628718Y-116560000D01*
X235609893Y-116751130D01*
X235554141Y-116934921D01*
X235519355Y-117000000D01*
X235463605Y-117104302D01*
X235463603Y-117104305D01*
X235463602Y-117104306D01*
X235341765Y-117252765D01*
X235232245Y-117342646D01*
X235193302Y-117374605D01*
X235114891Y-117416516D01*
X235023921Y-117465141D01*
X234840130Y-117520893D01*
X234696899Y-117535000D01*
X233403101Y-117535000D01*
X233259870Y-117520893D01*
X233076079Y-117465141D01*
X232985109Y-117416516D01*
X232906698Y-117374605D01*
X232867756Y-117342646D01*
X232758235Y-117252765D01*
X232636398Y-117104306D01*
X232636397Y-117104305D01*
X232636395Y-117104302D01*
X232580645Y-117000000D01*
X232545859Y-116934921D01*
X232490107Y-116751130D01*
X232471282Y-116560000D01*
X232490107Y-116368870D01*
X232545859Y-116185079D01*
X232619041Y-116048166D01*
X232636395Y-116015698D01*
X232758235Y-115867235D01*
X232906698Y-115745395D01*
X232985109Y-115703484D01*
X233076079Y-115654859D01*
X233259870Y-115599107D01*
X233403101Y-115585000D01*
X234696899Y-115585000D01*
X234840130Y-115599107D01*
G37*
G36*
X247340130Y-115599107D02*
G01*
X247523921Y-115654859D01*
X247614891Y-115703484D01*
X247693302Y-115745395D01*
X247841765Y-115867235D01*
X247963605Y-116015698D01*
X247980959Y-116048166D01*
X248054141Y-116185079D01*
X248109893Y-116368870D01*
X248128718Y-116560000D01*
X248109893Y-116751130D01*
X248054141Y-116934921D01*
X248019355Y-117000000D01*
X247963605Y-117104302D01*
X247963603Y-117104305D01*
X247963602Y-117104306D01*
X247841765Y-117252765D01*
X247732245Y-117342646D01*
X247693302Y-117374605D01*
X247614891Y-117416516D01*
X247523921Y-117465141D01*
X247340130Y-117520893D01*
X247196899Y-117535000D01*
X245903101Y-117535000D01*
X245759870Y-117520893D01*
X245576079Y-117465141D01*
X245485109Y-117416516D01*
X245406698Y-117374605D01*
X245367756Y-117342646D01*
X245258235Y-117252765D01*
X245136398Y-117104306D01*
X245136397Y-117104305D01*
X245136395Y-117104302D01*
X245080645Y-117000000D01*
X245045859Y-116934921D01*
X244990107Y-116751130D01*
X244971282Y-116560000D01*
X244990107Y-116368870D01*
X245045859Y-116185079D01*
X245119041Y-116048166D01*
X245136395Y-116015698D01*
X245258235Y-115867235D01*
X245406698Y-115745395D01*
X245485109Y-115703484D01*
X245576079Y-115654859D01*
X245759870Y-115599107D01*
X245903101Y-115585000D01*
X247196899Y-115585000D01*
X247340130Y-115599107D01*
G37*
G36*
X58840130Y-115599107D02*
G01*
X59023921Y-115654859D01*
X59114891Y-115703484D01*
X59193302Y-115745395D01*
X59341765Y-115867235D01*
X59463605Y-116015698D01*
X59480959Y-116048166D01*
X59554141Y-116185079D01*
X59609893Y-116368870D01*
X59628718Y-116560000D01*
X59609893Y-116751130D01*
X59554141Y-116934921D01*
X59519355Y-117000000D01*
X59463605Y-117104302D01*
X59463603Y-117104305D01*
X59463602Y-117104306D01*
X59341765Y-117252765D01*
X59232245Y-117342646D01*
X59193302Y-117374605D01*
X59114891Y-117416516D01*
X59023921Y-117465141D01*
X58840130Y-117520893D01*
X58696899Y-117535000D01*
X57403101Y-117535000D01*
X57259870Y-117520893D01*
X57076079Y-117465141D01*
X56985109Y-117416516D01*
X56906698Y-117374605D01*
X56867756Y-117342646D01*
X56758235Y-117252765D01*
X56636398Y-117104306D01*
X56636397Y-117104305D01*
X56636395Y-117104302D01*
X56580645Y-117000000D01*
X56545859Y-116934921D01*
X56490107Y-116751130D01*
X56471282Y-116560000D01*
X56490107Y-116368870D01*
X56545859Y-116185079D01*
X56619041Y-116048166D01*
X56636395Y-116015698D01*
X56758235Y-115867235D01*
X56906698Y-115745395D01*
X56985109Y-115703484D01*
X57076079Y-115654859D01*
X57259870Y-115599107D01*
X57403101Y-115585000D01*
X58696899Y-115585000D01*
X58840130Y-115599107D01*
G37*
G36*
X127929197Y-110599958D02*
G01*
X128165780Y-110697954D01*
X128378703Y-110840225D01*
X128559775Y-111021297D01*
X128702046Y-111234220D01*
X128800042Y-111470803D01*
X128850000Y-111721961D01*
X128850000Y-111978039D01*
X128800042Y-112229197D01*
X128702046Y-112465780D01*
X128559775Y-112678703D01*
X128378703Y-112859775D01*
X128165780Y-113002046D01*
X127929197Y-113100042D01*
X127678039Y-113150000D01*
X127421961Y-113150000D01*
X127170803Y-113100042D01*
X126934220Y-113002046D01*
X126721297Y-112859775D01*
X126540225Y-112678703D01*
X126397954Y-112465780D01*
X126299958Y-112229197D01*
X126250000Y-111978039D01*
X126250000Y-111721961D01*
X126299958Y-111470803D01*
X126397954Y-111234220D01*
X126540225Y-111021297D01*
X126721297Y-110840225D01*
X126934220Y-110697954D01*
X127170803Y-110599958D01*
X127421961Y-110550000D01*
X127678039Y-110550000D01*
X127929197Y-110599958D01*
G37*
G36*
X177629197Y-110599958D02*
G01*
X177865780Y-110697954D01*
X178078703Y-110840225D01*
X178259775Y-111021297D01*
X178402046Y-111234220D01*
X178500042Y-111470803D01*
X178550000Y-111721961D01*
X178550000Y-111978039D01*
X178500042Y-112229197D01*
X178402046Y-112465780D01*
X178259775Y-112678703D01*
X178078703Y-112859775D01*
X177865780Y-113002046D01*
X177629197Y-113100042D01*
X177378039Y-113150000D01*
X177121961Y-113150000D01*
X176870803Y-113100042D01*
X176634220Y-113002046D01*
X176421297Y-112859775D01*
X176240225Y-112678703D01*
X176097954Y-112465780D01*
X175999958Y-112229197D01*
X175950000Y-111978039D01*
X175950000Y-111721961D01*
X175999958Y-111470803D01*
X176097954Y-111234220D01*
X176240225Y-111021297D01*
X176421297Y-110840225D01*
X176634220Y-110697954D01*
X176870803Y-110599958D01*
X177121961Y-110550000D01*
X177378039Y-110550000D01*
X177629197Y-110599958D01*
G37*
G36*
X58840130Y-110599107D02*
G01*
X59023921Y-110654859D01*
X59104545Y-110697954D01*
X59193302Y-110745395D01*
X59341765Y-110867235D01*
X59463605Y-111015698D01*
X59505516Y-111094109D01*
X59554141Y-111185079D01*
X59609893Y-111368870D01*
X59628718Y-111560000D01*
X59609893Y-111751130D01*
X59554141Y-111934921D01*
X59505516Y-112025891D01*
X59463605Y-112104302D01*
X59341765Y-112252765D01*
X59193302Y-112374605D01*
X59114891Y-112416516D01*
X59023921Y-112465141D01*
X58840130Y-112520893D01*
X58696899Y-112535000D01*
X57403101Y-112535000D01*
X57259870Y-112520893D01*
X57076079Y-112465141D01*
X56985109Y-112416516D01*
X56906698Y-112374605D01*
X56758235Y-112252765D01*
X56636395Y-112104302D01*
X56594484Y-112025891D01*
X56545859Y-111934921D01*
X56490107Y-111751130D01*
X56471282Y-111560000D01*
X56490107Y-111368870D01*
X56545859Y-111185079D01*
X56594484Y-111094109D01*
X56636395Y-111015698D01*
X56758235Y-110867235D01*
X56906698Y-110745395D01*
X56995455Y-110697954D01*
X57076079Y-110654859D01*
X57259870Y-110599107D01*
X57403101Y-110585000D01*
X58696899Y-110585000D01*
X58840130Y-110599107D01*
G37*
G36*
X247340130Y-110599107D02*
G01*
X247523921Y-110654859D01*
X247604545Y-110697954D01*
X247693302Y-110745395D01*
X247841765Y-110867235D01*
X247963605Y-111015698D01*
X248005516Y-111094109D01*
X248054141Y-111185079D01*
X248109893Y-111368870D01*
X248128718Y-111560000D01*
X248109893Y-111751130D01*
X248054141Y-111934921D01*
X248005516Y-112025891D01*
X247963605Y-112104302D01*
X247841765Y-112252765D01*
X247693302Y-112374605D01*
X247614891Y-112416516D01*
X247523921Y-112465141D01*
X247340130Y-112520893D01*
X247196899Y-112535000D01*
X245903101Y-112535000D01*
X245759870Y-112520893D01*
X245576079Y-112465141D01*
X245485109Y-112416516D01*
X245406698Y-112374605D01*
X245258235Y-112252765D01*
X245136395Y-112104302D01*
X245094484Y-112025891D01*
X245045859Y-111934921D01*
X244990107Y-111751130D01*
X244971282Y-111560000D01*
X244990107Y-111368870D01*
X245045859Y-111185079D01*
X245094484Y-111094109D01*
X245136395Y-111015698D01*
X245258235Y-110867235D01*
X245406698Y-110745395D01*
X245495455Y-110697954D01*
X245576079Y-110654859D01*
X245759870Y-110599107D01*
X245903101Y-110585000D01*
X247196899Y-110585000D01*
X247340130Y-110599107D01*
G37*
G36*
X234840130Y-110599107D02*
G01*
X235023921Y-110654859D01*
X235104545Y-110697954D01*
X235193302Y-110745395D01*
X235341765Y-110867235D01*
X235463605Y-111015698D01*
X235505516Y-111094109D01*
X235554141Y-111185079D01*
X235609893Y-111368870D01*
X235628718Y-111560000D01*
X235609893Y-111751130D01*
X235554141Y-111934921D01*
X235505516Y-112025891D01*
X235463605Y-112104302D01*
X235341765Y-112252765D01*
X235193302Y-112374605D01*
X235114891Y-112416516D01*
X235023921Y-112465141D01*
X234840130Y-112520893D01*
X234696899Y-112535000D01*
X233403101Y-112535000D01*
X233259870Y-112520893D01*
X233076079Y-112465141D01*
X232985109Y-112416516D01*
X232906698Y-112374605D01*
X232758235Y-112252765D01*
X232636395Y-112104302D01*
X232594484Y-112025891D01*
X232545859Y-111934921D01*
X232490107Y-111751130D01*
X232471282Y-111560000D01*
X232490107Y-111368870D01*
X232545859Y-111185079D01*
X232594484Y-111094109D01*
X232636395Y-111015698D01*
X232758235Y-110867235D01*
X232906698Y-110745395D01*
X232995455Y-110697954D01*
X233076079Y-110654859D01*
X233259870Y-110599107D01*
X233403101Y-110585000D01*
X234696899Y-110585000D01*
X234840130Y-110599107D01*
G37*
G36*
X71340130Y-110599107D02*
G01*
X71523921Y-110654859D01*
X71604545Y-110697954D01*
X71693302Y-110745395D01*
X71841765Y-110867235D01*
X71963605Y-111015698D01*
X72005516Y-111094109D01*
X72054141Y-111185079D01*
X72109893Y-111368870D01*
X72128718Y-111560000D01*
X72109893Y-111751130D01*
X72054141Y-111934921D01*
X72005516Y-112025891D01*
X71963605Y-112104302D01*
X71841765Y-112252765D01*
X71693302Y-112374605D01*
X71614891Y-112416516D01*
X71523921Y-112465141D01*
X71340130Y-112520893D01*
X71196899Y-112535000D01*
X69903101Y-112535000D01*
X69759870Y-112520893D01*
X69576079Y-112465141D01*
X69485109Y-112416516D01*
X69406698Y-112374605D01*
X69258235Y-112252765D01*
X69136395Y-112104302D01*
X69094484Y-112025891D01*
X69045859Y-111934921D01*
X68990107Y-111751130D01*
X68971282Y-111560000D01*
X68990107Y-111368870D01*
X69045859Y-111185079D01*
X69094484Y-111094109D01*
X69136395Y-111015698D01*
X69258235Y-110867235D01*
X69406698Y-110745395D01*
X69495455Y-110697954D01*
X69576079Y-110654859D01*
X69759870Y-110599107D01*
X69903101Y-110585000D01*
X71196899Y-110585000D01*
X71340130Y-110599107D01*
G37*
G36*
X116006852Y-105569205D02*
G01*
X116154624Y-105630413D01*
X116207824Y-105665960D01*
X116287620Y-105719278D01*
X116400722Y-105832380D01*
X116454040Y-105912176D01*
X116489587Y-105965376D01*
X116550795Y-106113148D01*
X116582000Y-106270025D01*
X116582000Y-106429975D01*
X116550795Y-106586852D01*
X116489587Y-106734624D01*
X116454040Y-106787824D01*
X116400722Y-106867620D01*
X116287620Y-106980722D01*
X116207824Y-107034040D01*
X116154624Y-107069587D01*
X116006852Y-107130795D01*
X115849975Y-107162000D01*
X115690025Y-107162000D01*
X115533148Y-107130795D01*
X115385376Y-107069587D01*
X115332176Y-107034040D01*
X115252380Y-106980722D01*
X115139278Y-106867620D01*
X115085960Y-106787824D01*
X115050413Y-106734624D01*
X114989205Y-106586852D01*
X114958000Y-106429975D01*
X114958000Y-106270025D01*
X114989205Y-106113148D01*
X115050413Y-105965376D01*
X115085960Y-105912176D01*
X115139278Y-105832380D01*
X115252380Y-105719278D01*
X115332176Y-105665960D01*
X115385376Y-105630413D01*
X115533148Y-105569205D01*
X115690025Y-105538000D01*
X115849975Y-105538000D01*
X116006852Y-105569205D01*
G37*
G36*
X146286852Y-105569205D02*
G01*
X146434624Y-105630413D01*
X146487824Y-105665960D01*
X146567620Y-105719278D01*
X146680722Y-105832380D01*
X146734040Y-105912176D01*
X146769587Y-105965376D01*
X146830795Y-106113148D01*
X146862000Y-106270025D01*
X146862000Y-106429975D01*
X146830795Y-106586852D01*
X146769587Y-106734624D01*
X146734040Y-106787824D01*
X146680722Y-106867620D01*
X146567620Y-106980722D01*
X146487824Y-107034040D01*
X146434624Y-107069587D01*
X146286852Y-107130795D01*
X146129975Y-107162000D01*
X145970025Y-107162000D01*
X145813148Y-107130795D01*
X145665376Y-107069587D01*
X145612176Y-107034040D01*
X145532380Y-106980722D01*
X145419278Y-106867620D01*
X145365960Y-106787824D01*
X145330413Y-106734624D01*
X145269205Y-106586852D01*
X145238000Y-106429975D01*
X145238000Y-106270025D01*
X145269205Y-106113148D01*
X145330413Y-105965376D01*
X145365960Y-105912176D01*
X145419278Y-105832380D01*
X145532380Y-105719278D01*
X145612176Y-105665960D01*
X145665376Y-105630413D01*
X145813148Y-105569205D01*
X145970025Y-105538000D01*
X146129975Y-105538000D01*
X146286852Y-105569205D01*
G37*
G36*
X199426852Y-105569205D02*
G01*
X199574624Y-105630413D01*
X199627824Y-105665960D01*
X199707620Y-105719278D01*
X199820722Y-105832380D01*
X199874040Y-105912176D01*
X199909587Y-105965376D01*
X199970795Y-106113148D01*
X200002000Y-106270025D01*
X200002000Y-106429975D01*
X199970795Y-106586852D01*
X199909587Y-106734624D01*
X199874040Y-106787824D01*
X199820722Y-106867620D01*
X199707620Y-106980722D01*
X199627824Y-107034040D01*
X199574624Y-107069587D01*
X199426852Y-107130795D01*
X199269975Y-107162000D01*
X199110025Y-107162000D01*
X198953148Y-107130795D01*
X198805376Y-107069587D01*
X198752176Y-107034040D01*
X198672380Y-106980722D01*
X198559278Y-106867620D01*
X198505960Y-106787824D01*
X198470413Y-106734624D01*
X198409205Y-106586852D01*
X198378000Y-106429975D01*
X198378000Y-106270025D01*
X198409205Y-106113148D01*
X198470413Y-105965376D01*
X198505960Y-105912176D01*
X198559278Y-105832380D01*
X198672380Y-105719278D01*
X198752176Y-105665960D01*
X198805376Y-105630413D01*
X198953148Y-105569205D01*
X199110025Y-105538000D01*
X199269975Y-105538000D01*
X199426852Y-105569205D01*
G37*
G36*
X186726852Y-105569205D02*
G01*
X186874624Y-105630413D01*
X186927824Y-105665960D01*
X187007620Y-105719278D01*
X187120722Y-105832380D01*
X187174040Y-105912176D01*
X187209587Y-105965376D01*
X187270795Y-106113148D01*
X187302000Y-106270025D01*
X187302000Y-106429975D01*
X187270795Y-106586852D01*
X187209587Y-106734624D01*
X187174040Y-106787824D01*
X187120722Y-106867620D01*
X187007620Y-106980722D01*
X186927824Y-107034040D01*
X186874624Y-107069587D01*
X186726852Y-107130795D01*
X186569975Y-107162000D01*
X186410025Y-107162000D01*
X186253148Y-107130795D01*
X186105376Y-107069587D01*
X186052176Y-107034040D01*
X185972380Y-106980722D01*
X185859278Y-106867620D01*
X185805960Y-106787824D01*
X185770413Y-106734624D01*
X185709205Y-106586852D01*
X185678000Y-106429975D01*
X185678000Y-106270025D01*
X185709205Y-106113148D01*
X185770413Y-105965376D01*
X185805960Y-105912176D01*
X185859278Y-105832380D01*
X185972380Y-105719278D01*
X186052176Y-105665960D01*
X186105376Y-105630413D01*
X186253148Y-105569205D01*
X186410025Y-105538000D01*
X186569975Y-105538000D01*
X186726852Y-105569205D01*
G37*
G36*
X196886852Y-105569205D02*
G01*
X197034624Y-105630413D01*
X197087824Y-105665960D01*
X197167620Y-105719278D01*
X197280722Y-105832380D01*
X197334040Y-105912176D01*
X197369587Y-105965376D01*
X197430795Y-106113148D01*
X197462000Y-106270025D01*
X197462000Y-106429975D01*
X197430795Y-106586852D01*
X197369587Y-106734624D01*
X197334040Y-106787824D01*
X197280722Y-106867620D01*
X197167620Y-106980722D01*
X197087824Y-107034040D01*
X197034624Y-107069587D01*
X196886852Y-107130795D01*
X196729975Y-107162000D01*
X196570025Y-107162000D01*
X196413148Y-107130795D01*
X196265376Y-107069587D01*
X196212176Y-107034040D01*
X196132380Y-106980722D01*
X196019278Y-106867620D01*
X195965960Y-106787824D01*
X195930413Y-106734624D01*
X195869205Y-106586852D01*
X195838000Y-106429975D01*
X195838000Y-106270025D01*
X195869205Y-106113148D01*
X195930413Y-105965376D01*
X195965960Y-105912176D01*
X196019278Y-105832380D01*
X196132380Y-105719278D01*
X196212176Y-105665960D01*
X196265376Y-105630413D01*
X196413148Y-105569205D01*
X196570025Y-105538000D01*
X196729975Y-105538000D01*
X196886852Y-105569205D01*
G37*
G36*
X189266852Y-105569205D02*
G01*
X189414624Y-105630413D01*
X189467824Y-105665960D01*
X189547620Y-105719278D01*
X189660722Y-105832380D01*
X189714040Y-105912176D01*
X189749587Y-105965376D01*
X189810795Y-106113148D01*
X189842000Y-106270025D01*
X189842000Y-106429975D01*
X189810795Y-106586852D01*
X189749587Y-106734624D01*
X189714040Y-106787824D01*
X189660722Y-106867620D01*
X189547620Y-106980722D01*
X189467824Y-107034040D01*
X189414624Y-107069587D01*
X189266852Y-107130795D01*
X189109975Y-107162000D01*
X188950025Y-107162000D01*
X188793148Y-107130795D01*
X188645376Y-107069587D01*
X188592176Y-107034040D01*
X188512380Y-106980722D01*
X188399278Y-106867620D01*
X188345960Y-106787824D01*
X188310413Y-106734624D01*
X188249205Y-106586852D01*
X188218000Y-106429975D01*
X188218000Y-106270025D01*
X188249205Y-106113148D01*
X188310413Y-105965376D01*
X188345960Y-105912176D01*
X188399278Y-105832380D01*
X188512380Y-105719278D01*
X188592176Y-105665960D01*
X188645376Y-105630413D01*
X188793148Y-105569205D01*
X188950025Y-105538000D01*
X189109975Y-105538000D01*
X189266852Y-105569205D01*
G37*
G36*
X151366852Y-105569205D02*
G01*
X151514624Y-105630413D01*
X151567824Y-105665960D01*
X151647620Y-105719278D01*
X151760722Y-105832380D01*
X151814040Y-105912176D01*
X151849587Y-105965376D01*
X151910795Y-106113148D01*
X151942000Y-106270025D01*
X151942000Y-106429975D01*
X151910795Y-106586852D01*
X151849587Y-106734624D01*
X151814040Y-106787824D01*
X151760722Y-106867620D01*
X151647620Y-106980722D01*
X151567824Y-107034040D01*
X151514624Y-107069587D01*
X151366852Y-107130795D01*
X151209975Y-107162000D01*
X151050025Y-107162000D01*
X150893148Y-107130795D01*
X150745376Y-107069587D01*
X150692176Y-107034040D01*
X150612380Y-106980722D01*
X150499278Y-106867620D01*
X150445960Y-106787824D01*
X150410413Y-106734624D01*
X150349205Y-106586852D01*
X150318000Y-106429975D01*
X150318000Y-106270025D01*
X150349205Y-106113148D01*
X150410413Y-105965376D01*
X150445960Y-105912176D01*
X150499278Y-105832380D01*
X150612380Y-105719278D01*
X150692176Y-105665960D01*
X150745376Y-105630413D01*
X150893148Y-105569205D01*
X151050025Y-105538000D01*
X151209975Y-105538000D01*
X151366852Y-105569205D01*
G37*
G36*
X191806852Y-105569205D02*
G01*
X191954624Y-105630413D01*
X192007824Y-105665960D01*
X192087620Y-105719278D01*
X192200722Y-105832380D01*
X192254040Y-105912176D01*
X192289587Y-105965376D01*
X192350795Y-106113148D01*
X192382000Y-106270025D01*
X192382000Y-106429975D01*
X192350795Y-106586852D01*
X192289587Y-106734624D01*
X192254040Y-106787824D01*
X192200722Y-106867620D01*
X192087620Y-106980722D01*
X192007824Y-107034040D01*
X191954624Y-107069587D01*
X191806852Y-107130795D01*
X191649975Y-107162000D01*
X191490025Y-107162000D01*
X191333148Y-107130795D01*
X191185376Y-107069587D01*
X191132176Y-107034040D01*
X191052380Y-106980722D01*
X190939278Y-106867620D01*
X190885960Y-106787824D01*
X190850413Y-106734624D01*
X190789205Y-106586852D01*
X190758000Y-106429975D01*
X190758000Y-106270025D01*
X190789205Y-106113148D01*
X190850413Y-105965376D01*
X190885960Y-105912176D01*
X190939278Y-105832380D01*
X191052380Y-105719278D01*
X191132176Y-105665960D01*
X191185376Y-105630413D01*
X191333148Y-105569205D01*
X191490025Y-105538000D01*
X191649975Y-105538000D01*
X191806852Y-105569205D01*
G37*
G36*
X148826852Y-105569205D02*
G01*
X148974624Y-105630413D01*
X149027824Y-105665960D01*
X149107620Y-105719278D01*
X149220722Y-105832380D01*
X149274040Y-105912176D01*
X149309587Y-105965376D01*
X149370795Y-106113148D01*
X149402000Y-106270025D01*
X149402000Y-106429975D01*
X149370795Y-106586852D01*
X149309587Y-106734624D01*
X149274040Y-106787824D01*
X149220722Y-106867620D01*
X149107620Y-106980722D01*
X149027824Y-107034040D01*
X148974624Y-107069587D01*
X148826852Y-107130795D01*
X148669975Y-107162000D01*
X148510025Y-107162000D01*
X148353148Y-107130795D01*
X148205376Y-107069587D01*
X148152176Y-107034040D01*
X148072380Y-106980722D01*
X147959278Y-106867620D01*
X147905960Y-106787824D01*
X147870413Y-106734624D01*
X147809205Y-106586852D01*
X147778000Y-106429975D01*
X147778000Y-106270025D01*
X147809205Y-106113148D01*
X147870413Y-105965376D01*
X147905960Y-105912176D01*
X147959278Y-105832380D01*
X148072380Y-105719278D01*
X148152176Y-105665960D01*
X148205376Y-105630413D01*
X148353148Y-105569205D01*
X148510025Y-105538000D01*
X148669975Y-105538000D01*
X148826852Y-105569205D01*
G37*
G36*
X194346852Y-105569205D02*
G01*
X194494624Y-105630413D01*
X194547824Y-105665960D01*
X194627620Y-105719278D01*
X194740722Y-105832380D01*
X194794040Y-105912176D01*
X194829587Y-105965376D01*
X194890795Y-106113148D01*
X194922000Y-106270025D01*
X194922000Y-106429975D01*
X194890795Y-106586852D01*
X194829587Y-106734624D01*
X194794040Y-106787824D01*
X194740722Y-106867620D01*
X194627620Y-106980722D01*
X194547824Y-107034040D01*
X194494624Y-107069587D01*
X194346852Y-107130795D01*
X194189975Y-107162000D01*
X194030025Y-107162000D01*
X193873148Y-107130795D01*
X193725376Y-107069587D01*
X193672176Y-107034040D01*
X193592380Y-106980722D01*
X193479278Y-106867620D01*
X193425960Y-106787824D01*
X193390413Y-106734624D01*
X193329205Y-106586852D01*
X193298000Y-106429975D01*
X193298000Y-106270025D01*
X193329205Y-106113148D01*
X193390413Y-105965376D01*
X193425960Y-105912176D01*
X193479278Y-105832380D01*
X193592380Y-105719278D01*
X193672176Y-105665960D01*
X193725376Y-105630413D01*
X193873148Y-105569205D01*
X194030025Y-105538000D01*
X194189975Y-105538000D01*
X194346852Y-105569205D01*
G37*
G36*
X105846852Y-105569205D02*
G01*
X105994624Y-105630413D01*
X106047824Y-105665960D01*
X106127620Y-105719278D01*
X106240722Y-105832380D01*
X106294040Y-105912176D01*
X106329587Y-105965376D01*
X106390795Y-106113148D01*
X106422000Y-106270025D01*
X106422000Y-106429975D01*
X106390795Y-106586852D01*
X106329587Y-106734624D01*
X106294040Y-106787824D01*
X106240722Y-106867620D01*
X106127620Y-106980722D01*
X106047824Y-107034040D01*
X105994624Y-107069587D01*
X105846852Y-107130795D01*
X105689975Y-107162000D01*
X105530025Y-107162000D01*
X105373148Y-107130795D01*
X105225376Y-107069587D01*
X105172176Y-107034040D01*
X105092380Y-106980722D01*
X104979278Y-106867620D01*
X104925960Y-106787824D01*
X104890413Y-106734624D01*
X104829205Y-106586852D01*
X104798000Y-106429975D01*
X104798000Y-106270025D01*
X104829205Y-106113148D01*
X104890413Y-105965376D01*
X104925960Y-105912176D01*
X104979278Y-105832380D01*
X105092380Y-105719278D01*
X105172176Y-105665960D01*
X105225376Y-105630413D01*
X105373148Y-105569205D01*
X105530025Y-105538000D01*
X105689975Y-105538000D01*
X105846852Y-105569205D01*
G37*
G36*
X108386852Y-105569205D02*
G01*
X108534624Y-105630413D01*
X108587824Y-105665960D01*
X108667620Y-105719278D01*
X108780722Y-105832380D01*
X108834040Y-105912176D01*
X108869587Y-105965376D01*
X108930795Y-106113148D01*
X108962000Y-106270025D01*
X108962000Y-106429975D01*
X108930795Y-106586852D01*
X108869587Y-106734624D01*
X108834040Y-106787824D01*
X108780722Y-106867620D01*
X108667620Y-106980722D01*
X108587824Y-107034040D01*
X108534624Y-107069587D01*
X108386852Y-107130795D01*
X108229975Y-107162000D01*
X108070025Y-107162000D01*
X107913148Y-107130795D01*
X107765376Y-107069587D01*
X107712176Y-107034040D01*
X107632380Y-106980722D01*
X107519278Y-106867620D01*
X107465960Y-106787824D01*
X107430413Y-106734624D01*
X107369205Y-106586852D01*
X107338000Y-106429975D01*
X107338000Y-106270025D01*
X107369205Y-106113148D01*
X107430413Y-105965376D01*
X107465960Y-105912176D01*
X107519278Y-105832380D01*
X107632380Y-105719278D01*
X107712176Y-105665960D01*
X107765376Y-105630413D01*
X107913148Y-105569205D01*
X108070025Y-105538000D01*
X108229975Y-105538000D01*
X108386852Y-105569205D01*
G37*
G36*
X110926852Y-105569205D02*
G01*
X111074624Y-105630413D01*
X111127824Y-105665960D01*
X111207620Y-105719278D01*
X111320722Y-105832380D01*
X111374040Y-105912176D01*
X111409587Y-105965376D01*
X111470795Y-106113148D01*
X111502000Y-106270025D01*
X111502000Y-106429975D01*
X111470795Y-106586852D01*
X111409587Y-106734624D01*
X111374040Y-106787824D01*
X111320722Y-106867620D01*
X111207620Y-106980722D01*
X111127824Y-107034040D01*
X111074624Y-107069587D01*
X110926852Y-107130795D01*
X110769975Y-107162000D01*
X110610025Y-107162000D01*
X110453148Y-107130795D01*
X110305376Y-107069587D01*
X110252176Y-107034040D01*
X110172380Y-106980722D01*
X110059278Y-106867620D01*
X110005960Y-106787824D01*
X109970413Y-106734624D01*
X109909205Y-106586852D01*
X109878000Y-106429975D01*
X109878000Y-106270025D01*
X109909205Y-106113148D01*
X109970413Y-105965376D01*
X110005960Y-105912176D01*
X110059278Y-105832380D01*
X110172380Y-105719278D01*
X110252176Y-105665960D01*
X110305376Y-105630413D01*
X110453148Y-105569205D01*
X110610025Y-105538000D01*
X110769975Y-105538000D01*
X110926852Y-105569205D01*
G37*
G36*
X113466852Y-105569205D02*
G01*
X113614624Y-105630413D01*
X113667824Y-105665960D01*
X113747620Y-105719278D01*
X113860722Y-105832380D01*
X113914040Y-105912176D01*
X113949587Y-105965376D01*
X114010795Y-106113148D01*
X114042000Y-106270025D01*
X114042000Y-106429975D01*
X114010795Y-106586852D01*
X113949587Y-106734624D01*
X113914040Y-106787824D01*
X113860722Y-106867620D01*
X113747620Y-106980722D01*
X113667824Y-107034040D01*
X113614624Y-107069587D01*
X113466852Y-107130795D01*
X113309975Y-107162000D01*
X113150025Y-107162000D01*
X112993148Y-107130795D01*
X112845376Y-107069587D01*
X112792176Y-107034040D01*
X112712380Y-106980722D01*
X112599278Y-106867620D01*
X112545960Y-106787824D01*
X112510413Y-106734624D01*
X112449205Y-106586852D01*
X112418000Y-106429975D01*
X112418000Y-106270025D01*
X112449205Y-106113148D01*
X112510413Y-105965376D01*
X112545960Y-105912176D01*
X112599278Y-105832380D01*
X112712380Y-105719278D01*
X112792176Y-105665960D01*
X112845376Y-105630413D01*
X112993148Y-105569205D01*
X113150025Y-105538000D01*
X113309975Y-105538000D01*
X113466852Y-105569205D01*
G37*
G36*
X118546852Y-105569205D02*
G01*
X118694624Y-105630413D01*
X118747824Y-105665960D01*
X118827620Y-105719278D01*
X118940722Y-105832380D01*
X118994040Y-105912176D01*
X119029587Y-105965376D01*
X119090795Y-106113148D01*
X119122000Y-106270025D01*
X119122000Y-106429975D01*
X119090795Y-106586852D01*
X119029587Y-106734624D01*
X118994040Y-106787824D01*
X118940722Y-106867620D01*
X118827620Y-106980722D01*
X118747824Y-107034040D01*
X118694624Y-107069587D01*
X118546852Y-107130795D01*
X118389975Y-107162000D01*
X118230025Y-107162000D01*
X118073148Y-107130795D01*
X117925376Y-107069587D01*
X117872176Y-107034040D01*
X117792380Y-106980722D01*
X117679278Y-106867620D01*
X117625960Y-106787824D01*
X117590413Y-106734624D01*
X117529205Y-106586852D01*
X117498000Y-106429975D01*
X117498000Y-106270025D01*
X117529205Y-106113148D01*
X117590413Y-105965376D01*
X117625960Y-105912176D01*
X117679278Y-105832380D01*
X117792380Y-105719278D01*
X117872176Y-105665960D01*
X117925376Y-105630413D01*
X118073148Y-105569205D01*
X118230025Y-105538000D01*
X118389975Y-105538000D01*
X118546852Y-105569205D01*
G37*
G36*
X121086852Y-105569205D02*
G01*
X121234624Y-105630413D01*
X121287824Y-105665960D01*
X121367620Y-105719278D01*
X121480722Y-105832380D01*
X121534040Y-105912176D01*
X121569587Y-105965376D01*
X121630795Y-106113148D01*
X121662000Y-106270025D01*
X121662000Y-106429975D01*
X121630795Y-106586852D01*
X121569587Y-106734624D01*
X121534040Y-106787824D01*
X121480722Y-106867620D01*
X121367620Y-106980722D01*
X121287824Y-107034040D01*
X121234624Y-107069587D01*
X121086852Y-107130795D01*
X120929975Y-107162000D01*
X120770025Y-107162000D01*
X120613148Y-107130795D01*
X120465376Y-107069587D01*
X120412176Y-107034040D01*
X120332380Y-106980722D01*
X120219278Y-106867620D01*
X120165960Y-106787824D01*
X120130413Y-106734624D01*
X120069205Y-106586852D01*
X120038000Y-106429975D01*
X120038000Y-106270025D01*
X120069205Y-106113148D01*
X120130413Y-105965376D01*
X120165960Y-105912176D01*
X120219278Y-105832380D01*
X120332380Y-105719278D01*
X120412176Y-105665960D01*
X120465376Y-105630413D01*
X120613148Y-105569205D01*
X120770025Y-105538000D01*
X120929975Y-105538000D01*
X121086852Y-105569205D01*
G37*
G36*
X123626852Y-105569205D02*
G01*
X123774624Y-105630413D01*
X123827824Y-105665960D01*
X123907620Y-105719278D01*
X124020722Y-105832380D01*
X124074040Y-105912176D01*
X124109587Y-105965376D01*
X124170795Y-106113148D01*
X124202000Y-106270025D01*
X124202000Y-106429975D01*
X124170795Y-106586852D01*
X124109587Y-106734624D01*
X124074040Y-106787824D01*
X124020722Y-106867620D01*
X123907620Y-106980722D01*
X123827824Y-107034040D01*
X123774624Y-107069587D01*
X123626852Y-107130795D01*
X123469975Y-107162000D01*
X123310025Y-107162000D01*
X123153148Y-107130795D01*
X123005376Y-107069587D01*
X122952176Y-107034040D01*
X122872380Y-106980722D01*
X122759278Y-106867620D01*
X122705960Y-106787824D01*
X122670413Y-106734624D01*
X122609205Y-106586852D01*
X122578000Y-106429975D01*
X122578000Y-106270025D01*
X122609205Y-106113148D01*
X122670413Y-105965376D01*
X122705960Y-105912176D01*
X122759278Y-105832380D01*
X122872380Y-105719278D01*
X122952176Y-105665960D01*
X123005376Y-105630413D01*
X123153148Y-105569205D01*
X123310025Y-105538000D01*
X123469975Y-105538000D01*
X123626852Y-105569205D01*
G37*
G36*
X184186852Y-105569205D02*
G01*
X184334624Y-105630413D01*
X184387824Y-105665960D01*
X184467620Y-105719278D01*
X184580722Y-105832380D01*
X184634040Y-105912176D01*
X184669587Y-105965376D01*
X184730795Y-106113148D01*
X184762000Y-106270025D01*
X184762000Y-106429975D01*
X184730795Y-106586852D01*
X184669587Y-106734624D01*
X184634040Y-106787824D01*
X184580722Y-106867620D01*
X184467620Y-106980722D01*
X184387824Y-107034040D01*
X184334624Y-107069587D01*
X184186852Y-107130795D01*
X184029975Y-107162000D01*
X183870025Y-107162000D01*
X183713148Y-107130795D01*
X183565376Y-107069587D01*
X183512176Y-107034040D01*
X183432380Y-106980722D01*
X183319278Y-106867620D01*
X183265960Y-106787824D01*
X183230413Y-106734624D01*
X183169205Y-106586852D01*
X183138000Y-106429975D01*
X183138000Y-106270025D01*
X183169205Y-106113148D01*
X183230413Y-105965376D01*
X183265960Y-105912176D01*
X183319278Y-105832380D01*
X183432380Y-105719278D01*
X183512176Y-105665960D01*
X183565376Y-105630413D01*
X183713148Y-105569205D01*
X183870025Y-105538000D01*
X184029975Y-105538000D01*
X184186852Y-105569205D01*
G37*
G36*
X143746852Y-105569205D02*
G01*
X143894624Y-105630413D01*
X143947824Y-105665960D01*
X144027620Y-105719278D01*
X144140722Y-105832380D01*
X144194040Y-105912176D01*
X144229587Y-105965376D01*
X144290795Y-106113148D01*
X144322000Y-106270025D01*
X144322000Y-106429975D01*
X144290795Y-106586852D01*
X144229587Y-106734624D01*
X144194040Y-106787824D01*
X144140722Y-106867620D01*
X144027620Y-106980722D01*
X143947824Y-107034040D01*
X143894624Y-107069587D01*
X143746852Y-107130795D01*
X143589975Y-107162000D01*
X143430025Y-107162000D01*
X143273148Y-107130795D01*
X143125376Y-107069587D01*
X143072176Y-107034040D01*
X142992380Y-106980722D01*
X142879278Y-106867620D01*
X142825960Y-106787824D01*
X142790413Y-106734624D01*
X142729205Y-106586852D01*
X142698000Y-106429975D01*
X142698000Y-106270025D01*
X142729205Y-106113148D01*
X142790413Y-105965376D01*
X142825960Y-105912176D01*
X142879278Y-105832380D01*
X142992380Y-105719278D01*
X143072176Y-105665960D01*
X143125376Y-105630413D01*
X143273148Y-105569205D01*
X143430025Y-105538000D01*
X143589975Y-105538000D01*
X143746852Y-105569205D01*
G37*
G36*
X153906852Y-105569205D02*
G01*
X154054624Y-105630413D01*
X154107824Y-105665960D01*
X154187620Y-105719278D01*
X154300722Y-105832380D01*
X154354040Y-105912176D01*
X154389587Y-105965376D01*
X154450795Y-106113148D01*
X154482000Y-106270025D01*
X154482000Y-106429975D01*
X154450795Y-106586852D01*
X154389587Y-106734624D01*
X154354040Y-106787824D01*
X154300722Y-106867620D01*
X154187620Y-106980722D01*
X154107824Y-107034040D01*
X154054624Y-107069587D01*
X153906852Y-107130795D01*
X153749975Y-107162000D01*
X153590025Y-107162000D01*
X153433148Y-107130795D01*
X153285376Y-107069587D01*
X153232176Y-107034040D01*
X153152380Y-106980722D01*
X153039278Y-106867620D01*
X152985960Y-106787824D01*
X152950413Y-106734624D01*
X152889205Y-106586852D01*
X152858000Y-106429975D01*
X152858000Y-106270025D01*
X152889205Y-106113148D01*
X152950413Y-105965376D01*
X152985960Y-105912176D01*
X153039278Y-105832380D01*
X153152380Y-105719278D01*
X153232176Y-105665960D01*
X153285376Y-105630413D01*
X153433148Y-105569205D01*
X153590025Y-105538000D01*
X153749975Y-105538000D01*
X153906852Y-105569205D01*
G37*
G36*
X156446852Y-105569205D02*
G01*
X156594624Y-105630413D01*
X156647824Y-105665960D01*
X156727620Y-105719278D01*
X156840722Y-105832380D01*
X156894040Y-105912176D01*
X156929587Y-105965376D01*
X156990795Y-106113148D01*
X157022000Y-106270025D01*
X157022000Y-106429975D01*
X156990795Y-106586852D01*
X156929587Y-106734624D01*
X156894040Y-106787824D01*
X156840722Y-106867620D01*
X156727620Y-106980722D01*
X156647824Y-107034040D01*
X156594624Y-107069587D01*
X156446852Y-107130795D01*
X156289975Y-107162000D01*
X156130025Y-107162000D01*
X155973148Y-107130795D01*
X155825376Y-107069587D01*
X155772176Y-107034040D01*
X155692380Y-106980722D01*
X155579278Y-106867620D01*
X155525960Y-106787824D01*
X155490413Y-106734624D01*
X155429205Y-106586852D01*
X155398000Y-106429975D01*
X155398000Y-106270025D01*
X155429205Y-106113148D01*
X155490413Y-105965376D01*
X155525960Y-105912176D01*
X155579278Y-105832380D01*
X155692380Y-105719278D01*
X155772176Y-105665960D01*
X155825376Y-105630413D01*
X155973148Y-105569205D01*
X156130025Y-105538000D01*
X156289975Y-105538000D01*
X156446852Y-105569205D01*
G37*
G36*
X158986852Y-105569205D02*
G01*
X159134624Y-105630413D01*
X159187824Y-105665960D01*
X159267620Y-105719278D01*
X159380722Y-105832380D01*
X159434040Y-105912176D01*
X159469587Y-105965376D01*
X159530795Y-106113148D01*
X159562000Y-106270025D01*
X159562000Y-106429975D01*
X159530795Y-106586852D01*
X159469587Y-106734624D01*
X159434040Y-106787824D01*
X159380722Y-106867620D01*
X159267620Y-106980722D01*
X159187824Y-107034040D01*
X159134624Y-107069587D01*
X158986852Y-107130795D01*
X158829975Y-107162000D01*
X158670025Y-107162000D01*
X158513148Y-107130795D01*
X158365376Y-107069587D01*
X158312176Y-107034040D01*
X158232380Y-106980722D01*
X158119278Y-106867620D01*
X158065960Y-106787824D01*
X158030413Y-106734624D01*
X157969205Y-106586852D01*
X157938000Y-106429975D01*
X157938000Y-106270025D01*
X157969205Y-106113148D01*
X158030413Y-105965376D01*
X158065960Y-105912176D01*
X158119278Y-105832380D01*
X158232380Y-105719278D01*
X158312176Y-105665960D01*
X158365376Y-105630413D01*
X158513148Y-105569205D01*
X158670025Y-105538000D01*
X158829975Y-105538000D01*
X158986852Y-105569205D01*
G37*
G36*
X161526852Y-105569205D02*
G01*
X161674624Y-105630413D01*
X161727824Y-105665960D01*
X161807620Y-105719278D01*
X161920722Y-105832380D01*
X161974040Y-105912176D01*
X162009587Y-105965376D01*
X162070795Y-106113148D01*
X162102000Y-106270025D01*
X162102000Y-106429975D01*
X162070795Y-106586852D01*
X162009587Y-106734624D01*
X161974040Y-106787824D01*
X161920722Y-106867620D01*
X161807620Y-106980722D01*
X161727824Y-107034040D01*
X161674624Y-107069587D01*
X161526852Y-107130795D01*
X161369975Y-107162000D01*
X161210025Y-107162000D01*
X161053148Y-107130795D01*
X160905376Y-107069587D01*
X160852176Y-107034040D01*
X160772380Y-106980722D01*
X160659278Y-106867620D01*
X160605960Y-106787824D01*
X160570413Y-106734624D01*
X160509205Y-106586852D01*
X160478000Y-106429975D01*
X160478000Y-106270025D01*
X160509205Y-106113148D01*
X160570413Y-105965376D01*
X160605960Y-105912176D01*
X160659278Y-105832380D01*
X160772380Y-105719278D01*
X160852176Y-105665960D01*
X160905376Y-105630413D01*
X161053148Y-105569205D01*
X161210025Y-105538000D01*
X161369975Y-105538000D01*
X161526852Y-105569205D01*
G37*
G36*
X181646852Y-105569205D02*
G01*
X181794624Y-105630413D01*
X181847824Y-105665960D01*
X181927620Y-105719278D01*
X182040722Y-105832380D01*
X182094040Y-105912176D01*
X182129587Y-105965376D01*
X182190795Y-106113148D01*
X182222000Y-106270025D01*
X182222000Y-106429975D01*
X182190795Y-106586852D01*
X182129587Y-106734624D01*
X182094040Y-106787824D01*
X182040722Y-106867620D01*
X181927620Y-106980722D01*
X181847824Y-107034040D01*
X181794624Y-107069587D01*
X181646852Y-107130795D01*
X181489975Y-107162000D01*
X181330025Y-107162000D01*
X181173148Y-107130795D01*
X181025376Y-107069587D01*
X180972176Y-107034040D01*
X180892380Y-106980722D01*
X180779278Y-106867620D01*
X180725960Y-106787824D01*
X180690413Y-106734624D01*
X180629205Y-106586852D01*
X180598000Y-106429975D01*
X180598000Y-106270025D01*
X180629205Y-106113148D01*
X180690413Y-105965376D01*
X180725960Y-105912176D01*
X180779278Y-105832380D01*
X180892380Y-105719278D01*
X180972176Y-105665960D01*
X181025376Y-105630413D01*
X181173148Y-105569205D01*
X181330025Y-105538000D01*
X181489975Y-105538000D01*
X181646852Y-105569205D01*
G37*
G36*
X66840130Y-103099107D02*
G01*
X67023921Y-103154859D01*
X67114891Y-103203484D01*
X67193302Y-103245395D01*
X67193305Y-103245397D01*
X67193306Y-103245398D01*
X67341765Y-103367235D01*
X67463605Y-103515698D01*
X67505516Y-103594109D01*
X67554141Y-103685079D01*
X67609893Y-103868870D01*
X67628718Y-104060000D01*
X67609893Y-104251130D01*
X67554141Y-104434921D01*
X67505516Y-104525891D01*
X67463605Y-104604302D01*
X67341765Y-104752765D01*
X67193302Y-104874605D01*
X67114891Y-104916516D01*
X67023921Y-104965141D01*
X66840130Y-105020893D01*
X66696899Y-105035000D01*
X65403101Y-105035000D01*
X65259870Y-105020893D01*
X65076079Y-104965141D01*
X64985109Y-104916516D01*
X64906698Y-104874605D01*
X64758235Y-104752765D01*
X64636395Y-104604302D01*
X64594484Y-104525891D01*
X64545859Y-104434921D01*
X64490107Y-104251130D01*
X64471282Y-104060000D01*
X64490107Y-103868870D01*
X64545859Y-103685079D01*
X64594484Y-103594109D01*
X64636395Y-103515698D01*
X64758235Y-103367235D01*
X64906694Y-103245398D01*
X64906695Y-103245397D01*
X64906698Y-103245395D01*
X64985109Y-103203484D01*
X65076079Y-103154859D01*
X65259870Y-103099107D01*
X65403101Y-103085000D01*
X66696899Y-103085000D01*
X66840130Y-103099107D01*
G37*
G36*
X255340130Y-103099107D02*
G01*
X255523921Y-103154859D01*
X255614891Y-103203484D01*
X255693302Y-103245395D01*
X255693305Y-103245397D01*
X255693306Y-103245398D01*
X255841765Y-103367235D01*
X255963605Y-103515698D01*
X256005516Y-103594109D01*
X256054141Y-103685079D01*
X256109893Y-103868870D01*
X256128718Y-104060000D01*
X256109893Y-104251130D01*
X256054141Y-104434921D01*
X256005516Y-104525891D01*
X255963605Y-104604302D01*
X255841765Y-104752765D01*
X255693302Y-104874605D01*
X255614891Y-104916516D01*
X255523921Y-104965141D01*
X255340130Y-105020893D01*
X255196899Y-105035000D01*
X253903101Y-105035000D01*
X253759870Y-105020893D01*
X253576079Y-104965141D01*
X253485109Y-104916516D01*
X253406698Y-104874605D01*
X253258235Y-104752765D01*
X253136395Y-104604302D01*
X253094484Y-104525891D01*
X253045859Y-104434921D01*
X252990107Y-104251130D01*
X252971282Y-104060000D01*
X252990107Y-103868870D01*
X253045859Y-103685079D01*
X253094484Y-103594109D01*
X253136395Y-103515698D01*
X253258235Y-103367235D01*
X253406694Y-103245398D01*
X253406695Y-103245397D01*
X253406698Y-103245395D01*
X253485109Y-103203484D01*
X253576079Y-103154859D01*
X253759870Y-103099107D01*
X253903101Y-103085000D01*
X255196899Y-103085000D01*
X255340130Y-103099107D01*
G37*
G36*
X242840130Y-103099107D02*
G01*
X243023921Y-103154859D01*
X243114891Y-103203484D01*
X243193302Y-103245395D01*
X243193305Y-103245397D01*
X243193306Y-103245398D01*
X243341765Y-103367235D01*
X243463605Y-103515698D01*
X243505516Y-103594109D01*
X243554141Y-103685079D01*
X243609893Y-103868870D01*
X243628718Y-104060000D01*
X243609893Y-104251130D01*
X243554141Y-104434921D01*
X243505516Y-104525891D01*
X243463605Y-104604302D01*
X243341765Y-104752765D01*
X243193302Y-104874605D01*
X243114891Y-104916516D01*
X243023921Y-104965141D01*
X242840130Y-105020893D01*
X242696899Y-105035000D01*
X241403101Y-105035000D01*
X241259870Y-105020893D01*
X241076079Y-104965141D01*
X240985109Y-104916516D01*
X240906698Y-104874605D01*
X240758235Y-104752765D01*
X240636395Y-104604302D01*
X240594484Y-104525891D01*
X240545859Y-104434921D01*
X240490107Y-104251130D01*
X240471282Y-104060000D01*
X240490107Y-103868870D01*
X240545859Y-103685079D01*
X240594484Y-103594109D01*
X240636395Y-103515698D01*
X240758235Y-103367235D01*
X240906694Y-103245398D01*
X240906695Y-103245397D01*
X240906698Y-103245395D01*
X240985109Y-103203484D01*
X241076079Y-103154859D01*
X241259870Y-103099107D01*
X241403101Y-103085000D01*
X242696899Y-103085000D01*
X242840130Y-103099107D01*
G37*
G36*
X239340130Y-103099107D02*
G01*
X239523921Y-103154859D01*
X239614891Y-103203484D01*
X239693302Y-103245395D01*
X239693305Y-103245397D01*
X239693306Y-103245398D01*
X239841765Y-103367235D01*
X239963605Y-103515698D01*
X240005516Y-103594109D01*
X240054141Y-103685079D01*
X240109893Y-103868870D01*
X240128718Y-104060000D01*
X240109893Y-104251130D01*
X240054141Y-104434921D01*
X240005516Y-104525891D01*
X239963605Y-104604302D01*
X239841765Y-104752765D01*
X239693302Y-104874605D01*
X239614891Y-104916516D01*
X239523921Y-104965141D01*
X239340130Y-105020893D01*
X239196899Y-105035000D01*
X237903101Y-105035000D01*
X237759870Y-105020893D01*
X237576079Y-104965141D01*
X237485109Y-104916516D01*
X237406698Y-104874605D01*
X237258235Y-104752765D01*
X237136395Y-104604302D01*
X237094484Y-104525891D01*
X237045859Y-104434921D01*
X236990107Y-104251130D01*
X236971282Y-104060000D01*
X236990107Y-103868870D01*
X237045859Y-103685079D01*
X237094484Y-103594109D01*
X237136395Y-103515698D01*
X237258235Y-103367235D01*
X237406694Y-103245398D01*
X237406695Y-103245397D01*
X237406698Y-103245395D01*
X237485109Y-103203484D01*
X237576079Y-103154859D01*
X237759870Y-103099107D01*
X237903101Y-103085000D01*
X239196899Y-103085000D01*
X239340130Y-103099107D01*
G37*
G36*
X226840130Y-103099107D02*
G01*
X227023921Y-103154859D01*
X227114891Y-103203484D01*
X227193302Y-103245395D01*
X227193305Y-103245397D01*
X227193306Y-103245398D01*
X227341765Y-103367235D01*
X227463605Y-103515698D01*
X227505516Y-103594109D01*
X227554141Y-103685079D01*
X227609893Y-103868870D01*
X227628718Y-104060000D01*
X227609893Y-104251130D01*
X227554141Y-104434921D01*
X227505516Y-104525891D01*
X227463605Y-104604302D01*
X227341765Y-104752765D01*
X227193302Y-104874605D01*
X227114891Y-104916516D01*
X227023921Y-104965141D01*
X226840130Y-105020893D01*
X226696899Y-105035000D01*
X225403101Y-105035000D01*
X225259870Y-105020893D01*
X225076079Y-104965141D01*
X224985109Y-104916516D01*
X224906698Y-104874605D01*
X224758235Y-104752765D01*
X224636395Y-104604302D01*
X224594484Y-104525891D01*
X224545859Y-104434921D01*
X224490107Y-104251130D01*
X224471282Y-104060000D01*
X224490107Y-103868870D01*
X224545859Y-103685079D01*
X224594484Y-103594109D01*
X224636395Y-103515698D01*
X224758235Y-103367235D01*
X224906694Y-103245398D01*
X224906695Y-103245397D01*
X224906698Y-103245395D01*
X224985109Y-103203484D01*
X225076079Y-103154859D01*
X225259870Y-103099107D01*
X225403101Y-103085000D01*
X226696899Y-103085000D01*
X226840130Y-103099107D01*
G37*
G36*
X79340130Y-103099107D02*
G01*
X79523921Y-103154859D01*
X79614891Y-103203484D01*
X79693302Y-103245395D01*
X79693305Y-103245397D01*
X79693306Y-103245398D01*
X79841765Y-103367235D01*
X79963605Y-103515698D01*
X80005516Y-103594109D01*
X80054141Y-103685079D01*
X80109893Y-103868870D01*
X80128718Y-104060000D01*
X80109893Y-104251130D01*
X80054141Y-104434921D01*
X80005516Y-104525891D01*
X79963605Y-104604302D01*
X79841765Y-104752765D01*
X79693302Y-104874605D01*
X79614891Y-104916516D01*
X79523921Y-104965141D01*
X79340130Y-105020893D01*
X79196899Y-105035000D01*
X77903101Y-105035000D01*
X77759870Y-105020893D01*
X77576079Y-104965141D01*
X77485109Y-104916516D01*
X77406698Y-104874605D01*
X77258235Y-104752765D01*
X77136395Y-104604302D01*
X77094484Y-104525891D01*
X77045859Y-104434921D01*
X76990107Y-104251130D01*
X76971282Y-104060000D01*
X76990107Y-103868870D01*
X77045859Y-103685079D01*
X77094484Y-103594109D01*
X77136395Y-103515698D01*
X77258235Y-103367235D01*
X77406694Y-103245398D01*
X77406695Y-103245397D01*
X77406698Y-103245395D01*
X77485109Y-103203484D01*
X77576079Y-103154859D01*
X77759870Y-103099107D01*
X77903101Y-103085000D01*
X79196899Y-103085000D01*
X79340130Y-103099107D01*
G37*
G36*
X63340130Y-103099107D02*
G01*
X63523921Y-103154859D01*
X63614891Y-103203484D01*
X63693302Y-103245395D01*
X63693305Y-103245397D01*
X63693306Y-103245398D01*
X63841765Y-103367235D01*
X63963605Y-103515698D01*
X64005516Y-103594109D01*
X64054141Y-103685079D01*
X64109893Y-103868870D01*
X64128718Y-104060000D01*
X64109893Y-104251130D01*
X64054141Y-104434921D01*
X64005516Y-104525891D01*
X63963605Y-104604302D01*
X63841765Y-104752765D01*
X63693302Y-104874605D01*
X63614891Y-104916516D01*
X63523921Y-104965141D01*
X63340130Y-105020893D01*
X63196899Y-105035000D01*
X61903101Y-105035000D01*
X61759870Y-105020893D01*
X61576079Y-104965141D01*
X61485109Y-104916516D01*
X61406698Y-104874605D01*
X61258235Y-104752765D01*
X61136395Y-104604302D01*
X61094484Y-104525891D01*
X61045859Y-104434921D01*
X60990107Y-104251130D01*
X60971282Y-104060000D01*
X60990107Y-103868870D01*
X61045859Y-103685079D01*
X61094484Y-103594109D01*
X61136395Y-103515698D01*
X61258235Y-103367235D01*
X61406694Y-103245398D01*
X61406695Y-103245397D01*
X61406698Y-103245395D01*
X61485109Y-103203484D01*
X61576079Y-103154859D01*
X61759870Y-103099107D01*
X61903101Y-103085000D01*
X63196899Y-103085000D01*
X63340130Y-103099107D01*
G37*
G36*
X50840130Y-103099107D02*
G01*
X51023921Y-103154859D01*
X51114891Y-103203484D01*
X51193302Y-103245395D01*
X51193305Y-103245397D01*
X51193306Y-103245398D01*
X51341765Y-103367235D01*
X51463605Y-103515698D01*
X51505516Y-103594109D01*
X51554141Y-103685079D01*
X51609893Y-103868870D01*
X51628718Y-104060000D01*
X51609893Y-104251130D01*
X51554141Y-104434921D01*
X51505516Y-104525891D01*
X51463605Y-104604302D01*
X51341765Y-104752765D01*
X51193302Y-104874605D01*
X51114891Y-104916516D01*
X51023921Y-104965141D01*
X50840130Y-105020893D01*
X50696899Y-105035000D01*
X49403101Y-105035000D01*
X49259870Y-105020893D01*
X49076079Y-104965141D01*
X48985109Y-104916516D01*
X48906698Y-104874605D01*
X48758235Y-104752765D01*
X48636395Y-104604302D01*
X48594484Y-104525891D01*
X48545859Y-104434921D01*
X48490107Y-104251130D01*
X48471282Y-104060000D01*
X48490107Y-103868870D01*
X48545859Y-103685079D01*
X48594484Y-103594109D01*
X48636395Y-103515698D01*
X48758235Y-103367235D01*
X48906694Y-103245398D01*
X48906695Y-103245397D01*
X48906698Y-103245395D01*
X48985109Y-103203484D01*
X49076079Y-103154859D01*
X49259870Y-103099107D01*
X49403101Y-103085000D01*
X50696899Y-103085000D01*
X50840130Y-103099107D01*
G37*
G36*
X133931287Y-100013408D02*
G01*
X134231568Y-100137789D01*
X134501814Y-100318361D01*
X134731639Y-100548186D01*
X134912211Y-100818432D01*
X135036592Y-101118713D01*
X135100000Y-101437489D01*
X135100000Y-101762511D01*
X135036592Y-102081287D01*
X134912211Y-102381568D01*
X134731639Y-102651814D01*
X134501814Y-102881639D01*
X134231568Y-103062211D01*
X133931287Y-103186592D01*
X133612511Y-103250000D01*
X133287489Y-103250000D01*
X132968713Y-103186592D01*
X132668432Y-103062211D01*
X132398186Y-102881639D01*
X132168361Y-102651814D01*
X131987789Y-102381568D01*
X131863408Y-102081287D01*
X131800000Y-101762511D01*
X131800000Y-101437489D01*
X131863408Y-101118713D01*
X131987789Y-100818432D01*
X132168361Y-100548186D01*
X132398186Y-100318361D01*
X132668432Y-100137789D01*
X132968713Y-100013408D01*
X133287489Y-99950000D01*
X133612511Y-99950000D01*
X133931287Y-100013408D01*
G37*
G36*
X171831287Y-100013408D02*
G01*
X172131568Y-100137789D01*
X172401814Y-100318361D01*
X172631639Y-100548186D01*
X172812211Y-100818432D01*
X172936592Y-101118713D01*
X173000000Y-101437489D01*
X173000000Y-101762511D01*
X172936592Y-102081287D01*
X172812211Y-102381568D01*
X172631639Y-102651814D01*
X172401814Y-102881639D01*
X172131568Y-103062211D01*
X171831287Y-103186592D01*
X171512511Y-103250000D01*
X171187489Y-103250000D01*
X170868713Y-103186592D01*
X170568432Y-103062211D01*
X170298186Y-102881639D01*
X170068361Y-102651814D01*
X169887789Y-102381568D01*
X169763408Y-102081287D01*
X169700000Y-101762511D01*
X169700000Y-101437489D01*
X169763408Y-101118713D01*
X169887789Y-100818432D01*
X170068361Y-100548186D01*
X170298186Y-100318361D01*
X170568432Y-100137789D01*
X170868713Y-100013408D01*
X171187489Y-99950000D01*
X171512511Y-99950000D01*
X171831287Y-100013408D01*
G37*
G36*
X255340130Y-98099107D02*
G01*
X255523921Y-98154859D01*
X255614891Y-98203484D01*
X255693302Y-98245395D01*
X255841765Y-98367235D01*
X255963605Y-98515698D01*
X256005516Y-98594109D01*
X256054141Y-98685079D01*
X256109893Y-98868870D01*
X256128718Y-99060000D01*
X256109893Y-99251130D01*
X256054141Y-99434921D01*
X256005516Y-99525891D01*
X255963605Y-99604302D01*
X255841765Y-99752765D01*
X255693302Y-99874605D01*
X255614891Y-99916516D01*
X255523921Y-99965141D01*
X255340130Y-100020893D01*
X255196899Y-100035000D01*
X253903101Y-100035000D01*
X253759870Y-100020893D01*
X253576079Y-99965141D01*
X253485109Y-99916516D01*
X253406698Y-99874605D01*
X253258235Y-99752765D01*
X253136395Y-99604302D01*
X253094484Y-99525891D01*
X253045859Y-99434921D01*
X252990107Y-99251130D01*
X252971282Y-99060000D01*
X252990107Y-98868870D01*
X253045859Y-98685079D01*
X253094484Y-98594109D01*
X253136395Y-98515698D01*
X253258235Y-98367235D01*
X253406698Y-98245395D01*
X253485109Y-98203484D01*
X253576079Y-98154859D01*
X253759870Y-98099107D01*
X253903101Y-98085000D01*
X255196899Y-98085000D01*
X255340130Y-98099107D01*
G37*
G36*
X242840130Y-98099107D02*
G01*
X243023921Y-98154859D01*
X243114891Y-98203484D01*
X243193302Y-98245395D01*
X243341765Y-98367235D01*
X243463605Y-98515698D01*
X243505516Y-98594109D01*
X243554141Y-98685079D01*
X243609893Y-98868870D01*
X243628718Y-99060000D01*
X243609893Y-99251130D01*
X243554141Y-99434921D01*
X243505516Y-99525891D01*
X243463605Y-99604302D01*
X243341765Y-99752765D01*
X243193302Y-99874605D01*
X243114891Y-99916516D01*
X243023921Y-99965141D01*
X242840130Y-100020893D01*
X242696899Y-100035000D01*
X241403101Y-100035000D01*
X241259870Y-100020893D01*
X241076079Y-99965141D01*
X240985109Y-99916516D01*
X240906698Y-99874605D01*
X240758235Y-99752765D01*
X240636395Y-99604302D01*
X240594484Y-99525891D01*
X240545859Y-99434921D01*
X240490107Y-99251130D01*
X240471282Y-99060000D01*
X240490107Y-98868870D01*
X240545859Y-98685079D01*
X240594484Y-98594109D01*
X240636395Y-98515698D01*
X240758235Y-98367235D01*
X240906698Y-98245395D01*
X240985109Y-98203484D01*
X241076079Y-98154859D01*
X241259870Y-98099107D01*
X241403101Y-98085000D01*
X242696899Y-98085000D01*
X242840130Y-98099107D01*
G37*
G36*
X239340130Y-98099107D02*
G01*
X239523921Y-98154859D01*
X239614891Y-98203484D01*
X239693302Y-98245395D01*
X239841765Y-98367235D01*
X239963605Y-98515698D01*
X240005516Y-98594109D01*
X240054141Y-98685079D01*
X240109893Y-98868870D01*
X240128718Y-99060000D01*
X240109893Y-99251130D01*
X240054141Y-99434921D01*
X240005516Y-99525891D01*
X239963605Y-99604302D01*
X239841765Y-99752765D01*
X239693302Y-99874605D01*
X239614891Y-99916516D01*
X239523921Y-99965141D01*
X239340130Y-100020893D01*
X239196899Y-100035000D01*
X237903101Y-100035000D01*
X237759870Y-100020893D01*
X237576079Y-99965141D01*
X237485109Y-99916516D01*
X237406698Y-99874605D01*
X237258235Y-99752765D01*
X237136395Y-99604302D01*
X237094484Y-99525891D01*
X237045859Y-99434921D01*
X236990107Y-99251130D01*
X236971282Y-99060000D01*
X236990107Y-98868870D01*
X237045859Y-98685079D01*
X237094484Y-98594109D01*
X237136395Y-98515698D01*
X237258235Y-98367235D01*
X237406698Y-98245395D01*
X237485109Y-98203484D01*
X237576079Y-98154859D01*
X237759870Y-98099107D01*
X237903101Y-98085000D01*
X239196899Y-98085000D01*
X239340130Y-98099107D01*
G37*
G36*
X226840130Y-98099107D02*
G01*
X227023921Y-98154859D01*
X227114891Y-98203484D01*
X227193302Y-98245395D01*
X227341765Y-98367235D01*
X227463605Y-98515698D01*
X227505516Y-98594109D01*
X227554141Y-98685079D01*
X227609893Y-98868870D01*
X227628718Y-99060000D01*
X227609893Y-99251130D01*
X227554141Y-99434921D01*
X227505516Y-99525891D01*
X227463605Y-99604302D01*
X227341765Y-99752765D01*
X227193302Y-99874605D01*
X227114891Y-99916516D01*
X227023921Y-99965141D01*
X226840130Y-100020893D01*
X226696899Y-100035000D01*
X225403101Y-100035000D01*
X225259870Y-100020893D01*
X225076079Y-99965141D01*
X224985109Y-99916516D01*
X224906698Y-99874605D01*
X224758235Y-99752765D01*
X224636395Y-99604302D01*
X224594484Y-99525891D01*
X224545859Y-99434921D01*
X224490107Y-99251130D01*
X224471282Y-99060000D01*
X224490107Y-98868870D01*
X224545859Y-98685079D01*
X224594484Y-98594109D01*
X224636395Y-98515698D01*
X224758235Y-98367235D01*
X224906698Y-98245395D01*
X224985109Y-98203484D01*
X225076079Y-98154859D01*
X225259870Y-98099107D01*
X225403101Y-98085000D01*
X226696899Y-98085000D01*
X226840130Y-98099107D01*
G37*
G36*
X79340130Y-98099107D02*
G01*
X79523921Y-98154859D01*
X79614891Y-98203484D01*
X79693302Y-98245395D01*
X79841765Y-98367235D01*
X79963605Y-98515698D01*
X80005516Y-98594109D01*
X80054141Y-98685079D01*
X80109893Y-98868870D01*
X80128718Y-99060000D01*
X80109893Y-99251130D01*
X80054141Y-99434921D01*
X80005516Y-99525891D01*
X79963605Y-99604302D01*
X79841765Y-99752765D01*
X79693302Y-99874605D01*
X79614891Y-99916516D01*
X79523921Y-99965141D01*
X79340130Y-100020893D01*
X79196899Y-100035000D01*
X77903101Y-100035000D01*
X77759870Y-100020893D01*
X77576079Y-99965141D01*
X77485109Y-99916516D01*
X77406698Y-99874605D01*
X77258235Y-99752765D01*
X77136395Y-99604302D01*
X77094484Y-99525891D01*
X77045859Y-99434921D01*
X76990107Y-99251130D01*
X76971282Y-99060000D01*
X76990107Y-98868870D01*
X77045859Y-98685079D01*
X77094484Y-98594109D01*
X77136395Y-98515698D01*
X77258235Y-98367235D01*
X77406698Y-98245395D01*
X77485109Y-98203484D01*
X77576079Y-98154859D01*
X77759870Y-98099107D01*
X77903101Y-98085000D01*
X79196899Y-98085000D01*
X79340130Y-98099107D01*
G37*
G36*
X66840130Y-98099107D02*
G01*
X67023921Y-98154859D01*
X67114891Y-98203484D01*
X67193302Y-98245395D01*
X67341765Y-98367235D01*
X67463605Y-98515698D01*
X67505516Y-98594109D01*
X67554141Y-98685079D01*
X67609893Y-98868870D01*
X67628718Y-99060000D01*
X67609893Y-99251130D01*
X67554141Y-99434921D01*
X67505516Y-99525891D01*
X67463605Y-99604302D01*
X67341765Y-99752765D01*
X67193302Y-99874605D01*
X67114891Y-99916516D01*
X67023921Y-99965141D01*
X66840130Y-100020893D01*
X66696899Y-100035000D01*
X65403101Y-100035000D01*
X65259870Y-100020893D01*
X65076079Y-99965141D01*
X64985109Y-99916516D01*
X64906698Y-99874605D01*
X64758235Y-99752765D01*
X64636395Y-99604302D01*
X64594484Y-99525891D01*
X64545859Y-99434921D01*
X64490107Y-99251130D01*
X64471282Y-99060000D01*
X64490107Y-98868870D01*
X64545859Y-98685079D01*
X64594484Y-98594109D01*
X64636395Y-98515698D01*
X64758235Y-98367235D01*
X64906698Y-98245395D01*
X64985109Y-98203484D01*
X65076079Y-98154859D01*
X65259870Y-98099107D01*
X65403101Y-98085000D01*
X66696899Y-98085000D01*
X66840130Y-98099107D01*
G37*
G36*
X63340130Y-98099107D02*
G01*
X63523921Y-98154859D01*
X63614891Y-98203484D01*
X63693302Y-98245395D01*
X63841765Y-98367235D01*
X63963605Y-98515698D01*
X64005516Y-98594109D01*
X64054141Y-98685079D01*
X64109893Y-98868870D01*
X64128718Y-99060000D01*
X64109893Y-99251130D01*
X64054141Y-99434921D01*
X64005516Y-99525891D01*
X63963605Y-99604302D01*
X63841765Y-99752765D01*
X63693302Y-99874605D01*
X63614891Y-99916516D01*
X63523921Y-99965141D01*
X63340130Y-100020893D01*
X63196899Y-100035000D01*
X61903101Y-100035000D01*
X61759870Y-100020893D01*
X61576079Y-99965141D01*
X61485109Y-99916516D01*
X61406698Y-99874605D01*
X61258235Y-99752765D01*
X61136395Y-99604302D01*
X61094484Y-99525891D01*
X61045859Y-99434921D01*
X60990107Y-99251130D01*
X60971282Y-99060000D01*
X60990107Y-98868870D01*
X61045859Y-98685079D01*
X61094484Y-98594109D01*
X61136395Y-98515698D01*
X61258235Y-98367235D01*
X61406698Y-98245395D01*
X61485109Y-98203484D01*
X61576079Y-98154859D01*
X61759870Y-98099107D01*
X61903101Y-98085000D01*
X63196899Y-98085000D01*
X63340130Y-98099107D01*
G37*
G36*
X50840130Y-98099107D02*
G01*
X51023921Y-98154859D01*
X51114891Y-98203484D01*
X51193302Y-98245395D01*
X51341765Y-98367235D01*
X51463605Y-98515698D01*
X51505516Y-98594109D01*
X51554141Y-98685079D01*
X51609893Y-98868870D01*
X51628718Y-99060000D01*
X51609893Y-99251130D01*
X51554141Y-99434921D01*
X51505516Y-99525891D01*
X51463605Y-99604302D01*
X51341765Y-99752765D01*
X51193302Y-99874605D01*
X51114891Y-99916516D01*
X51023921Y-99965141D01*
X50840130Y-100020893D01*
X50696899Y-100035000D01*
X49403101Y-100035000D01*
X49259870Y-100020893D01*
X49076079Y-99965141D01*
X48985109Y-99916516D01*
X48906698Y-99874605D01*
X48758235Y-99752765D01*
X48636395Y-99604302D01*
X48594484Y-99525891D01*
X48545859Y-99434921D01*
X48490107Y-99251130D01*
X48471282Y-99060000D01*
X48490107Y-98868870D01*
X48545859Y-98685079D01*
X48594484Y-98594109D01*
X48636395Y-98515698D01*
X48758235Y-98367235D01*
X48906698Y-98245395D01*
X48985109Y-98203484D01*
X49076079Y-98154859D01*
X49259870Y-98099107D01*
X49403101Y-98085000D01*
X50696899Y-98085000D01*
X50840130Y-98099107D01*
G37*
G36*
X199426852Y-96069205D02*
G01*
X199574624Y-96130413D01*
X199627824Y-96165960D01*
X199707620Y-96219278D01*
X199820722Y-96332380D01*
X199874040Y-96412176D01*
X199909587Y-96465376D01*
X199970795Y-96613148D01*
X200002000Y-96770025D01*
X200002000Y-96929975D01*
X199970795Y-97086852D01*
X199909587Y-97234624D01*
X199874040Y-97287824D01*
X199820722Y-97367620D01*
X199707620Y-97480722D01*
X199627824Y-97534040D01*
X199574624Y-97569587D01*
X199426852Y-97630795D01*
X199269975Y-97662000D01*
X199110025Y-97662000D01*
X198953148Y-97630795D01*
X198805376Y-97569587D01*
X198752176Y-97534040D01*
X198672380Y-97480722D01*
X198559278Y-97367620D01*
X198505960Y-97287824D01*
X198470413Y-97234624D01*
X198409205Y-97086852D01*
X198378000Y-96929975D01*
X198378000Y-96770025D01*
X198409205Y-96613148D01*
X198470413Y-96465376D01*
X198505960Y-96412176D01*
X198559278Y-96332380D01*
X198672380Y-96219278D01*
X198752176Y-96165960D01*
X198805376Y-96130413D01*
X198953148Y-96069205D01*
X199110025Y-96038000D01*
X199269975Y-96038000D01*
X199426852Y-96069205D01*
G37*
G36*
X186726852Y-96069205D02*
G01*
X186874624Y-96130413D01*
X186927824Y-96165960D01*
X187007620Y-96219278D01*
X187120722Y-96332380D01*
X187174040Y-96412176D01*
X187209587Y-96465376D01*
X187270795Y-96613148D01*
X187302000Y-96770025D01*
X187302000Y-96929975D01*
X187270795Y-97086852D01*
X187209587Y-97234624D01*
X187174040Y-97287824D01*
X187120722Y-97367620D01*
X187007620Y-97480722D01*
X186927824Y-97534040D01*
X186874624Y-97569587D01*
X186726852Y-97630795D01*
X186569975Y-97662000D01*
X186410025Y-97662000D01*
X186253148Y-97630795D01*
X186105376Y-97569587D01*
X186052176Y-97534040D01*
X185972380Y-97480722D01*
X185859278Y-97367620D01*
X185805960Y-97287824D01*
X185770413Y-97234624D01*
X185709205Y-97086852D01*
X185678000Y-96929975D01*
X185678000Y-96770025D01*
X185709205Y-96613148D01*
X185770413Y-96465376D01*
X185805960Y-96412176D01*
X185859278Y-96332380D01*
X185972380Y-96219278D01*
X186052176Y-96165960D01*
X186105376Y-96130413D01*
X186253148Y-96069205D01*
X186410025Y-96038000D01*
X186569975Y-96038000D01*
X186726852Y-96069205D01*
G37*
G36*
X123626852Y-96069205D02*
G01*
X123774624Y-96130413D01*
X123827824Y-96165960D01*
X123907620Y-96219278D01*
X124020722Y-96332380D01*
X124074040Y-96412176D01*
X124109587Y-96465376D01*
X124170795Y-96613148D01*
X124202000Y-96770025D01*
X124202000Y-96929975D01*
X124170795Y-97086852D01*
X124109587Y-97234624D01*
X124074040Y-97287824D01*
X124020722Y-97367620D01*
X123907620Y-97480722D01*
X123827824Y-97534040D01*
X123774624Y-97569587D01*
X123626852Y-97630795D01*
X123469975Y-97662000D01*
X123310025Y-97662000D01*
X123153148Y-97630795D01*
X123005376Y-97569587D01*
X122952176Y-97534040D01*
X122872380Y-97480722D01*
X122759278Y-97367620D01*
X122705960Y-97287824D01*
X122670413Y-97234624D01*
X122609205Y-97086852D01*
X122578000Y-96929975D01*
X122578000Y-96770025D01*
X122609205Y-96613148D01*
X122670413Y-96465376D01*
X122705960Y-96412176D01*
X122759278Y-96332380D01*
X122872380Y-96219278D01*
X122952176Y-96165960D01*
X123005376Y-96130413D01*
X123153148Y-96069205D01*
X123310025Y-96038000D01*
X123469975Y-96038000D01*
X123626852Y-96069205D01*
G37*
G36*
X121086852Y-96069205D02*
G01*
X121234624Y-96130413D01*
X121287824Y-96165960D01*
X121367620Y-96219278D01*
X121480722Y-96332380D01*
X121534040Y-96412176D01*
X121569587Y-96465376D01*
X121630795Y-96613148D01*
X121662000Y-96770025D01*
X121662000Y-96929975D01*
X121630795Y-97086852D01*
X121569587Y-97234624D01*
X121534040Y-97287824D01*
X121480722Y-97367620D01*
X121367620Y-97480722D01*
X121287824Y-97534040D01*
X121234624Y-97569587D01*
X121086852Y-97630795D01*
X120929975Y-97662000D01*
X120770025Y-97662000D01*
X120613148Y-97630795D01*
X120465376Y-97569587D01*
X120412176Y-97534040D01*
X120332380Y-97480722D01*
X120219278Y-97367620D01*
X120165960Y-97287824D01*
X120130413Y-97234624D01*
X120069205Y-97086852D01*
X120038000Y-96929975D01*
X120038000Y-96770025D01*
X120069205Y-96613148D01*
X120130413Y-96465376D01*
X120165960Y-96412176D01*
X120219278Y-96332380D01*
X120332380Y-96219278D01*
X120412176Y-96165960D01*
X120465376Y-96130413D01*
X120613148Y-96069205D01*
X120770025Y-96038000D01*
X120929975Y-96038000D01*
X121086852Y-96069205D01*
G37*
G36*
X118546852Y-96069205D02*
G01*
X118694624Y-96130413D01*
X118747824Y-96165960D01*
X118827620Y-96219278D01*
X118940722Y-96332380D01*
X118994040Y-96412176D01*
X119029587Y-96465376D01*
X119090795Y-96613148D01*
X119122000Y-96770025D01*
X119122000Y-96929975D01*
X119090795Y-97086852D01*
X119029587Y-97234624D01*
X118994040Y-97287824D01*
X118940722Y-97367620D01*
X118827620Y-97480722D01*
X118747824Y-97534040D01*
X118694624Y-97569587D01*
X118546852Y-97630795D01*
X118389975Y-97662000D01*
X118230025Y-97662000D01*
X118073148Y-97630795D01*
X117925376Y-97569587D01*
X117872176Y-97534040D01*
X117792380Y-97480722D01*
X117679278Y-97367620D01*
X117625960Y-97287824D01*
X117590413Y-97234624D01*
X117529205Y-97086852D01*
X117498000Y-96929975D01*
X117498000Y-96770025D01*
X117529205Y-96613148D01*
X117590413Y-96465376D01*
X117625960Y-96412176D01*
X117679278Y-96332380D01*
X117792380Y-96219278D01*
X117872176Y-96165960D01*
X117925376Y-96130413D01*
X118073148Y-96069205D01*
X118230025Y-96038000D01*
X118389975Y-96038000D01*
X118546852Y-96069205D01*
G37*
G36*
X116006852Y-96069205D02*
G01*
X116154624Y-96130413D01*
X116207824Y-96165960D01*
X116287620Y-96219278D01*
X116400722Y-96332380D01*
X116454040Y-96412176D01*
X116489587Y-96465376D01*
X116550795Y-96613148D01*
X116582000Y-96770025D01*
X116582000Y-96929975D01*
X116550795Y-97086852D01*
X116489587Y-97234624D01*
X116454040Y-97287824D01*
X116400722Y-97367620D01*
X116287620Y-97480722D01*
X116207824Y-97534040D01*
X116154624Y-97569587D01*
X116006852Y-97630795D01*
X115849975Y-97662000D01*
X115690025Y-97662000D01*
X115533148Y-97630795D01*
X115385376Y-97569587D01*
X115332176Y-97534040D01*
X115252380Y-97480722D01*
X115139278Y-97367620D01*
X115085960Y-97287824D01*
X115050413Y-97234624D01*
X114989205Y-97086852D01*
X114958000Y-96929975D01*
X114958000Y-96770025D01*
X114989205Y-96613148D01*
X115050413Y-96465376D01*
X115085960Y-96412176D01*
X115139278Y-96332380D01*
X115252380Y-96219278D01*
X115332176Y-96165960D01*
X115385376Y-96130413D01*
X115533148Y-96069205D01*
X115690025Y-96038000D01*
X115849975Y-96038000D01*
X116006852Y-96069205D01*
G37*
G36*
X113466852Y-96069205D02*
G01*
X113614624Y-96130413D01*
X113667824Y-96165960D01*
X113747620Y-96219278D01*
X113860722Y-96332380D01*
X113914040Y-96412176D01*
X113949587Y-96465376D01*
X114010795Y-96613148D01*
X114042000Y-96770025D01*
X114042000Y-96929975D01*
X114010795Y-97086852D01*
X113949587Y-97234624D01*
X113914040Y-97287824D01*
X113860722Y-97367620D01*
X113747620Y-97480722D01*
X113667824Y-97534040D01*
X113614624Y-97569587D01*
X113466852Y-97630795D01*
X113309975Y-97662000D01*
X113150025Y-97662000D01*
X112993148Y-97630795D01*
X112845376Y-97569587D01*
X112792176Y-97534040D01*
X112712380Y-97480722D01*
X112599278Y-97367620D01*
X112545960Y-97287824D01*
X112510413Y-97234624D01*
X112449205Y-97086852D01*
X112418000Y-96929975D01*
X112418000Y-96770025D01*
X112449205Y-96613148D01*
X112510413Y-96465376D01*
X112545960Y-96412176D01*
X112599278Y-96332380D01*
X112712380Y-96219278D01*
X112792176Y-96165960D01*
X112845376Y-96130413D01*
X112993148Y-96069205D01*
X113150025Y-96038000D01*
X113309975Y-96038000D01*
X113466852Y-96069205D01*
G37*
G36*
X110926852Y-96069205D02*
G01*
X111074624Y-96130413D01*
X111127824Y-96165960D01*
X111207620Y-96219278D01*
X111320722Y-96332380D01*
X111374040Y-96412176D01*
X111409587Y-96465376D01*
X111470795Y-96613148D01*
X111502000Y-96770025D01*
X111502000Y-96929975D01*
X111470795Y-97086852D01*
X111409587Y-97234624D01*
X111374040Y-97287824D01*
X111320722Y-97367620D01*
X111207620Y-97480722D01*
X111127824Y-97534040D01*
X111074624Y-97569587D01*
X110926852Y-97630795D01*
X110769975Y-97662000D01*
X110610025Y-97662000D01*
X110453148Y-97630795D01*
X110305376Y-97569587D01*
X110252176Y-97534040D01*
X110172380Y-97480722D01*
X110059278Y-97367620D01*
X110005960Y-97287824D01*
X109970413Y-97234624D01*
X109909205Y-97086852D01*
X109878000Y-96929975D01*
X109878000Y-96770025D01*
X109909205Y-96613148D01*
X109970413Y-96465376D01*
X110005960Y-96412176D01*
X110059278Y-96332380D01*
X110172380Y-96219278D01*
X110252176Y-96165960D01*
X110305376Y-96130413D01*
X110453148Y-96069205D01*
X110610025Y-96038000D01*
X110769975Y-96038000D01*
X110926852Y-96069205D01*
G37*
G36*
X108386852Y-96069205D02*
G01*
X108534624Y-96130413D01*
X108587824Y-96165960D01*
X108667620Y-96219278D01*
X108780722Y-96332380D01*
X108834040Y-96412176D01*
X108869587Y-96465376D01*
X108930795Y-96613148D01*
X108962000Y-96770025D01*
X108962000Y-96929975D01*
X108930795Y-97086852D01*
X108869587Y-97234624D01*
X108834040Y-97287824D01*
X108780722Y-97367620D01*
X108667620Y-97480722D01*
X108587824Y-97534040D01*
X108534624Y-97569587D01*
X108386852Y-97630795D01*
X108229975Y-97662000D01*
X108070025Y-97662000D01*
X107913148Y-97630795D01*
X107765376Y-97569587D01*
X107712176Y-97534040D01*
X107632380Y-97480722D01*
X107519278Y-97367620D01*
X107465960Y-97287824D01*
X107430413Y-97234624D01*
X107369205Y-97086852D01*
X107338000Y-96929975D01*
X107338000Y-96770025D01*
X107369205Y-96613148D01*
X107430413Y-96465376D01*
X107465960Y-96412176D01*
X107519278Y-96332380D01*
X107632380Y-96219278D01*
X107712176Y-96165960D01*
X107765376Y-96130413D01*
X107913148Y-96069205D01*
X108070025Y-96038000D01*
X108229975Y-96038000D01*
X108386852Y-96069205D01*
G37*
G36*
X105846852Y-96069205D02*
G01*
X105994624Y-96130413D01*
X106047824Y-96165960D01*
X106127620Y-96219278D01*
X106240722Y-96332380D01*
X106294040Y-96412176D01*
X106329587Y-96465376D01*
X106390795Y-96613148D01*
X106422000Y-96770025D01*
X106422000Y-96929975D01*
X106390795Y-97086852D01*
X106329587Y-97234624D01*
X106294040Y-97287824D01*
X106240722Y-97367620D01*
X106127620Y-97480722D01*
X106047824Y-97534040D01*
X105994624Y-97569587D01*
X105846852Y-97630795D01*
X105689975Y-97662000D01*
X105530025Y-97662000D01*
X105373148Y-97630795D01*
X105225376Y-97569587D01*
X105172176Y-97534040D01*
X105092380Y-97480722D01*
X104979278Y-97367620D01*
X104925960Y-97287824D01*
X104890413Y-97234624D01*
X104829205Y-97086852D01*
X104798000Y-96929975D01*
X104798000Y-96770025D01*
X104829205Y-96613148D01*
X104890413Y-96465376D01*
X104925960Y-96412176D01*
X104979278Y-96332380D01*
X105092380Y-96219278D01*
X105172176Y-96165960D01*
X105225376Y-96130413D01*
X105373148Y-96069205D01*
X105530025Y-96038000D01*
X105689975Y-96038000D01*
X105846852Y-96069205D01*
G37*
G36*
X196886852Y-96069205D02*
G01*
X197034624Y-96130413D01*
X197087824Y-96165960D01*
X197167620Y-96219278D01*
X197280722Y-96332380D01*
X197334040Y-96412176D01*
X197369587Y-96465376D01*
X197430795Y-96613148D01*
X197462000Y-96770025D01*
X197462000Y-96929975D01*
X197430795Y-97086852D01*
X197369587Y-97234624D01*
X197334040Y-97287824D01*
X197280722Y-97367620D01*
X197167620Y-97480722D01*
X197087824Y-97534040D01*
X197034624Y-97569587D01*
X196886852Y-97630795D01*
X196729975Y-97662000D01*
X196570025Y-97662000D01*
X196413148Y-97630795D01*
X196265376Y-97569587D01*
X196212176Y-97534040D01*
X196132380Y-97480722D01*
X196019278Y-97367620D01*
X195965960Y-97287824D01*
X195930413Y-97234624D01*
X195869205Y-97086852D01*
X195838000Y-96929975D01*
X195838000Y-96770025D01*
X195869205Y-96613148D01*
X195930413Y-96465376D01*
X195965960Y-96412176D01*
X196019278Y-96332380D01*
X196132380Y-96219278D01*
X196212176Y-96165960D01*
X196265376Y-96130413D01*
X196413148Y-96069205D01*
X196570025Y-96038000D01*
X196729975Y-96038000D01*
X196886852Y-96069205D01*
G37*
G36*
X194346852Y-96069205D02*
G01*
X194494624Y-96130413D01*
X194547824Y-96165960D01*
X194627620Y-96219278D01*
X194740722Y-96332380D01*
X194794040Y-96412176D01*
X194829587Y-96465376D01*
X194890795Y-96613148D01*
X194922000Y-96770025D01*
X194922000Y-96929975D01*
X194890795Y-97086852D01*
X194829587Y-97234624D01*
X194794040Y-97287824D01*
X194740722Y-97367620D01*
X194627620Y-97480722D01*
X194547824Y-97534040D01*
X194494624Y-97569587D01*
X194346852Y-97630795D01*
X194189975Y-97662000D01*
X194030025Y-97662000D01*
X193873148Y-97630795D01*
X193725376Y-97569587D01*
X193672176Y-97534040D01*
X193592380Y-97480722D01*
X193479278Y-97367620D01*
X193425960Y-97287824D01*
X193390413Y-97234624D01*
X193329205Y-97086852D01*
X193298000Y-96929975D01*
X193298000Y-96770025D01*
X193329205Y-96613148D01*
X193390413Y-96465376D01*
X193425960Y-96412176D01*
X193479278Y-96332380D01*
X193592380Y-96219278D01*
X193672176Y-96165960D01*
X193725376Y-96130413D01*
X193873148Y-96069205D01*
X194030025Y-96038000D01*
X194189975Y-96038000D01*
X194346852Y-96069205D01*
G37*
G36*
X191806852Y-96069205D02*
G01*
X191954624Y-96130413D01*
X192007824Y-96165960D01*
X192087620Y-96219278D01*
X192200722Y-96332380D01*
X192254040Y-96412176D01*
X192289587Y-96465376D01*
X192350795Y-96613148D01*
X192382000Y-96770025D01*
X192382000Y-96929975D01*
X192350795Y-97086852D01*
X192289587Y-97234624D01*
X192254040Y-97287824D01*
X192200722Y-97367620D01*
X192087620Y-97480722D01*
X192007824Y-97534040D01*
X191954624Y-97569587D01*
X191806852Y-97630795D01*
X191649975Y-97662000D01*
X191490025Y-97662000D01*
X191333148Y-97630795D01*
X191185376Y-97569587D01*
X191132176Y-97534040D01*
X191052380Y-97480722D01*
X190939278Y-97367620D01*
X190885960Y-97287824D01*
X190850413Y-97234624D01*
X190789205Y-97086852D01*
X190758000Y-96929975D01*
X190758000Y-96770025D01*
X190789205Y-96613148D01*
X190850413Y-96465376D01*
X190885960Y-96412176D01*
X190939278Y-96332380D01*
X191052380Y-96219278D01*
X191132176Y-96165960D01*
X191185376Y-96130413D01*
X191333148Y-96069205D01*
X191490025Y-96038000D01*
X191649975Y-96038000D01*
X191806852Y-96069205D01*
G37*
G36*
X189266852Y-96069205D02*
G01*
X189414624Y-96130413D01*
X189467824Y-96165960D01*
X189547620Y-96219278D01*
X189660722Y-96332380D01*
X189714040Y-96412176D01*
X189749587Y-96465376D01*
X189810795Y-96613148D01*
X189842000Y-96770025D01*
X189842000Y-96929975D01*
X189810795Y-97086852D01*
X189749587Y-97234624D01*
X189714040Y-97287824D01*
X189660722Y-97367620D01*
X189547620Y-97480722D01*
X189467824Y-97534040D01*
X189414624Y-97569587D01*
X189266852Y-97630795D01*
X189109975Y-97662000D01*
X188950025Y-97662000D01*
X188793148Y-97630795D01*
X188645376Y-97569587D01*
X188592176Y-97534040D01*
X188512380Y-97480722D01*
X188399278Y-97367620D01*
X188345960Y-97287824D01*
X188310413Y-97234624D01*
X188249205Y-97086852D01*
X188218000Y-96929975D01*
X188218000Y-96770025D01*
X188249205Y-96613148D01*
X188310413Y-96465376D01*
X188345960Y-96412176D01*
X188399278Y-96332380D01*
X188512380Y-96219278D01*
X188592176Y-96165960D01*
X188645376Y-96130413D01*
X188793148Y-96069205D01*
X188950025Y-96038000D01*
X189109975Y-96038000D01*
X189266852Y-96069205D01*
G37*
G36*
X184186852Y-96069205D02*
G01*
X184334624Y-96130413D01*
X184387824Y-96165960D01*
X184467620Y-96219278D01*
X184580722Y-96332380D01*
X184634040Y-96412176D01*
X184669587Y-96465376D01*
X184730795Y-96613148D01*
X184762000Y-96770025D01*
X184762000Y-96929975D01*
X184730795Y-97086852D01*
X184669587Y-97234624D01*
X184634040Y-97287824D01*
X184580722Y-97367620D01*
X184467620Y-97480722D01*
X184387824Y-97534040D01*
X184334624Y-97569587D01*
X184186852Y-97630795D01*
X184029975Y-97662000D01*
X183870025Y-97662000D01*
X183713148Y-97630795D01*
X183565376Y-97569587D01*
X183512176Y-97534040D01*
X183432380Y-97480722D01*
X183319278Y-97367620D01*
X183265960Y-97287824D01*
X183230413Y-97234624D01*
X183169205Y-97086852D01*
X183138000Y-96929975D01*
X183138000Y-96770025D01*
X183169205Y-96613148D01*
X183230413Y-96465376D01*
X183265960Y-96412176D01*
X183319278Y-96332380D01*
X183432380Y-96219278D01*
X183512176Y-96165960D01*
X183565376Y-96130413D01*
X183713148Y-96069205D01*
X183870025Y-96038000D01*
X184029975Y-96038000D01*
X184186852Y-96069205D01*
G37*
G36*
X181646852Y-96069205D02*
G01*
X181794624Y-96130413D01*
X181847824Y-96165960D01*
X181927620Y-96219278D01*
X182040722Y-96332380D01*
X182094040Y-96412176D01*
X182129587Y-96465376D01*
X182190795Y-96613148D01*
X182222000Y-96770025D01*
X182222000Y-96929975D01*
X182190795Y-97086852D01*
X182129587Y-97234624D01*
X182094040Y-97287824D01*
X182040722Y-97367620D01*
X181927620Y-97480722D01*
X181847824Y-97534040D01*
X181794624Y-97569587D01*
X181646852Y-97630795D01*
X181489975Y-97662000D01*
X181330025Y-97662000D01*
X181173148Y-97630795D01*
X181025376Y-97569587D01*
X180972176Y-97534040D01*
X180892380Y-97480722D01*
X180779278Y-97367620D01*
X180725960Y-97287824D01*
X180690413Y-97234624D01*
X180629205Y-97086852D01*
X180598000Y-96929975D01*
X180598000Y-96770025D01*
X180629205Y-96613148D01*
X180690413Y-96465376D01*
X180725960Y-96412176D01*
X180779278Y-96332380D01*
X180892380Y-96219278D01*
X180972176Y-96165960D01*
X181025376Y-96130413D01*
X181173148Y-96069205D01*
X181330025Y-96038000D01*
X181489975Y-96038000D01*
X181646852Y-96069205D01*
G37*
G36*
X158986852Y-96069205D02*
G01*
X159134624Y-96130413D01*
X159187824Y-96165960D01*
X159267620Y-96219278D01*
X159380722Y-96332380D01*
X159434040Y-96412176D01*
X159469587Y-96465376D01*
X159530795Y-96613148D01*
X159562000Y-96770025D01*
X159562000Y-96929975D01*
X159530795Y-97086852D01*
X159469587Y-97234624D01*
X159434040Y-97287824D01*
X159380722Y-97367620D01*
X159267620Y-97480722D01*
X159187824Y-97534040D01*
X159134624Y-97569587D01*
X158986852Y-97630795D01*
X158829975Y-97662000D01*
X158670025Y-97662000D01*
X158513148Y-97630795D01*
X158365376Y-97569587D01*
X158312176Y-97534040D01*
X158232380Y-97480722D01*
X158119278Y-97367620D01*
X158065960Y-97287824D01*
X158030413Y-97234624D01*
X157969205Y-97086852D01*
X157938000Y-96929975D01*
X157938000Y-96770025D01*
X157969205Y-96613148D01*
X158030413Y-96465376D01*
X158065960Y-96412176D01*
X158119278Y-96332380D01*
X158232380Y-96219278D01*
X158312176Y-96165960D01*
X158365376Y-96130413D01*
X158513148Y-96069205D01*
X158670025Y-96038000D01*
X158829975Y-96038000D01*
X158986852Y-96069205D01*
G37*
G36*
X161526852Y-96069205D02*
G01*
X161674624Y-96130413D01*
X161727824Y-96165960D01*
X161807620Y-96219278D01*
X161920722Y-96332380D01*
X161974040Y-96412176D01*
X162009587Y-96465376D01*
X162070795Y-96613148D01*
X162102000Y-96770025D01*
X162102000Y-96929975D01*
X162070795Y-97086852D01*
X162009587Y-97234624D01*
X161974040Y-97287824D01*
X161920722Y-97367620D01*
X161807620Y-97480722D01*
X161727824Y-97534040D01*
X161674624Y-97569587D01*
X161526852Y-97630795D01*
X161369975Y-97662000D01*
X161210025Y-97662000D01*
X161053148Y-97630795D01*
X160905376Y-97569587D01*
X160852176Y-97534040D01*
X160772380Y-97480722D01*
X160659278Y-97367620D01*
X160605960Y-97287824D01*
X160570413Y-97234624D01*
X160509205Y-97086852D01*
X160478000Y-96929975D01*
X160478000Y-96770025D01*
X160509205Y-96613148D01*
X160570413Y-96465376D01*
X160605960Y-96412176D01*
X160659278Y-96332380D01*
X160772380Y-96219278D01*
X160852176Y-96165960D01*
X160905376Y-96130413D01*
X161053148Y-96069205D01*
X161210025Y-96038000D01*
X161369975Y-96038000D01*
X161526852Y-96069205D01*
G37*
G36*
X153906852Y-96069205D02*
G01*
X154054624Y-96130413D01*
X154107824Y-96165960D01*
X154187620Y-96219278D01*
X154300722Y-96332380D01*
X154354040Y-96412176D01*
X154389587Y-96465376D01*
X154450795Y-96613148D01*
X154482000Y-96770025D01*
X154482000Y-96929975D01*
X154450795Y-97086852D01*
X154389587Y-97234624D01*
X154354040Y-97287824D01*
X154300722Y-97367620D01*
X154187620Y-97480722D01*
X154107824Y-97534040D01*
X154054624Y-97569587D01*
X153906852Y-97630795D01*
X153749975Y-97662000D01*
X153590025Y-97662000D01*
X153433148Y-97630795D01*
X153285376Y-97569587D01*
X153232176Y-97534040D01*
X153152380Y-97480722D01*
X153039278Y-97367620D01*
X152985960Y-97287824D01*
X152950413Y-97234624D01*
X152889205Y-97086852D01*
X152858000Y-96929975D01*
X152858000Y-96770025D01*
X152889205Y-96613148D01*
X152950413Y-96465376D01*
X152985960Y-96412176D01*
X153039278Y-96332380D01*
X153152380Y-96219278D01*
X153232176Y-96165960D01*
X153285376Y-96130413D01*
X153433148Y-96069205D01*
X153590025Y-96038000D01*
X153749975Y-96038000D01*
X153906852Y-96069205D01*
G37*
G36*
X151366852Y-96069205D02*
G01*
X151514624Y-96130413D01*
X151567824Y-96165960D01*
X151647620Y-96219278D01*
X151760722Y-96332380D01*
X151814040Y-96412176D01*
X151849587Y-96465376D01*
X151910795Y-96613148D01*
X151942000Y-96770025D01*
X151942000Y-96929975D01*
X151910795Y-97086852D01*
X151849587Y-97234624D01*
X151814040Y-97287824D01*
X151760722Y-97367620D01*
X151647620Y-97480722D01*
X151567824Y-97534040D01*
X151514624Y-97569587D01*
X151366852Y-97630795D01*
X151209975Y-97662000D01*
X151050025Y-97662000D01*
X150893148Y-97630795D01*
X150745376Y-97569587D01*
X150692176Y-97534040D01*
X150612380Y-97480722D01*
X150499278Y-97367620D01*
X150445960Y-97287824D01*
X150410413Y-97234624D01*
X150349205Y-97086852D01*
X150318000Y-96929975D01*
X150318000Y-96770025D01*
X150349205Y-96613148D01*
X150410413Y-96465376D01*
X150445960Y-96412176D01*
X150499278Y-96332380D01*
X150612380Y-96219278D01*
X150692176Y-96165960D01*
X150745376Y-96130413D01*
X150893148Y-96069205D01*
X151050025Y-96038000D01*
X151209975Y-96038000D01*
X151366852Y-96069205D01*
G37*
G36*
X148826852Y-96069205D02*
G01*
X148974624Y-96130413D01*
X149027824Y-96165960D01*
X149107620Y-96219278D01*
X149220722Y-96332380D01*
X149274040Y-96412176D01*
X149309587Y-96465376D01*
X149370795Y-96613148D01*
X149402000Y-96770025D01*
X149402000Y-96929975D01*
X149370795Y-97086852D01*
X149309587Y-97234624D01*
X149274040Y-97287824D01*
X149220722Y-97367620D01*
X149107620Y-97480722D01*
X149027824Y-97534040D01*
X148974624Y-97569587D01*
X148826852Y-97630795D01*
X148669975Y-97662000D01*
X148510025Y-97662000D01*
X148353148Y-97630795D01*
X148205376Y-97569587D01*
X148152176Y-97534040D01*
X148072380Y-97480722D01*
X147959278Y-97367620D01*
X147905960Y-97287824D01*
X147870413Y-97234624D01*
X147809205Y-97086852D01*
X147778000Y-96929975D01*
X147778000Y-96770025D01*
X147809205Y-96613148D01*
X147870413Y-96465376D01*
X147905960Y-96412176D01*
X147959278Y-96332380D01*
X148072380Y-96219278D01*
X148152176Y-96165960D01*
X148205376Y-96130413D01*
X148353148Y-96069205D01*
X148510025Y-96038000D01*
X148669975Y-96038000D01*
X148826852Y-96069205D01*
G37*
G36*
X146286852Y-96069205D02*
G01*
X146434624Y-96130413D01*
X146487824Y-96165960D01*
X146567620Y-96219278D01*
X146680722Y-96332380D01*
X146734040Y-96412176D01*
X146769587Y-96465376D01*
X146830795Y-96613148D01*
X146862000Y-96770025D01*
X146862000Y-96929975D01*
X146830795Y-97086852D01*
X146769587Y-97234624D01*
X146734040Y-97287824D01*
X146680722Y-97367620D01*
X146567620Y-97480722D01*
X146487824Y-97534040D01*
X146434624Y-97569587D01*
X146286852Y-97630795D01*
X146129975Y-97662000D01*
X145970025Y-97662000D01*
X145813148Y-97630795D01*
X145665376Y-97569587D01*
X145612176Y-97534040D01*
X145532380Y-97480722D01*
X145419278Y-97367620D01*
X145365960Y-97287824D01*
X145330413Y-97234624D01*
X145269205Y-97086852D01*
X145238000Y-96929975D01*
X145238000Y-96770025D01*
X145269205Y-96613148D01*
X145330413Y-96465376D01*
X145365960Y-96412176D01*
X145419278Y-96332380D01*
X145532380Y-96219278D01*
X145612176Y-96165960D01*
X145665376Y-96130413D01*
X145813148Y-96069205D01*
X145970025Y-96038000D01*
X146129975Y-96038000D01*
X146286852Y-96069205D01*
G37*
G36*
X143746852Y-96069205D02*
G01*
X143894624Y-96130413D01*
X143947824Y-96165960D01*
X144027620Y-96219278D01*
X144140722Y-96332380D01*
X144194040Y-96412176D01*
X144229587Y-96465376D01*
X144290795Y-96613148D01*
X144322000Y-96770025D01*
X144322000Y-96929975D01*
X144290795Y-97086852D01*
X144229587Y-97234624D01*
X144194040Y-97287824D01*
X144140722Y-97367620D01*
X144027620Y-97480722D01*
X143947824Y-97534040D01*
X143894624Y-97569587D01*
X143746852Y-97630795D01*
X143589975Y-97662000D01*
X143430025Y-97662000D01*
X143273148Y-97630795D01*
X143125376Y-97569587D01*
X143072176Y-97534040D01*
X142992380Y-97480722D01*
X142879278Y-97367620D01*
X142825960Y-97287824D01*
X142790413Y-97234624D01*
X142729205Y-97086852D01*
X142698000Y-96929975D01*
X142698000Y-96770025D01*
X142729205Y-96613148D01*
X142790413Y-96465376D01*
X142825960Y-96412176D01*
X142879278Y-96332380D01*
X142992380Y-96219278D01*
X143072176Y-96165960D01*
X143125376Y-96130413D01*
X143273148Y-96069205D01*
X143430025Y-96038000D01*
X143589975Y-96038000D01*
X143746852Y-96069205D01*
G37*
G36*
X156446852Y-96069205D02*
G01*
X156594624Y-96130413D01*
X156647824Y-96165960D01*
X156727620Y-96219278D01*
X156840722Y-96332380D01*
X156894040Y-96412176D01*
X156929587Y-96465376D01*
X156990795Y-96613148D01*
X157022000Y-96770025D01*
X157022000Y-96929975D01*
X156990795Y-97086852D01*
X156929587Y-97234624D01*
X156894040Y-97287824D01*
X156840722Y-97367620D01*
X156727620Y-97480722D01*
X156647824Y-97534040D01*
X156594624Y-97569587D01*
X156446852Y-97630795D01*
X156289975Y-97662000D01*
X156130025Y-97662000D01*
X155973148Y-97630795D01*
X155825376Y-97569587D01*
X155772176Y-97534040D01*
X155692380Y-97480722D01*
X155579278Y-97367620D01*
X155525960Y-97287824D01*
X155490413Y-97234624D01*
X155429205Y-97086852D01*
X155398000Y-96929975D01*
X155398000Y-96770025D01*
X155429205Y-96613148D01*
X155490413Y-96465376D01*
X155525960Y-96412176D01*
X155579278Y-96332380D01*
X155692380Y-96219278D01*
X155772176Y-96165960D01*
X155825376Y-96130413D01*
X155973148Y-96069205D01*
X156130025Y-96038000D01*
X156289975Y-96038000D01*
X156446852Y-96069205D01*
G37*
G36*
X127929197Y-90149958D02*
G01*
X128165780Y-90247954D01*
X128378703Y-90390225D01*
X128559775Y-90571297D01*
X128702046Y-90784220D01*
X128800042Y-91020803D01*
X128850000Y-91271961D01*
X128850000Y-91528039D01*
X128800042Y-91779197D01*
X128702046Y-92015780D01*
X128559775Y-92228703D01*
X128378703Y-92409775D01*
X128165780Y-92552046D01*
X127929197Y-92650042D01*
X127678039Y-92700000D01*
X127421961Y-92700000D01*
X127170803Y-92650042D01*
X126934220Y-92552046D01*
X126721297Y-92409775D01*
X126540225Y-92228703D01*
X126397954Y-92015780D01*
X126299958Y-91779197D01*
X126250000Y-91528039D01*
X126250000Y-91271961D01*
X126299958Y-91020803D01*
X126397954Y-90784220D01*
X126540225Y-90571297D01*
X126721297Y-90390225D01*
X126934220Y-90247954D01*
X127170803Y-90149958D01*
X127421961Y-90100000D01*
X127678039Y-90100000D01*
X127929197Y-90149958D01*
G37*
G36*
X177629197Y-90149958D02*
G01*
X177865780Y-90247954D01*
X178078703Y-90390225D01*
X178259775Y-90571297D01*
X178402046Y-90784220D01*
X178500042Y-91020803D01*
X178550000Y-91271961D01*
X178550000Y-91528039D01*
X178500042Y-91779197D01*
X178402046Y-92015780D01*
X178259775Y-92228703D01*
X178078703Y-92409775D01*
X177865780Y-92552046D01*
X177629197Y-92650042D01*
X177378039Y-92700000D01*
X177121961Y-92700000D01*
X176870803Y-92650042D01*
X176634220Y-92552046D01*
X176421297Y-92409775D01*
X176240225Y-92228703D01*
X176097954Y-92015780D01*
X175999958Y-91779197D01*
X175950000Y-91528039D01*
X175950000Y-91271961D01*
X175999958Y-91020803D01*
X176097954Y-90784220D01*
X176240225Y-90571297D01*
X176421297Y-90390225D01*
X176634220Y-90247954D01*
X176870803Y-90149958D01*
X177121961Y-90100000D01*
X177378039Y-90100000D01*
X177629197Y-90149958D01*
G37*
G36*
X58840130Y-90599107D02*
G01*
X59023921Y-90654859D01*
X59114891Y-90703484D01*
X59193302Y-90745395D01*
X59193305Y-90745397D01*
X59193306Y-90745398D01*
X59240611Y-90784220D01*
X59341765Y-90867235D01*
X59463605Y-91015698D01*
X59505516Y-91094109D01*
X59554141Y-91185079D01*
X59609893Y-91368870D01*
X59628718Y-91560000D01*
X59609893Y-91751130D01*
X59554141Y-91934921D01*
X59510920Y-92015781D01*
X59463605Y-92104302D01*
X59341765Y-92252765D01*
X59193302Y-92374605D01*
X59127503Y-92409775D01*
X59023921Y-92465141D01*
X58840130Y-92520893D01*
X58696899Y-92535000D01*
X57403101Y-92535000D01*
X57259870Y-92520893D01*
X57076079Y-92465141D01*
X56972497Y-92409775D01*
X56906698Y-92374605D01*
X56758235Y-92252765D01*
X56636395Y-92104302D01*
X56589080Y-92015781D01*
X56545859Y-91934921D01*
X56490107Y-91751130D01*
X56471282Y-91560000D01*
X56490107Y-91368870D01*
X56545859Y-91185079D01*
X56594484Y-91094109D01*
X56636395Y-91015698D01*
X56758235Y-90867235D01*
X56859389Y-90784220D01*
X56906694Y-90745398D01*
X56906695Y-90745397D01*
X56906698Y-90745395D01*
X56985109Y-90703484D01*
X57076079Y-90654859D01*
X57259870Y-90599107D01*
X57403101Y-90585000D01*
X58696899Y-90585000D01*
X58840130Y-90599107D01*
G37*
G36*
X71340130Y-90599107D02*
G01*
X71523921Y-90654859D01*
X71614891Y-90703484D01*
X71693302Y-90745395D01*
X71693305Y-90745397D01*
X71693306Y-90745398D01*
X71740611Y-90784220D01*
X71841765Y-90867235D01*
X71963605Y-91015698D01*
X72005516Y-91094109D01*
X72054141Y-91185079D01*
X72109893Y-91368870D01*
X72128718Y-91560000D01*
X72109893Y-91751130D01*
X72054141Y-91934921D01*
X72010920Y-92015781D01*
X71963605Y-92104302D01*
X71841765Y-92252765D01*
X71693302Y-92374605D01*
X71627503Y-92409775D01*
X71523921Y-92465141D01*
X71340130Y-92520893D01*
X71196899Y-92535000D01*
X69903101Y-92535000D01*
X69759870Y-92520893D01*
X69576079Y-92465141D01*
X69472497Y-92409775D01*
X69406698Y-92374605D01*
X69258235Y-92252765D01*
X69136395Y-92104302D01*
X69089080Y-92015781D01*
X69045859Y-91934921D01*
X68990107Y-91751130D01*
X68971282Y-91560000D01*
X68990107Y-91368870D01*
X69045859Y-91185079D01*
X69094484Y-91094109D01*
X69136395Y-91015698D01*
X69258235Y-90867235D01*
X69359389Y-90784220D01*
X69406694Y-90745398D01*
X69406695Y-90745397D01*
X69406698Y-90745395D01*
X69485109Y-90703484D01*
X69576079Y-90654859D01*
X69759870Y-90599107D01*
X69903101Y-90585000D01*
X71196899Y-90585000D01*
X71340130Y-90599107D01*
G37*
G36*
X234840130Y-90599107D02*
G01*
X235023921Y-90654859D01*
X235114891Y-90703484D01*
X235193302Y-90745395D01*
X235193305Y-90745397D01*
X235193306Y-90745398D01*
X235240611Y-90784220D01*
X235341765Y-90867235D01*
X235463605Y-91015698D01*
X235505516Y-91094109D01*
X235554141Y-91185079D01*
X235609893Y-91368870D01*
X235628718Y-91560000D01*
X235609893Y-91751130D01*
X235554141Y-91934921D01*
X235510920Y-92015781D01*
X235463605Y-92104302D01*
X235341765Y-92252765D01*
X235193302Y-92374605D01*
X235127503Y-92409775D01*
X235023921Y-92465141D01*
X234840130Y-92520893D01*
X234696899Y-92535000D01*
X233403101Y-92535000D01*
X233259870Y-92520893D01*
X233076079Y-92465141D01*
X232972497Y-92409775D01*
X232906698Y-92374605D01*
X232758235Y-92252765D01*
X232636395Y-92104302D01*
X232589080Y-92015781D01*
X232545859Y-91934921D01*
X232490107Y-91751130D01*
X232471282Y-91560000D01*
X232490107Y-91368870D01*
X232545859Y-91185079D01*
X232594484Y-91094109D01*
X232636395Y-91015698D01*
X232758235Y-90867235D01*
X232859389Y-90784220D01*
X232906694Y-90745398D01*
X232906695Y-90745397D01*
X232906698Y-90745395D01*
X232985109Y-90703484D01*
X233076079Y-90654859D01*
X233259870Y-90599107D01*
X233403101Y-90585000D01*
X234696899Y-90585000D01*
X234840130Y-90599107D01*
G37*
G36*
X247340130Y-90599107D02*
G01*
X247523921Y-90654859D01*
X247614891Y-90703484D01*
X247693302Y-90745395D01*
X247693305Y-90745397D01*
X247693306Y-90745398D01*
X247740611Y-90784220D01*
X247841765Y-90867235D01*
X247963605Y-91015698D01*
X248005516Y-91094109D01*
X248054141Y-91185079D01*
X248109893Y-91368870D01*
X248128718Y-91560000D01*
X248109893Y-91751130D01*
X248054141Y-91934921D01*
X248010920Y-92015781D01*
X247963605Y-92104302D01*
X247841765Y-92252765D01*
X247693302Y-92374605D01*
X247627503Y-92409775D01*
X247523921Y-92465141D01*
X247340130Y-92520893D01*
X247196899Y-92535000D01*
X245903101Y-92535000D01*
X245759870Y-92520893D01*
X245576079Y-92465141D01*
X245472497Y-92409775D01*
X245406698Y-92374605D01*
X245258235Y-92252765D01*
X245136395Y-92104302D01*
X245089080Y-92015781D01*
X245045859Y-91934921D01*
X244990107Y-91751130D01*
X244971282Y-91560000D01*
X244990107Y-91368870D01*
X245045859Y-91185079D01*
X245094484Y-91094109D01*
X245136395Y-91015698D01*
X245258235Y-90867235D01*
X245359389Y-90784220D01*
X245406694Y-90745398D01*
X245406695Y-90745397D01*
X245406698Y-90745395D01*
X245485109Y-90703484D01*
X245576079Y-90654859D01*
X245759870Y-90599107D01*
X245903101Y-90585000D01*
X247196899Y-90585000D01*
X247340130Y-90599107D01*
G37*
G36*
X93852719Y-87508320D02*
G01*
X93961107Y-87541199D01*
X94060997Y-87594592D01*
X94148554Y-87666446D01*
X94220408Y-87754002D01*
X94273801Y-87853892D01*
X94306680Y-87962280D01*
X94315000Y-88046754D01*
X94315000Y-88553245D01*
X94306680Y-88637720D01*
X94273801Y-88746108D01*
X94220408Y-88845998D01*
X94148554Y-88933554D01*
X94060998Y-89005408D01*
X93961108Y-89058801D01*
X93852720Y-89091680D01*
X93740000Y-89102782D01*
X93627281Y-89091680D01*
X93518893Y-89058801D01*
X93419003Y-89005408D01*
X93331447Y-88933554D01*
X93259593Y-88845998D01*
X93206199Y-88746108D01*
X93173320Y-88637720D01*
X93165000Y-88553246D01*
X93165000Y-88046755D01*
X93173320Y-87962281D01*
X93206199Y-87853893D01*
X93259592Y-87754003D01*
X93331446Y-87666446D01*
X93419002Y-87594592D01*
X93518892Y-87541199D01*
X93627280Y-87508320D01*
X93740000Y-87497218D01*
X93852719Y-87508320D01*
G37*
G36*
X92582719Y-87508320D02*
G01*
X92691107Y-87541199D01*
X92790997Y-87594592D01*
X92878554Y-87666446D01*
X92950408Y-87754002D01*
X93003801Y-87853892D01*
X93036680Y-87962280D01*
X93045000Y-88046754D01*
X93045000Y-88553245D01*
X93036680Y-88637720D01*
X93003801Y-88746108D01*
X92950408Y-88845998D01*
X92878554Y-88933554D01*
X92790998Y-89005408D01*
X92691108Y-89058801D01*
X92582720Y-89091680D01*
X92470000Y-89102782D01*
X92357281Y-89091680D01*
X92248893Y-89058801D01*
X92149003Y-89005408D01*
X92061447Y-88933554D01*
X91989593Y-88845998D01*
X91936199Y-88746108D01*
X91903320Y-88637720D01*
X91895000Y-88553246D01*
X91895000Y-88046755D01*
X91903320Y-87962281D01*
X91936199Y-87853893D01*
X91989592Y-87754003D01*
X92061446Y-87666446D01*
X92149002Y-87594592D01*
X92248892Y-87541199D01*
X92357280Y-87508320D01*
X92470000Y-87497218D01*
X92582719Y-87508320D01*
G37*
G36*
X91775000Y-89100000D02*
G01*
X90625000Y-89100000D01*
X90625000Y-87500000D01*
X91775000Y-87500000D01*
X91775000Y-89100000D01*
G37*
G36*
X101739819Y-85529770D02*
G01*
X101951835Y-85617590D01*
X102142646Y-85745086D01*
X102304914Y-85907354D01*
X102432410Y-86098165D01*
X102520230Y-86310181D01*
X102565000Y-86535257D01*
X102565000Y-86764743D01*
X102520230Y-86989819D01*
X102432410Y-87201835D01*
X102304914Y-87392646D01*
X102142646Y-87554914D01*
X101951835Y-87682410D01*
X101739819Y-87770230D01*
X101514743Y-87815000D01*
X101285257Y-87815000D01*
X101060181Y-87770230D01*
X100848165Y-87682410D01*
X100657354Y-87554914D01*
X100495086Y-87392646D01*
X100367590Y-87201835D01*
X100279770Y-86989819D01*
X100235000Y-86764743D01*
X100235000Y-86535257D01*
X100279770Y-86310181D01*
X100367590Y-86098165D01*
X100495086Y-85907354D01*
X100657354Y-85745086D01*
X100848165Y-85617590D01*
X101060181Y-85529770D01*
X101285257Y-85485000D01*
X101514743Y-85485000D01*
X101739819Y-85529770D01*
G37*
G36*
X204565000Y-87815000D02*
G01*
X202235000Y-87815000D01*
X202235000Y-85485000D01*
X204565000Y-85485000D01*
X204565000Y-87815000D01*
G37*
G36*
X247340130Y-85599107D02*
G01*
X247523921Y-85654859D01*
X247614891Y-85703484D01*
X247693302Y-85745395D01*
X247841765Y-85867235D01*
X247963605Y-86015698D01*
X248005516Y-86094109D01*
X248054141Y-86185079D01*
X248109893Y-86368870D01*
X248128718Y-86560000D01*
X248109893Y-86751130D01*
X248054141Y-86934921D01*
X248024797Y-86989819D01*
X247963605Y-87104302D01*
X247841765Y-87252765D01*
X247693302Y-87374605D01*
X247614891Y-87416516D01*
X247523921Y-87465141D01*
X247340130Y-87520893D01*
X247196899Y-87535000D01*
X245903101Y-87535000D01*
X245759870Y-87520893D01*
X245576079Y-87465141D01*
X245485109Y-87416516D01*
X245406698Y-87374605D01*
X245258235Y-87252765D01*
X245136395Y-87104302D01*
X245075203Y-86989819D01*
X245045859Y-86934921D01*
X244990107Y-86751130D01*
X244971282Y-86560000D01*
X244990107Y-86368870D01*
X245045859Y-86185079D01*
X245094484Y-86094109D01*
X245136395Y-86015698D01*
X245258235Y-85867235D01*
X245406698Y-85745395D01*
X245485109Y-85703484D01*
X245576079Y-85654859D01*
X245759870Y-85599107D01*
X245903101Y-85585000D01*
X247196899Y-85585000D01*
X247340130Y-85599107D01*
G37*
G36*
X234840130Y-85599107D02*
G01*
X235023921Y-85654859D01*
X235114891Y-85703484D01*
X235193302Y-85745395D01*
X235341765Y-85867235D01*
X235463605Y-86015698D01*
X235505516Y-86094109D01*
X235554141Y-86185079D01*
X235609893Y-86368870D01*
X235628718Y-86560000D01*
X235609893Y-86751130D01*
X235554141Y-86934921D01*
X235524797Y-86989819D01*
X235463605Y-87104302D01*
X235341765Y-87252765D01*
X235193302Y-87374605D01*
X235114891Y-87416516D01*
X235023921Y-87465141D01*
X234840130Y-87520893D01*
X234696899Y-87535000D01*
X233403101Y-87535000D01*
X233259870Y-87520893D01*
X233076079Y-87465141D01*
X232985109Y-87416516D01*
X232906698Y-87374605D01*
X232758235Y-87252765D01*
X232636395Y-87104302D01*
X232575203Y-86989819D01*
X232545859Y-86934921D01*
X232490107Y-86751130D01*
X232471282Y-86560000D01*
X232490107Y-86368870D01*
X232545859Y-86185079D01*
X232594484Y-86094109D01*
X232636395Y-86015698D01*
X232758235Y-85867235D01*
X232906698Y-85745395D01*
X232985109Y-85703484D01*
X233076079Y-85654859D01*
X233259870Y-85599107D01*
X233403101Y-85585000D01*
X234696899Y-85585000D01*
X234840130Y-85599107D01*
G37*
G36*
X58840130Y-85599107D02*
G01*
X59023921Y-85654859D01*
X59114891Y-85703484D01*
X59193302Y-85745395D01*
X59341765Y-85867235D01*
X59463605Y-86015698D01*
X59505516Y-86094109D01*
X59554141Y-86185079D01*
X59609893Y-86368870D01*
X59628718Y-86560000D01*
X59609893Y-86751130D01*
X59554141Y-86934921D01*
X59524797Y-86989819D01*
X59463605Y-87104302D01*
X59341765Y-87252765D01*
X59193302Y-87374605D01*
X59114891Y-87416516D01*
X59023921Y-87465141D01*
X58840130Y-87520893D01*
X58696899Y-87535000D01*
X57403101Y-87535000D01*
X57259870Y-87520893D01*
X57076079Y-87465141D01*
X56985109Y-87416516D01*
X56906698Y-87374605D01*
X56758235Y-87252765D01*
X56636395Y-87104302D01*
X56575203Y-86989819D01*
X56545859Y-86934921D01*
X56490107Y-86751130D01*
X56471282Y-86560000D01*
X56490107Y-86368870D01*
X56545859Y-86185079D01*
X56594484Y-86094109D01*
X56636395Y-86015698D01*
X56758235Y-85867235D01*
X56906698Y-85745395D01*
X56985109Y-85703484D01*
X57076079Y-85654859D01*
X57259870Y-85599107D01*
X57403101Y-85585000D01*
X58696899Y-85585000D01*
X58840130Y-85599107D01*
G37*
G36*
X71340130Y-85599107D02*
G01*
X71523921Y-85654859D01*
X71614891Y-85703484D01*
X71693302Y-85745395D01*
X71841765Y-85867235D01*
X71963605Y-86015698D01*
X72005516Y-86094109D01*
X72054141Y-86185079D01*
X72109893Y-86368870D01*
X72128718Y-86560000D01*
X72109893Y-86751130D01*
X72054141Y-86934921D01*
X72024797Y-86989819D01*
X71963605Y-87104302D01*
X71841765Y-87252765D01*
X71693302Y-87374605D01*
X71614891Y-87416516D01*
X71523921Y-87465141D01*
X71340130Y-87520893D01*
X71196899Y-87535000D01*
X69903101Y-87535000D01*
X69759870Y-87520893D01*
X69576079Y-87465141D01*
X69485109Y-87416516D01*
X69406698Y-87374605D01*
X69258235Y-87252765D01*
X69136395Y-87104302D01*
X69075203Y-86989819D01*
X69045859Y-86934921D01*
X68990107Y-86751130D01*
X68971282Y-86560000D01*
X68990107Y-86368870D01*
X69045859Y-86185079D01*
X69094484Y-86094109D01*
X69136395Y-86015698D01*
X69258235Y-85867235D01*
X69406698Y-85745395D01*
X69485109Y-85703484D01*
X69576079Y-85654859D01*
X69759870Y-85599107D01*
X69903101Y-85585000D01*
X71196899Y-85585000D01*
X71340130Y-85599107D01*
G37*
G36*
X127929197Y-80649958D02*
G01*
X128165780Y-80747954D01*
X128378703Y-80890225D01*
X128559775Y-81071297D01*
X128702046Y-81284220D01*
X128800042Y-81520803D01*
X128850000Y-81771961D01*
X128850000Y-82028039D01*
X128800042Y-82279197D01*
X128702046Y-82515780D01*
X128559775Y-82728703D01*
X128378703Y-82909775D01*
X128165780Y-83052046D01*
X127929197Y-83150042D01*
X127678039Y-83200000D01*
X127421961Y-83200000D01*
X127170803Y-83150042D01*
X126934220Y-83052046D01*
X126721297Y-82909775D01*
X126540225Y-82728703D01*
X126397954Y-82515780D01*
X126299958Y-82279197D01*
X126250000Y-82028039D01*
X126250000Y-81771961D01*
X126299958Y-81520803D01*
X126397954Y-81284220D01*
X126540225Y-81071297D01*
X126721297Y-80890225D01*
X126934220Y-80747954D01*
X127170803Y-80649958D01*
X127421961Y-80600000D01*
X127678039Y-80600000D01*
X127929197Y-80649958D01*
G37*
G36*
X177629197Y-80649958D02*
G01*
X177865780Y-80747954D01*
X178078703Y-80890225D01*
X178259775Y-81071297D01*
X178402046Y-81284220D01*
X178500042Y-81520803D01*
X178550000Y-81771961D01*
X178550000Y-82028039D01*
X178500042Y-82279197D01*
X178402046Y-82515780D01*
X178259775Y-82728703D01*
X178078703Y-82909775D01*
X177865780Y-83052046D01*
X177629197Y-83150042D01*
X177378039Y-83200000D01*
X177121961Y-83200000D01*
X176870803Y-83150042D01*
X176634220Y-83052046D01*
X176421297Y-82909775D01*
X176240225Y-82728703D01*
X176097954Y-82515780D01*
X175999958Y-82279197D01*
X175950000Y-82028039D01*
X175950000Y-81771961D01*
X175999958Y-81520803D01*
X176097954Y-81284220D01*
X176240225Y-81071297D01*
X176421297Y-80890225D01*
X176634220Y-80747954D01*
X176870803Y-80649958D01*
X177121961Y-80600000D01*
X177378039Y-80600000D01*
X177629197Y-80649958D01*
G37*
G36*
X92150000Y-81250000D02*
G01*
X90250000Y-81250000D01*
X90250000Y-79350000D01*
X92150000Y-79350000D01*
X92150000Y-81250000D01*
G37*
G36*
X94017105Y-79386508D02*
G01*
X94189994Y-79458121D01*
X94345590Y-79562087D01*
X94477913Y-79694410D01*
X94581879Y-79850006D01*
X94653492Y-80022895D01*
X94690000Y-80206433D01*
X94690000Y-80393567D01*
X94653492Y-80577105D01*
X94581879Y-80749994D01*
X94477913Y-80905590D01*
X94345590Y-81037913D01*
X94189994Y-81141879D01*
X94017105Y-81213492D01*
X93833567Y-81250000D01*
X93646433Y-81250000D01*
X93462895Y-81213492D01*
X93290006Y-81141879D01*
X93134410Y-81037913D01*
X93002087Y-80905590D01*
X92898121Y-80749994D01*
X92826508Y-80577105D01*
X92790000Y-80393567D01*
X92790000Y-80206433D01*
X92826508Y-80022895D01*
X92898121Y-79850006D01*
X93002087Y-79694410D01*
X93134410Y-79562087D01*
X93290006Y-79458121D01*
X93462895Y-79386508D01*
X93646433Y-79350000D01*
X93833567Y-79350000D01*
X94017105Y-79386508D01*
G37*
G36*
X257881287Y-72013408D02*
G01*
X258181568Y-72137789D01*
X258451814Y-72318361D01*
X258681639Y-72548186D01*
X258862211Y-72818432D01*
X258986592Y-73118713D01*
X259050000Y-73437489D01*
X259050000Y-73762511D01*
X258986592Y-74081287D01*
X258862211Y-74381568D01*
X258681639Y-74651814D01*
X258451814Y-74881639D01*
X258181568Y-75062211D01*
X257881287Y-75186592D01*
X257562511Y-75250000D01*
X257237489Y-75250000D01*
X256918713Y-75186592D01*
X256618432Y-75062211D01*
X256348186Y-74881639D01*
X256118361Y-74651814D01*
X255937789Y-74381568D01*
X255813408Y-74081287D01*
X255750000Y-73762511D01*
X255750000Y-73437489D01*
X255813408Y-73118713D01*
X255937789Y-72818432D01*
X256118361Y-72548186D01*
X256348186Y-72318361D01*
X256618432Y-72137789D01*
X256918713Y-72013408D01*
X257237489Y-71950000D01*
X257562511Y-71950000D01*
X257881287Y-72013408D01*
G37*
G36*
X47881287Y-72013408D02*
G01*
X48181568Y-72137789D01*
X48451814Y-72318361D01*
X48681639Y-72548186D01*
X48862211Y-72818432D01*
X48986592Y-73118713D01*
X49050000Y-73437489D01*
X49050000Y-73762511D01*
X48986592Y-74081287D01*
X48862211Y-74381568D01*
X48681639Y-74651814D01*
X48451814Y-74881639D01*
X48181568Y-75062211D01*
X47881287Y-75186592D01*
X47562511Y-75250000D01*
X47237489Y-75250000D01*
X46918713Y-75186592D01*
X46618432Y-75062211D01*
X46348186Y-74881639D01*
X46118361Y-74651814D01*
X45937789Y-74381568D01*
X45813408Y-74081287D01*
X45750000Y-73762511D01*
X45750000Y-73437489D01*
X45813408Y-73118713D01*
X45937789Y-72818432D01*
X46118361Y-72548186D01*
X46348186Y-72318361D01*
X46618432Y-72137789D01*
X46918713Y-72013408D01*
X47237489Y-71950000D01*
X47562511Y-71950000D01*
X47881287Y-72013408D01*
G37*
G36*
X75582521Y-73384586D02*
G01*
X75746307Y-73452428D01*
X75746310Y-73452430D01*
X75893717Y-73550924D01*
X76019076Y-73676283D01*
X76117570Y-73823690D01*
X76117572Y-73823693D01*
X76185414Y-73987479D01*
X76220000Y-74161357D01*
X76220000Y-74338643D01*
X76185414Y-74512521D01*
X76117572Y-74676307D01*
X76117570Y-74676310D01*
X76019076Y-74823717D01*
X75893717Y-74949076D01*
X75746310Y-75047570D01*
X75746307Y-75047572D01*
X75582521Y-75115414D01*
X75408643Y-75150000D01*
X75231357Y-75150000D01*
X75057479Y-75115414D01*
X74893693Y-75047572D01*
X74893690Y-75047570D01*
X74746283Y-74949076D01*
X74620924Y-74823717D01*
X74522430Y-74676310D01*
X74522428Y-74676307D01*
X74454586Y-74512521D01*
X74420000Y-74338643D01*
X74420000Y-74161357D01*
X74454586Y-73987479D01*
X74522428Y-73823693D01*
X74522430Y-73823690D01*
X74620924Y-73676283D01*
X74746283Y-73550924D01*
X74893690Y-73452430D01*
X74893693Y-73452428D01*
X75057479Y-73384586D01*
X75231357Y-73350000D01*
X75408643Y-73350000D01*
X75582521Y-73384586D01*
G37*
G36*
X70900000Y-75150000D02*
G01*
X69100000Y-75150000D01*
X69100000Y-73350000D01*
X70900000Y-73350000D01*
X70900000Y-75150000D01*
G37*
G36*
X67722521Y-73384586D02*
G01*
X67886307Y-73452428D01*
X67886310Y-73452430D01*
X68033717Y-73550924D01*
X68159076Y-73676283D01*
X68257570Y-73823690D01*
X68257572Y-73823693D01*
X68325414Y-73987479D01*
X68360000Y-74161357D01*
X68360000Y-74338643D01*
X68325414Y-74512521D01*
X68257572Y-74676307D01*
X68257570Y-74676310D01*
X68159076Y-74823717D01*
X68033717Y-74949076D01*
X67886310Y-75047570D01*
X67886307Y-75047572D01*
X67722521Y-75115414D01*
X67548643Y-75150000D01*
X67371357Y-75150000D01*
X67197479Y-75115414D01*
X67033693Y-75047572D01*
X67033690Y-75047570D01*
X66886283Y-74949076D01*
X66760924Y-74823717D01*
X66662430Y-74676310D01*
X66662428Y-74676307D01*
X66594586Y-74512521D01*
X66560000Y-74338643D01*
X66560000Y-74161357D01*
X66594586Y-73987479D01*
X66662428Y-73823693D01*
X66662430Y-73823690D01*
X66760924Y-73676283D01*
X66886283Y-73550924D01*
X67033690Y-73452430D01*
X67033693Y-73452428D01*
X67197479Y-73384586D01*
X67371357Y-73350000D01*
X67548643Y-73350000D01*
X67722521Y-73384586D01*
G37*
G36*
X65182521Y-73384586D02*
G01*
X65346307Y-73452428D01*
X65346310Y-73452430D01*
X65493717Y-73550924D01*
X65619076Y-73676283D01*
X65717570Y-73823690D01*
X65717572Y-73823693D01*
X65785414Y-73987479D01*
X65820000Y-74161357D01*
X65820000Y-74338643D01*
X65785414Y-74512521D01*
X65717572Y-74676307D01*
X65717570Y-74676310D01*
X65619076Y-74823717D01*
X65493717Y-74949076D01*
X65346310Y-75047570D01*
X65346307Y-75047572D01*
X65182521Y-75115414D01*
X65008643Y-75150000D01*
X64831357Y-75150000D01*
X64657479Y-75115414D01*
X64493693Y-75047572D01*
X64493690Y-75047570D01*
X64346283Y-74949076D01*
X64220924Y-74823717D01*
X64122430Y-74676310D01*
X64122428Y-74676307D01*
X64054586Y-74512521D01*
X64020000Y-74338643D01*
X64020000Y-74161357D01*
X64054586Y-73987479D01*
X64122428Y-73823693D01*
X64122430Y-73823690D01*
X64220924Y-73676283D01*
X64346283Y-73550924D01*
X64493690Y-73452430D01*
X64493693Y-73452428D01*
X64657479Y-73384586D01*
X64831357Y-73350000D01*
X65008643Y-73350000D01*
X65182521Y-73384586D01*
G37*
G36*
X85742521Y-73384586D02*
G01*
X85906307Y-73452428D01*
X85906310Y-73452430D01*
X86053717Y-73550924D01*
X86179076Y-73676283D01*
X86277570Y-73823690D01*
X86277572Y-73823693D01*
X86345414Y-73987479D01*
X86380000Y-74161357D01*
X86380000Y-74338643D01*
X86345414Y-74512521D01*
X86277572Y-74676307D01*
X86277570Y-74676310D01*
X86179076Y-74823717D01*
X86053717Y-74949076D01*
X85906310Y-75047570D01*
X85906307Y-75047572D01*
X85742521Y-75115414D01*
X85568643Y-75150000D01*
X85391357Y-75150000D01*
X85217479Y-75115414D01*
X85053693Y-75047572D01*
X85053690Y-75047570D01*
X84906283Y-74949076D01*
X84780924Y-74823717D01*
X84682430Y-74676310D01*
X84682428Y-74676307D01*
X84614586Y-74512521D01*
X84580000Y-74338643D01*
X84580000Y-74161357D01*
X84614586Y-73987479D01*
X84682428Y-73823693D01*
X84682430Y-73823690D01*
X84780924Y-73676283D01*
X84906283Y-73550924D01*
X85053690Y-73452430D01*
X85053693Y-73452428D01*
X85217479Y-73384586D01*
X85391357Y-73350000D01*
X85568643Y-73350000D01*
X85742521Y-73384586D01*
G37*
G36*
X88282521Y-73384586D02*
G01*
X88446307Y-73452428D01*
X88446310Y-73452430D01*
X88593717Y-73550924D01*
X88719076Y-73676283D01*
X88817570Y-73823690D01*
X88817572Y-73823693D01*
X88885414Y-73987479D01*
X88920000Y-74161357D01*
X88920000Y-74338643D01*
X88885414Y-74512521D01*
X88817572Y-74676307D01*
X88817570Y-74676310D01*
X88719076Y-74823717D01*
X88593717Y-74949076D01*
X88446310Y-75047570D01*
X88446307Y-75047572D01*
X88282521Y-75115414D01*
X88108643Y-75150000D01*
X87931357Y-75150000D01*
X87757479Y-75115414D01*
X87593693Y-75047572D01*
X87593690Y-75047570D01*
X87446283Y-74949076D01*
X87320924Y-74823717D01*
X87222430Y-74676310D01*
X87222428Y-74676307D01*
X87154586Y-74512521D01*
X87120000Y-74338643D01*
X87120000Y-74161357D01*
X87154586Y-73987479D01*
X87222428Y-73823693D01*
X87222430Y-73823690D01*
X87320924Y-73676283D01*
X87446283Y-73550924D01*
X87593690Y-73452430D01*
X87593693Y-73452428D01*
X87757479Y-73384586D01*
X87931357Y-73350000D01*
X88108643Y-73350000D01*
X88282521Y-73384586D01*
G37*
G36*
X90822521Y-73384586D02*
G01*
X90986307Y-73452428D01*
X90986310Y-73452430D01*
X91133717Y-73550924D01*
X91259076Y-73676283D01*
X91357570Y-73823690D01*
X91357572Y-73823693D01*
X91425414Y-73987479D01*
X91460000Y-74161357D01*
X91460000Y-74338643D01*
X91425414Y-74512521D01*
X91357572Y-74676307D01*
X91357570Y-74676310D01*
X91259076Y-74823717D01*
X91133717Y-74949076D01*
X90986310Y-75047570D01*
X90986307Y-75047572D01*
X90822521Y-75115414D01*
X90648643Y-75150000D01*
X90471357Y-75150000D01*
X90297479Y-75115414D01*
X90133693Y-75047572D01*
X90133690Y-75047570D01*
X89986283Y-74949076D01*
X89860924Y-74823717D01*
X89762430Y-74676310D01*
X89762428Y-74676307D01*
X89694586Y-74512521D01*
X89660000Y-74338643D01*
X89660000Y-74161357D01*
X89694586Y-73987479D01*
X89762428Y-73823693D01*
X89762430Y-73823690D01*
X89860924Y-73676283D01*
X89986283Y-73550924D01*
X90133690Y-73452430D01*
X90133693Y-73452428D01*
X90297479Y-73384586D01*
X90471357Y-73350000D01*
X90648643Y-73350000D01*
X90822521Y-73384586D01*
G37*
G36*
X80662521Y-73384586D02*
G01*
X80826307Y-73452428D01*
X80826310Y-73452430D01*
X80973717Y-73550924D01*
X81099076Y-73676283D01*
X81197570Y-73823690D01*
X81197572Y-73823693D01*
X81265414Y-73987479D01*
X81300000Y-74161357D01*
X81300000Y-74338643D01*
X81265414Y-74512521D01*
X81197572Y-74676307D01*
X81197570Y-74676310D01*
X81099076Y-74823717D01*
X80973717Y-74949076D01*
X80826310Y-75047570D01*
X80826307Y-75047572D01*
X80662521Y-75115414D01*
X80488643Y-75150000D01*
X80311357Y-75150000D01*
X80137479Y-75115414D01*
X79973693Y-75047572D01*
X79973690Y-75047570D01*
X79826283Y-74949076D01*
X79700924Y-74823717D01*
X79602430Y-74676310D01*
X79602428Y-74676307D01*
X79534586Y-74512521D01*
X79500000Y-74338643D01*
X79500000Y-74161357D01*
X79534586Y-73987479D01*
X79602428Y-73823693D01*
X79602430Y-73823690D01*
X79700924Y-73676283D01*
X79826283Y-73550924D01*
X79973690Y-73452430D01*
X79973693Y-73452428D01*
X80137479Y-73384586D01*
X80311357Y-73350000D01*
X80488643Y-73350000D01*
X80662521Y-73384586D01*
G37*
G36*
X94000000Y-75150000D02*
G01*
X92200000Y-75150000D01*
X92200000Y-73350000D01*
X94000000Y-73350000D01*
X94000000Y-75150000D01*
G37*
G36*
X83202521Y-73384586D02*
G01*
X83366307Y-73452428D01*
X83366310Y-73452430D01*
X83513717Y-73550924D01*
X83639076Y-73676283D01*
X83737570Y-73823690D01*
X83737572Y-73823693D01*
X83805414Y-73987479D01*
X83840000Y-74161357D01*
X83840000Y-74338643D01*
X83805414Y-74512521D01*
X83737572Y-74676307D01*
X83737570Y-74676310D01*
X83639076Y-74823717D01*
X83513717Y-74949076D01*
X83366310Y-75047570D01*
X83366307Y-75047572D01*
X83202521Y-75115414D01*
X83028643Y-75150000D01*
X82851357Y-75150000D01*
X82677479Y-75115414D01*
X82513693Y-75047572D01*
X82513690Y-75047570D01*
X82366283Y-74949076D01*
X82240924Y-74823717D01*
X82142430Y-74676310D01*
X82142428Y-74676307D01*
X82074586Y-74512521D01*
X82040000Y-74338643D01*
X82040000Y-74161357D01*
X82074586Y-73987479D01*
X82142428Y-73823693D01*
X82142430Y-73823690D01*
X82240924Y-73676283D01*
X82366283Y-73550924D01*
X82513690Y-73452430D01*
X82513693Y-73452428D01*
X82677479Y-73384586D01*
X82851357Y-73350000D01*
X83028643Y-73350000D01*
X83202521Y-73384586D01*
G37*
G36*
X78122521Y-73384586D02*
G01*
X78286307Y-73452428D01*
X78286310Y-73452430D01*
X78433717Y-73550924D01*
X78559076Y-73676283D01*
X78657570Y-73823690D01*
X78657572Y-73823693D01*
X78725414Y-73987479D01*
X78760000Y-74161357D01*
X78760000Y-74338643D01*
X78725414Y-74512521D01*
X78657572Y-74676307D01*
X78657570Y-74676310D01*
X78559076Y-74823717D01*
X78433717Y-74949076D01*
X78286310Y-75047570D01*
X78286307Y-75047572D01*
X78122521Y-75115414D01*
X77948643Y-75150000D01*
X77771357Y-75150000D01*
X77597479Y-75115414D01*
X77433693Y-75047572D01*
X77433690Y-75047570D01*
X77286283Y-74949076D01*
X77160924Y-74823717D01*
X77062430Y-74676310D01*
X77062428Y-74676307D01*
X76994586Y-74512521D01*
X76960000Y-74338643D01*
X76960000Y-74161357D01*
X76994586Y-73987479D01*
X77062428Y-73823693D01*
X77062430Y-73823690D01*
X77160924Y-73676283D01*
X77286283Y-73550924D01*
X77433690Y-73452430D01*
X77433693Y-73452428D01*
X77597479Y-73384586D01*
X77771357Y-73350000D01*
X77948643Y-73350000D01*
X78122521Y-73384586D01*
G37*
G36*
X216784397Y-72762468D02*
G01*
X216961836Y-72835966D01*
X217121527Y-72942668D01*
X217257332Y-73078473D01*
X217364034Y-73238164D01*
X217437532Y-73415603D01*
X217475000Y-73603971D01*
X217475000Y-73796029D01*
X217437532Y-73984397D01*
X217364034Y-74161836D01*
X217257332Y-74321527D01*
X217121527Y-74457332D01*
X216961836Y-74564034D01*
X216784397Y-74637532D01*
X216596029Y-74675000D01*
X216403971Y-74675000D01*
X216215603Y-74637532D01*
X216038164Y-74564034D01*
X215878473Y-74457332D01*
X215742668Y-74321527D01*
X215635966Y-74161836D01*
X215562468Y-73984397D01*
X215525000Y-73796029D01*
X215525000Y-73603971D01*
X215562468Y-73415603D01*
X215635966Y-73238164D01*
X215742668Y-73078473D01*
X215878473Y-72942668D01*
X216038164Y-72835966D01*
X216215603Y-72762468D01*
X216403971Y-72725000D01*
X216596029Y-72725000D01*
X216784397Y-72762468D01*
G37*
G36*
X230902521Y-72014586D02*
G01*
X231066307Y-72082428D01*
X231066310Y-72082430D01*
X231213717Y-72180924D01*
X231339076Y-72306283D01*
X231437570Y-72453690D01*
X231437572Y-72453693D01*
X231505414Y-72617479D01*
X231540000Y-72791357D01*
X231540000Y-72968643D01*
X231505414Y-73142521D01*
X231437572Y-73306307D01*
X231437570Y-73306310D01*
X231339076Y-73453717D01*
X231213717Y-73579076D01*
X231068241Y-73676280D01*
X231066307Y-73677572D01*
X230902521Y-73745414D01*
X230728643Y-73780000D01*
X230551357Y-73780000D01*
X230377479Y-73745414D01*
X230213693Y-73677572D01*
X230211759Y-73676280D01*
X230066283Y-73579076D01*
X229940924Y-73453717D01*
X229842430Y-73306310D01*
X229842428Y-73306307D01*
X229774586Y-73142521D01*
X229740000Y-72968643D01*
X229740000Y-72791357D01*
X229774586Y-72617479D01*
X229842428Y-72453693D01*
X229842430Y-72453690D01*
X229940924Y-72306283D01*
X230066283Y-72180924D01*
X230213690Y-72082430D01*
X230213693Y-72082428D01*
X230377479Y-72014586D01*
X230551357Y-71980000D01*
X230728643Y-71980000D01*
X230902521Y-72014586D01*
G37*
G36*
X228362521Y-72014586D02*
G01*
X228526307Y-72082428D01*
X228526310Y-72082430D01*
X228673717Y-72180924D01*
X228799076Y-72306283D01*
X228897570Y-72453690D01*
X228897572Y-72453693D01*
X228965414Y-72617479D01*
X229000000Y-72791357D01*
X229000000Y-72968643D01*
X228965414Y-73142521D01*
X228897572Y-73306307D01*
X228897570Y-73306310D01*
X228799076Y-73453717D01*
X228673717Y-73579076D01*
X228528241Y-73676280D01*
X228526307Y-73677572D01*
X228362521Y-73745414D01*
X228188643Y-73780000D01*
X228011357Y-73780000D01*
X227837479Y-73745414D01*
X227673693Y-73677572D01*
X227671759Y-73676280D01*
X227526283Y-73579076D01*
X227400924Y-73453717D01*
X227302430Y-73306310D01*
X227302428Y-73306307D01*
X227234586Y-73142521D01*
X227200000Y-72968643D01*
X227200000Y-72791357D01*
X227234586Y-72617479D01*
X227302428Y-72453693D01*
X227302430Y-72453690D01*
X227400924Y-72306283D01*
X227526283Y-72180924D01*
X227673690Y-72082430D01*
X227673693Y-72082428D01*
X227837479Y-72014586D01*
X228011357Y-71980000D01*
X228188643Y-71980000D01*
X228362521Y-72014586D01*
G37*
G36*
X228362521Y-69474586D02*
G01*
X228526307Y-69542428D01*
X228526310Y-69542430D01*
X228673717Y-69640924D01*
X228799076Y-69766283D01*
X228897570Y-69913690D01*
X228897572Y-69913693D01*
X228965414Y-70077479D01*
X229000000Y-70251357D01*
X229000000Y-70428643D01*
X228965414Y-70602521D01*
X228897572Y-70766307D01*
X228897570Y-70766310D01*
X228799076Y-70913717D01*
X228673717Y-71039076D01*
X228526310Y-71137570D01*
X228526307Y-71137572D01*
X228362521Y-71205414D01*
X228188643Y-71240000D01*
X228011357Y-71240000D01*
X227837479Y-71205414D01*
X227673693Y-71137572D01*
X227673690Y-71137570D01*
X227526283Y-71039076D01*
X227400924Y-70913717D01*
X227302430Y-70766310D01*
X227302428Y-70766307D01*
X227234586Y-70602521D01*
X227200000Y-70428643D01*
X227200000Y-70251357D01*
X227234586Y-70077479D01*
X227302428Y-69913693D01*
X227302430Y-69913690D01*
X227400924Y-69766283D01*
X227526283Y-69640924D01*
X227673690Y-69542430D01*
X227673693Y-69542428D01*
X227837479Y-69474586D01*
X228011357Y-69440000D01*
X228188643Y-69440000D01*
X228362521Y-69474586D01*
G37*
G36*
X230902521Y-69474586D02*
G01*
X231066307Y-69542428D01*
X231066310Y-69542430D01*
X231213717Y-69640924D01*
X231339076Y-69766283D01*
X231437570Y-69913690D01*
X231437572Y-69913693D01*
X231505414Y-70077479D01*
X231540000Y-70251357D01*
X231540000Y-70428643D01*
X231505414Y-70602521D01*
X231437572Y-70766307D01*
X231437570Y-70766310D01*
X231339076Y-70913717D01*
X231213717Y-71039076D01*
X231066310Y-71137570D01*
X231066307Y-71137572D01*
X230902521Y-71205414D01*
X230728643Y-71240000D01*
X230551357Y-71240000D01*
X230377479Y-71205414D01*
X230213693Y-71137572D01*
X230213690Y-71137570D01*
X230066283Y-71039076D01*
X229940924Y-70913717D01*
X229842430Y-70766310D01*
X229842428Y-70766307D01*
X229774586Y-70602521D01*
X229740000Y-70428643D01*
X229740000Y-70251357D01*
X229774586Y-70077479D01*
X229842428Y-69913693D01*
X229842430Y-69913690D01*
X229940924Y-69766283D01*
X230066283Y-69640924D01*
X230213690Y-69542430D01*
X230213693Y-69542428D01*
X230377479Y-69474586D01*
X230551357Y-69440000D01*
X230728643Y-69440000D01*
X230902521Y-69474586D01*
G37*
G36*
X217475000Y-69675000D02*
G01*
X215525000Y-69675000D01*
X215525000Y-67725000D01*
X217475000Y-67725000D01*
X217475000Y-69675000D01*
G37*
G36*
X199426852Y-67669205D02*
G01*
X199574624Y-67730413D01*
X199627824Y-67765960D01*
X199707620Y-67819278D01*
X199820722Y-67932380D01*
X199874040Y-68012176D01*
X199909587Y-68065376D01*
X199970795Y-68213148D01*
X200002000Y-68370025D01*
X200002000Y-68529975D01*
X199970795Y-68686852D01*
X199909587Y-68834624D01*
X199874040Y-68887824D01*
X199820722Y-68967620D01*
X199707620Y-69080722D01*
X199627824Y-69134040D01*
X199574624Y-69169587D01*
X199426852Y-69230795D01*
X199269975Y-69262000D01*
X199110025Y-69262000D01*
X198953148Y-69230795D01*
X198805376Y-69169587D01*
X198752176Y-69134040D01*
X198672380Y-69080722D01*
X198559278Y-68967620D01*
X198505960Y-68887824D01*
X198470413Y-68834624D01*
X198409205Y-68686852D01*
X198378000Y-68529975D01*
X198378000Y-68370025D01*
X198409205Y-68213148D01*
X198470413Y-68065376D01*
X198505960Y-68012176D01*
X198559278Y-67932380D01*
X198672380Y-67819278D01*
X198752176Y-67765960D01*
X198805376Y-67730413D01*
X198953148Y-67669205D01*
X199110025Y-67638000D01*
X199269975Y-67638000D01*
X199426852Y-67669205D01*
G37*
G36*
X196886852Y-67669205D02*
G01*
X197034624Y-67730413D01*
X197087824Y-67765960D01*
X197167620Y-67819278D01*
X197280722Y-67932380D01*
X197334040Y-68012176D01*
X197369587Y-68065376D01*
X197430795Y-68213148D01*
X197462000Y-68370025D01*
X197462000Y-68529975D01*
X197430795Y-68686852D01*
X197369587Y-68834624D01*
X197334040Y-68887824D01*
X197280722Y-68967620D01*
X197167620Y-69080722D01*
X197087824Y-69134040D01*
X197034624Y-69169587D01*
X196886852Y-69230795D01*
X196729975Y-69262000D01*
X196570025Y-69262000D01*
X196413148Y-69230795D01*
X196265376Y-69169587D01*
X196212176Y-69134040D01*
X196132380Y-69080722D01*
X196019278Y-68967620D01*
X195965960Y-68887824D01*
X195930413Y-68834624D01*
X195869205Y-68686852D01*
X195838000Y-68529975D01*
X195838000Y-68370025D01*
X195869205Y-68213148D01*
X195930413Y-68065376D01*
X195965960Y-68012176D01*
X196019278Y-67932380D01*
X196132380Y-67819278D01*
X196212176Y-67765960D01*
X196265376Y-67730413D01*
X196413148Y-67669205D01*
X196570025Y-67638000D01*
X196729975Y-67638000D01*
X196886852Y-67669205D01*
G37*
G36*
X194346852Y-67669205D02*
G01*
X194494624Y-67730413D01*
X194547824Y-67765960D01*
X194627620Y-67819278D01*
X194740722Y-67932380D01*
X194794040Y-68012176D01*
X194829587Y-68065376D01*
X194890795Y-68213148D01*
X194922000Y-68370025D01*
X194922000Y-68529975D01*
X194890795Y-68686852D01*
X194829587Y-68834624D01*
X194794040Y-68887824D01*
X194740722Y-68967620D01*
X194627620Y-69080722D01*
X194547824Y-69134040D01*
X194494624Y-69169587D01*
X194346852Y-69230795D01*
X194189975Y-69262000D01*
X194030025Y-69262000D01*
X193873148Y-69230795D01*
X193725376Y-69169587D01*
X193672176Y-69134040D01*
X193592380Y-69080722D01*
X193479278Y-68967620D01*
X193425960Y-68887824D01*
X193390413Y-68834624D01*
X193329205Y-68686852D01*
X193298000Y-68529975D01*
X193298000Y-68370025D01*
X193329205Y-68213148D01*
X193390413Y-68065376D01*
X193425960Y-68012176D01*
X193479278Y-67932380D01*
X193592380Y-67819278D01*
X193672176Y-67765960D01*
X193725376Y-67730413D01*
X193873148Y-67669205D01*
X194030025Y-67638000D01*
X194189975Y-67638000D01*
X194346852Y-67669205D01*
G37*
G36*
X191806852Y-67669205D02*
G01*
X191954624Y-67730413D01*
X192007824Y-67765960D01*
X192087620Y-67819278D01*
X192200722Y-67932380D01*
X192254040Y-68012176D01*
X192289587Y-68065376D01*
X192350795Y-68213148D01*
X192382000Y-68370025D01*
X192382000Y-68529975D01*
X192350795Y-68686852D01*
X192289587Y-68834624D01*
X192254040Y-68887824D01*
X192200722Y-68967620D01*
X192087620Y-69080722D01*
X192007824Y-69134040D01*
X191954624Y-69169587D01*
X191806852Y-69230795D01*
X191649975Y-69262000D01*
X191490025Y-69262000D01*
X191333148Y-69230795D01*
X191185376Y-69169587D01*
X191132176Y-69134040D01*
X191052380Y-69080722D01*
X190939278Y-68967620D01*
X190885960Y-68887824D01*
X190850413Y-68834624D01*
X190789205Y-68686852D01*
X190758000Y-68529975D01*
X190758000Y-68370025D01*
X190789205Y-68213148D01*
X190850413Y-68065376D01*
X190885960Y-68012176D01*
X190939278Y-67932380D01*
X191052380Y-67819278D01*
X191132176Y-67765960D01*
X191185376Y-67730413D01*
X191333148Y-67669205D01*
X191490025Y-67638000D01*
X191649975Y-67638000D01*
X191806852Y-67669205D01*
G37*
G36*
X189266852Y-67669205D02*
G01*
X189414624Y-67730413D01*
X189467824Y-67765960D01*
X189547620Y-67819278D01*
X189660722Y-67932380D01*
X189714040Y-68012176D01*
X189749587Y-68065376D01*
X189810795Y-68213148D01*
X189842000Y-68370025D01*
X189842000Y-68529975D01*
X189810795Y-68686852D01*
X189749587Y-68834624D01*
X189714040Y-68887824D01*
X189660722Y-68967620D01*
X189547620Y-69080722D01*
X189467824Y-69134040D01*
X189414624Y-69169587D01*
X189266852Y-69230795D01*
X189109975Y-69262000D01*
X188950025Y-69262000D01*
X188793148Y-69230795D01*
X188645376Y-69169587D01*
X188592176Y-69134040D01*
X188512380Y-69080722D01*
X188399278Y-68967620D01*
X188345960Y-68887824D01*
X188310413Y-68834624D01*
X188249205Y-68686852D01*
X188218000Y-68529975D01*
X188218000Y-68370025D01*
X188249205Y-68213148D01*
X188310413Y-68065376D01*
X188345960Y-68012176D01*
X188399278Y-67932380D01*
X188512380Y-67819278D01*
X188592176Y-67765960D01*
X188645376Y-67730413D01*
X188793148Y-67669205D01*
X188950025Y-67638000D01*
X189109975Y-67638000D01*
X189266852Y-67669205D01*
G37*
G36*
X186726852Y-67669205D02*
G01*
X186874624Y-67730413D01*
X186927824Y-67765960D01*
X187007620Y-67819278D01*
X187120722Y-67932380D01*
X187174040Y-68012176D01*
X187209587Y-68065376D01*
X187270795Y-68213148D01*
X187302000Y-68370025D01*
X187302000Y-68529975D01*
X187270795Y-68686852D01*
X187209587Y-68834624D01*
X187174040Y-68887824D01*
X187120722Y-68967620D01*
X187007620Y-69080722D01*
X186927824Y-69134040D01*
X186874624Y-69169587D01*
X186726852Y-69230795D01*
X186569975Y-69262000D01*
X186410025Y-69262000D01*
X186253148Y-69230795D01*
X186105376Y-69169587D01*
X186052176Y-69134040D01*
X185972380Y-69080722D01*
X185859278Y-68967620D01*
X185805960Y-68887824D01*
X185770413Y-68834624D01*
X185709205Y-68686852D01*
X185678000Y-68529975D01*
X185678000Y-68370025D01*
X185709205Y-68213148D01*
X185770413Y-68065376D01*
X185805960Y-68012176D01*
X185859278Y-67932380D01*
X185972380Y-67819278D01*
X186052176Y-67765960D01*
X186105376Y-67730413D01*
X186253148Y-67669205D01*
X186410025Y-67638000D01*
X186569975Y-67638000D01*
X186726852Y-67669205D01*
G37*
G36*
X184186852Y-67669205D02*
G01*
X184334624Y-67730413D01*
X184387824Y-67765960D01*
X184467620Y-67819278D01*
X184580722Y-67932380D01*
X184634040Y-68012176D01*
X184669587Y-68065376D01*
X184730795Y-68213148D01*
X184762000Y-68370025D01*
X184762000Y-68529975D01*
X184730795Y-68686852D01*
X184669587Y-68834624D01*
X184634040Y-68887824D01*
X184580722Y-68967620D01*
X184467620Y-69080722D01*
X184387824Y-69134040D01*
X184334624Y-69169587D01*
X184186852Y-69230795D01*
X184029975Y-69262000D01*
X183870025Y-69262000D01*
X183713148Y-69230795D01*
X183565376Y-69169587D01*
X183512176Y-69134040D01*
X183432380Y-69080722D01*
X183319278Y-68967620D01*
X183265960Y-68887824D01*
X183230413Y-68834624D01*
X183169205Y-68686852D01*
X183138000Y-68529975D01*
X183138000Y-68370025D01*
X183169205Y-68213148D01*
X183230413Y-68065376D01*
X183265960Y-68012176D01*
X183319278Y-67932380D01*
X183432380Y-67819278D01*
X183512176Y-67765960D01*
X183565376Y-67730413D01*
X183713148Y-67669205D01*
X183870025Y-67638000D01*
X184029975Y-67638000D01*
X184186852Y-67669205D01*
G37*
G36*
X181646852Y-67669205D02*
G01*
X181794624Y-67730413D01*
X181847824Y-67765960D01*
X181927620Y-67819278D01*
X182040722Y-67932380D01*
X182094040Y-68012176D01*
X182129587Y-68065376D01*
X182190795Y-68213148D01*
X182222000Y-68370025D01*
X182222000Y-68529975D01*
X182190795Y-68686852D01*
X182129587Y-68834624D01*
X182094040Y-68887824D01*
X182040722Y-68967620D01*
X181927620Y-69080722D01*
X181847824Y-69134040D01*
X181794624Y-69169587D01*
X181646852Y-69230795D01*
X181489975Y-69262000D01*
X181330025Y-69262000D01*
X181173148Y-69230795D01*
X181025376Y-69169587D01*
X180972176Y-69134040D01*
X180892380Y-69080722D01*
X180779278Y-68967620D01*
X180725960Y-68887824D01*
X180690413Y-68834624D01*
X180629205Y-68686852D01*
X180598000Y-68529975D01*
X180598000Y-68370025D01*
X180629205Y-68213148D01*
X180690413Y-68065376D01*
X180725960Y-68012176D01*
X180779278Y-67932380D01*
X180892380Y-67819278D01*
X180972176Y-67765960D01*
X181025376Y-67730413D01*
X181173148Y-67669205D01*
X181330025Y-67638000D01*
X181489975Y-67638000D01*
X181646852Y-67669205D01*
G37*
G36*
X123626852Y-67669205D02*
G01*
X123774624Y-67730413D01*
X123827824Y-67765960D01*
X123907620Y-67819278D01*
X124020722Y-67932380D01*
X124074040Y-68012176D01*
X124109587Y-68065376D01*
X124170795Y-68213148D01*
X124202000Y-68370025D01*
X124202000Y-68529975D01*
X124170795Y-68686852D01*
X124109587Y-68834624D01*
X124074040Y-68887824D01*
X124020722Y-68967620D01*
X123907620Y-69080722D01*
X123827824Y-69134040D01*
X123774624Y-69169587D01*
X123626852Y-69230795D01*
X123469975Y-69262000D01*
X123310025Y-69262000D01*
X123153148Y-69230795D01*
X123005376Y-69169587D01*
X122952176Y-69134040D01*
X122872380Y-69080722D01*
X122759278Y-68967620D01*
X122705960Y-68887824D01*
X122670413Y-68834624D01*
X122609205Y-68686852D01*
X122578000Y-68529975D01*
X122578000Y-68370025D01*
X122609205Y-68213148D01*
X122670413Y-68065376D01*
X122705960Y-68012176D01*
X122759278Y-67932380D01*
X122872380Y-67819278D01*
X122952176Y-67765960D01*
X123005376Y-67730413D01*
X123153148Y-67669205D01*
X123310025Y-67638000D01*
X123469975Y-67638000D01*
X123626852Y-67669205D01*
G37*
G36*
X121086852Y-67669205D02*
G01*
X121234624Y-67730413D01*
X121287824Y-67765960D01*
X121367620Y-67819278D01*
X121480722Y-67932380D01*
X121534040Y-68012176D01*
X121569587Y-68065376D01*
X121630795Y-68213148D01*
X121662000Y-68370025D01*
X121662000Y-68529975D01*
X121630795Y-68686852D01*
X121569587Y-68834624D01*
X121534040Y-68887824D01*
X121480722Y-68967620D01*
X121367620Y-69080722D01*
X121287824Y-69134040D01*
X121234624Y-69169587D01*
X121086852Y-69230795D01*
X120929975Y-69262000D01*
X120770025Y-69262000D01*
X120613148Y-69230795D01*
X120465376Y-69169587D01*
X120412176Y-69134040D01*
X120332380Y-69080722D01*
X120219278Y-68967620D01*
X120165960Y-68887824D01*
X120130413Y-68834624D01*
X120069205Y-68686852D01*
X120038000Y-68529975D01*
X120038000Y-68370025D01*
X120069205Y-68213148D01*
X120130413Y-68065376D01*
X120165960Y-68012176D01*
X120219278Y-67932380D01*
X120332380Y-67819278D01*
X120412176Y-67765960D01*
X120465376Y-67730413D01*
X120613148Y-67669205D01*
X120770025Y-67638000D01*
X120929975Y-67638000D01*
X121086852Y-67669205D01*
G37*
G36*
X118546852Y-67669205D02*
G01*
X118694624Y-67730413D01*
X118747824Y-67765960D01*
X118827620Y-67819278D01*
X118940722Y-67932380D01*
X118994040Y-68012176D01*
X119029587Y-68065376D01*
X119090795Y-68213148D01*
X119122000Y-68370025D01*
X119122000Y-68529975D01*
X119090795Y-68686852D01*
X119029587Y-68834624D01*
X118994040Y-68887824D01*
X118940722Y-68967620D01*
X118827620Y-69080722D01*
X118747824Y-69134040D01*
X118694624Y-69169587D01*
X118546852Y-69230795D01*
X118389975Y-69262000D01*
X118230025Y-69262000D01*
X118073148Y-69230795D01*
X117925376Y-69169587D01*
X117872176Y-69134040D01*
X117792380Y-69080722D01*
X117679278Y-68967620D01*
X117625960Y-68887824D01*
X117590413Y-68834624D01*
X117529205Y-68686852D01*
X117498000Y-68529975D01*
X117498000Y-68370025D01*
X117529205Y-68213148D01*
X117590413Y-68065376D01*
X117625960Y-68012176D01*
X117679278Y-67932380D01*
X117792380Y-67819278D01*
X117872176Y-67765960D01*
X117925376Y-67730413D01*
X118073148Y-67669205D01*
X118230025Y-67638000D01*
X118389975Y-67638000D01*
X118546852Y-67669205D01*
G37*
G36*
X116006852Y-67669205D02*
G01*
X116154624Y-67730413D01*
X116207824Y-67765960D01*
X116287620Y-67819278D01*
X116400722Y-67932380D01*
X116454040Y-68012176D01*
X116489587Y-68065376D01*
X116550795Y-68213148D01*
X116582000Y-68370025D01*
X116582000Y-68529975D01*
X116550795Y-68686852D01*
X116489587Y-68834624D01*
X116454040Y-68887824D01*
X116400722Y-68967620D01*
X116287620Y-69080722D01*
X116207824Y-69134040D01*
X116154624Y-69169587D01*
X116006852Y-69230795D01*
X115849975Y-69262000D01*
X115690025Y-69262000D01*
X115533148Y-69230795D01*
X115385376Y-69169587D01*
X115332176Y-69134040D01*
X115252380Y-69080722D01*
X115139278Y-68967620D01*
X115085960Y-68887824D01*
X115050413Y-68834624D01*
X114989205Y-68686852D01*
X114958000Y-68529975D01*
X114958000Y-68370025D01*
X114989205Y-68213148D01*
X115050413Y-68065376D01*
X115085960Y-68012176D01*
X115139278Y-67932380D01*
X115252380Y-67819278D01*
X115332176Y-67765960D01*
X115385376Y-67730413D01*
X115533148Y-67669205D01*
X115690025Y-67638000D01*
X115849975Y-67638000D01*
X116006852Y-67669205D01*
G37*
G36*
X113466852Y-67669205D02*
G01*
X113614624Y-67730413D01*
X113667824Y-67765960D01*
X113747620Y-67819278D01*
X113860722Y-67932380D01*
X113914040Y-68012176D01*
X113949587Y-68065376D01*
X114010795Y-68213148D01*
X114042000Y-68370025D01*
X114042000Y-68529975D01*
X114010795Y-68686852D01*
X113949587Y-68834624D01*
X113914040Y-68887824D01*
X113860722Y-68967620D01*
X113747620Y-69080722D01*
X113667824Y-69134040D01*
X113614624Y-69169587D01*
X113466852Y-69230795D01*
X113309975Y-69262000D01*
X113150025Y-69262000D01*
X112993148Y-69230795D01*
X112845376Y-69169587D01*
X112792176Y-69134040D01*
X112712380Y-69080722D01*
X112599278Y-68967620D01*
X112545960Y-68887824D01*
X112510413Y-68834624D01*
X112449205Y-68686852D01*
X112418000Y-68529975D01*
X112418000Y-68370025D01*
X112449205Y-68213148D01*
X112510413Y-68065376D01*
X112545960Y-68012176D01*
X112599278Y-67932380D01*
X112712380Y-67819278D01*
X112792176Y-67765960D01*
X112845376Y-67730413D01*
X112993148Y-67669205D01*
X113150025Y-67638000D01*
X113309975Y-67638000D01*
X113466852Y-67669205D01*
G37*
G36*
X110926852Y-67669205D02*
G01*
X111074624Y-67730413D01*
X111127824Y-67765960D01*
X111207620Y-67819278D01*
X111320722Y-67932380D01*
X111374040Y-68012176D01*
X111409587Y-68065376D01*
X111470795Y-68213148D01*
X111502000Y-68370025D01*
X111502000Y-68529975D01*
X111470795Y-68686852D01*
X111409587Y-68834624D01*
X111374040Y-68887824D01*
X111320722Y-68967620D01*
X111207620Y-69080722D01*
X111127824Y-69134040D01*
X111074624Y-69169587D01*
X110926852Y-69230795D01*
X110769975Y-69262000D01*
X110610025Y-69262000D01*
X110453148Y-69230795D01*
X110305376Y-69169587D01*
X110252176Y-69134040D01*
X110172380Y-69080722D01*
X110059278Y-68967620D01*
X110005960Y-68887824D01*
X109970413Y-68834624D01*
X109909205Y-68686852D01*
X109878000Y-68529975D01*
X109878000Y-68370025D01*
X109909205Y-68213148D01*
X109970413Y-68065376D01*
X110005960Y-68012176D01*
X110059278Y-67932380D01*
X110172380Y-67819278D01*
X110252176Y-67765960D01*
X110305376Y-67730413D01*
X110453148Y-67669205D01*
X110610025Y-67638000D01*
X110769975Y-67638000D01*
X110926852Y-67669205D01*
G37*
G36*
X108386852Y-67669205D02*
G01*
X108534624Y-67730413D01*
X108587824Y-67765960D01*
X108667620Y-67819278D01*
X108780722Y-67932380D01*
X108834040Y-68012176D01*
X108869587Y-68065376D01*
X108930795Y-68213148D01*
X108962000Y-68370025D01*
X108962000Y-68529975D01*
X108930795Y-68686852D01*
X108869587Y-68834624D01*
X108834040Y-68887824D01*
X108780722Y-68967620D01*
X108667620Y-69080722D01*
X108587824Y-69134040D01*
X108534624Y-69169587D01*
X108386852Y-69230795D01*
X108229975Y-69262000D01*
X108070025Y-69262000D01*
X107913148Y-69230795D01*
X107765376Y-69169587D01*
X107712176Y-69134040D01*
X107632380Y-69080722D01*
X107519278Y-68967620D01*
X107465960Y-68887824D01*
X107430413Y-68834624D01*
X107369205Y-68686852D01*
X107338000Y-68529975D01*
X107338000Y-68370025D01*
X107369205Y-68213148D01*
X107430413Y-68065376D01*
X107465960Y-68012176D01*
X107519278Y-67932380D01*
X107632380Y-67819278D01*
X107712176Y-67765960D01*
X107765376Y-67730413D01*
X107913148Y-67669205D01*
X108070025Y-67638000D01*
X108229975Y-67638000D01*
X108386852Y-67669205D01*
G37*
G36*
X105846852Y-67669205D02*
G01*
X105994624Y-67730413D01*
X106047824Y-67765960D01*
X106127620Y-67819278D01*
X106240722Y-67932380D01*
X106294040Y-68012176D01*
X106329587Y-68065376D01*
X106390795Y-68213148D01*
X106422000Y-68370025D01*
X106422000Y-68529975D01*
X106390795Y-68686852D01*
X106329587Y-68834624D01*
X106294040Y-68887824D01*
X106240722Y-68967620D01*
X106127620Y-69080722D01*
X106047824Y-69134040D01*
X105994624Y-69169587D01*
X105846852Y-69230795D01*
X105689975Y-69262000D01*
X105530025Y-69262000D01*
X105373148Y-69230795D01*
X105225376Y-69169587D01*
X105172176Y-69134040D01*
X105092380Y-69080722D01*
X104979278Y-68967620D01*
X104925960Y-68887824D01*
X104890413Y-68834624D01*
X104829205Y-68686852D01*
X104798000Y-68529975D01*
X104798000Y-68370025D01*
X104829205Y-68213148D01*
X104890413Y-68065376D01*
X104925960Y-68012176D01*
X104979278Y-67932380D01*
X105092380Y-67819278D01*
X105172176Y-67765960D01*
X105225376Y-67730413D01*
X105373148Y-67669205D01*
X105530025Y-67638000D01*
X105689975Y-67638000D01*
X105846852Y-67669205D01*
G37*
G36*
X143746852Y-67669205D02*
G01*
X143894624Y-67730413D01*
X143947824Y-67765960D01*
X144027620Y-67819278D01*
X144140722Y-67932380D01*
X144194040Y-68012176D01*
X144229587Y-68065376D01*
X144290795Y-68213148D01*
X144322000Y-68370025D01*
X144322000Y-68529975D01*
X144290795Y-68686852D01*
X144229587Y-68834624D01*
X144194040Y-68887824D01*
X144140722Y-68967620D01*
X144027620Y-69080722D01*
X143947824Y-69134040D01*
X143894624Y-69169587D01*
X143746852Y-69230795D01*
X143589975Y-69262000D01*
X143430025Y-69262000D01*
X143273148Y-69230795D01*
X143125376Y-69169587D01*
X143072176Y-69134040D01*
X142992380Y-69080722D01*
X142879278Y-68967620D01*
X142825960Y-68887824D01*
X142790413Y-68834624D01*
X142729205Y-68686852D01*
X142698000Y-68529975D01*
X142698000Y-68370025D01*
X142729205Y-68213148D01*
X142790413Y-68065376D01*
X142825960Y-68012176D01*
X142879278Y-67932380D01*
X142992380Y-67819278D01*
X143072176Y-67765960D01*
X143125376Y-67730413D01*
X143273148Y-67669205D01*
X143430025Y-67638000D01*
X143589975Y-67638000D01*
X143746852Y-67669205D01*
G37*
G36*
X146286852Y-67669205D02*
G01*
X146434624Y-67730413D01*
X146487824Y-67765960D01*
X146567620Y-67819278D01*
X146680722Y-67932380D01*
X146734040Y-68012176D01*
X146769587Y-68065376D01*
X146830795Y-68213148D01*
X146862000Y-68370025D01*
X146862000Y-68529975D01*
X146830795Y-68686852D01*
X146769587Y-68834624D01*
X146734040Y-68887824D01*
X146680722Y-68967620D01*
X146567620Y-69080722D01*
X146487824Y-69134040D01*
X146434624Y-69169587D01*
X146286852Y-69230795D01*
X146129975Y-69262000D01*
X145970025Y-69262000D01*
X145813148Y-69230795D01*
X145665376Y-69169587D01*
X145612176Y-69134040D01*
X145532380Y-69080722D01*
X145419278Y-68967620D01*
X145365960Y-68887824D01*
X145330413Y-68834624D01*
X145269205Y-68686852D01*
X145238000Y-68529975D01*
X145238000Y-68370025D01*
X145269205Y-68213148D01*
X145330413Y-68065376D01*
X145365960Y-68012176D01*
X145419278Y-67932380D01*
X145532380Y-67819278D01*
X145612176Y-67765960D01*
X145665376Y-67730413D01*
X145813148Y-67669205D01*
X145970025Y-67638000D01*
X146129975Y-67638000D01*
X146286852Y-67669205D01*
G37*
G36*
X148826852Y-67669205D02*
G01*
X148974624Y-67730413D01*
X149027824Y-67765960D01*
X149107620Y-67819278D01*
X149220722Y-67932380D01*
X149274040Y-68012176D01*
X149309587Y-68065376D01*
X149370795Y-68213148D01*
X149402000Y-68370025D01*
X149402000Y-68529975D01*
X149370795Y-68686852D01*
X149309587Y-68834624D01*
X149274040Y-68887824D01*
X149220722Y-68967620D01*
X149107620Y-69080722D01*
X149027824Y-69134040D01*
X148974624Y-69169587D01*
X148826852Y-69230795D01*
X148669975Y-69262000D01*
X148510025Y-69262000D01*
X148353148Y-69230795D01*
X148205376Y-69169587D01*
X148152176Y-69134040D01*
X148072380Y-69080722D01*
X147959278Y-68967620D01*
X147905960Y-68887824D01*
X147870413Y-68834624D01*
X147809205Y-68686852D01*
X147778000Y-68529975D01*
X147778000Y-68370025D01*
X147809205Y-68213148D01*
X147870413Y-68065376D01*
X147905960Y-68012176D01*
X147959278Y-67932380D01*
X148072380Y-67819278D01*
X148152176Y-67765960D01*
X148205376Y-67730413D01*
X148353148Y-67669205D01*
X148510025Y-67638000D01*
X148669975Y-67638000D01*
X148826852Y-67669205D01*
G37*
G36*
X151366852Y-67669205D02*
G01*
X151514624Y-67730413D01*
X151567824Y-67765960D01*
X151647620Y-67819278D01*
X151760722Y-67932380D01*
X151814040Y-68012176D01*
X151849587Y-68065376D01*
X151910795Y-68213148D01*
X151942000Y-68370025D01*
X151942000Y-68529975D01*
X151910795Y-68686852D01*
X151849587Y-68834624D01*
X151814040Y-68887824D01*
X151760722Y-68967620D01*
X151647620Y-69080722D01*
X151567824Y-69134040D01*
X151514624Y-69169587D01*
X151366852Y-69230795D01*
X151209975Y-69262000D01*
X151050025Y-69262000D01*
X150893148Y-69230795D01*
X150745376Y-69169587D01*
X150692176Y-69134040D01*
X150612380Y-69080722D01*
X150499278Y-68967620D01*
X150445960Y-68887824D01*
X150410413Y-68834624D01*
X150349205Y-68686852D01*
X150318000Y-68529975D01*
X150318000Y-68370025D01*
X150349205Y-68213148D01*
X150410413Y-68065376D01*
X150445960Y-68012176D01*
X150499278Y-67932380D01*
X150612380Y-67819278D01*
X150692176Y-67765960D01*
X150745376Y-67730413D01*
X150893148Y-67669205D01*
X151050025Y-67638000D01*
X151209975Y-67638000D01*
X151366852Y-67669205D01*
G37*
G36*
X153906852Y-67669205D02*
G01*
X154054624Y-67730413D01*
X154107824Y-67765960D01*
X154187620Y-67819278D01*
X154300722Y-67932380D01*
X154354040Y-68012176D01*
X154389587Y-68065376D01*
X154450795Y-68213148D01*
X154482000Y-68370025D01*
X154482000Y-68529975D01*
X154450795Y-68686852D01*
X154389587Y-68834624D01*
X154354040Y-68887824D01*
X154300722Y-68967620D01*
X154187620Y-69080722D01*
X154107824Y-69134040D01*
X154054624Y-69169587D01*
X153906852Y-69230795D01*
X153749975Y-69262000D01*
X153590025Y-69262000D01*
X153433148Y-69230795D01*
X153285376Y-69169587D01*
X153232176Y-69134040D01*
X153152380Y-69080722D01*
X153039278Y-68967620D01*
X152985960Y-68887824D01*
X152950413Y-68834624D01*
X152889205Y-68686852D01*
X152858000Y-68529975D01*
X152858000Y-68370025D01*
X152889205Y-68213148D01*
X152950413Y-68065376D01*
X152985960Y-68012176D01*
X153039278Y-67932380D01*
X153152380Y-67819278D01*
X153232176Y-67765960D01*
X153285376Y-67730413D01*
X153433148Y-67669205D01*
X153590025Y-67638000D01*
X153749975Y-67638000D01*
X153906852Y-67669205D01*
G37*
G36*
X156446852Y-67669205D02*
G01*
X156594624Y-67730413D01*
X156647824Y-67765960D01*
X156727620Y-67819278D01*
X156840722Y-67932380D01*
X156894040Y-68012176D01*
X156929587Y-68065376D01*
X156990795Y-68213148D01*
X157022000Y-68370025D01*
X157022000Y-68529975D01*
X156990795Y-68686852D01*
X156929587Y-68834624D01*
X156894040Y-68887824D01*
X156840722Y-68967620D01*
X156727620Y-69080722D01*
X156647824Y-69134040D01*
X156594624Y-69169587D01*
X156446852Y-69230795D01*
X156289975Y-69262000D01*
X156130025Y-69262000D01*
X155973148Y-69230795D01*
X155825376Y-69169587D01*
X155772176Y-69134040D01*
X155692380Y-69080722D01*
X155579278Y-68967620D01*
X155525960Y-68887824D01*
X155490413Y-68834624D01*
X155429205Y-68686852D01*
X155398000Y-68529975D01*
X155398000Y-68370025D01*
X155429205Y-68213148D01*
X155490413Y-68065376D01*
X155525960Y-68012176D01*
X155579278Y-67932380D01*
X155692380Y-67819278D01*
X155772176Y-67765960D01*
X155825376Y-67730413D01*
X155973148Y-67669205D01*
X156130025Y-67638000D01*
X156289975Y-67638000D01*
X156446852Y-67669205D01*
G37*
G36*
X158986852Y-67669205D02*
G01*
X159134624Y-67730413D01*
X159187824Y-67765960D01*
X159267620Y-67819278D01*
X159380722Y-67932380D01*
X159434040Y-68012176D01*
X159469587Y-68065376D01*
X159530795Y-68213148D01*
X159562000Y-68370025D01*
X159562000Y-68529975D01*
X159530795Y-68686852D01*
X159469587Y-68834624D01*
X159434040Y-68887824D01*
X159380722Y-68967620D01*
X159267620Y-69080722D01*
X159187824Y-69134040D01*
X159134624Y-69169587D01*
X158986852Y-69230795D01*
X158829975Y-69262000D01*
X158670025Y-69262000D01*
X158513148Y-69230795D01*
X158365376Y-69169587D01*
X158312176Y-69134040D01*
X158232380Y-69080722D01*
X158119278Y-68967620D01*
X158065960Y-68887824D01*
X158030413Y-68834624D01*
X157969205Y-68686852D01*
X157938000Y-68529975D01*
X157938000Y-68370025D01*
X157969205Y-68213148D01*
X158030413Y-68065376D01*
X158065960Y-68012176D01*
X158119278Y-67932380D01*
X158232380Y-67819278D01*
X158312176Y-67765960D01*
X158365376Y-67730413D01*
X158513148Y-67669205D01*
X158670025Y-67638000D01*
X158829975Y-67638000D01*
X158986852Y-67669205D01*
G37*
G36*
X161526852Y-67669205D02*
G01*
X161674624Y-67730413D01*
X161727824Y-67765960D01*
X161807620Y-67819278D01*
X161920722Y-67932380D01*
X161974040Y-68012176D01*
X162009587Y-68065376D01*
X162070795Y-68213148D01*
X162102000Y-68370025D01*
X162102000Y-68529975D01*
X162070795Y-68686852D01*
X162009587Y-68834624D01*
X161974040Y-68887824D01*
X161920722Y-68967620D01*
X161807620Y-69080722D01*
X161727824Y-69134040D01*
X161674624Y-69169587D01*
X161526852Y-69230795D01*
X161369975Y-69262000D01*
X161210025Y-69262000D01*
X161053148Y-69230795D01*
X160905376Y-69169587D01*
X160852176Y-69134040D01*
X160772380Y-69080722D01*
X160659278Y-68967620D01*
X160605960Y-68887824D01*
X160570413Y-68834624D01*
X160509205Y-68686852D01*
X160478000Y-68529975D01*
X160478000Y-68370025D01*
X160509205Y-68213148D01*
X160570413Y-68065376D01*
X160605960Y-68012176D01*
X160659278Y-67932380D01*
X160772380Y-67819278D01*
X160852176Y-67765960D01*
X160905376Y-67730413D01*
X161053148Y-67669205D01*
X161210025Y-67638000D01*
X161369975Y-67638000D01*
X161526852Y-67669205D01*
G37*
G36*
X230902521Y-66934586D02*
G01*
X231066307Y-67002428D01*
X231066310Y-67002430D01*
X231213717Y-67100924D01*
X231339076Y-67226283D01*
X231437570Y-67373690D01*
X231437572Y-67373693D01*
X231505414Y-67537479D01*
X231540000Y-67711357D01*
X231540000Y-67888643D01*
X231505414Y-68062521D01*
X231437572Y-68226307D01*
X231437570Y-68226310D01*
X231339076Y-68373717D01*
X231213717Y-68499076D01*
X231066310Y-68597570D01*
X231066307Y-68597572D01*
X230902521Y-68665414D01*
X230728643Y-68700000D01*
X230551357Y-68700000D01*
X230377479Y-68665414D01*
X230213693Y-68597572D01*
X230213690Y-68597570D01*
X230066283Y-68499076D01*
X229940924Y-68373717D01*
X229842430Y-68226310D01*
X229842428Y-68226307D01*
X229774586Y-68062521D01*
X229740000Y-67888643D01*
X229740000Y-67711357D01*
X229774586Y-67537479D01*
X229842428Y-67373693D01*
X229842430Y-67373690D01*
X229940924Y-67226283D01*
X230066283Y-67100924D01*
X230213690Y-67002430D01*
X230213693Y-67002428D01*
X230377479Y-66934586D01*
X230551357Y-66900000D01*
X230728643Y-66900000D01*
X230902521Y-66934586D01*
G37*
G36*
X229000000Y-68700000D02*
G01*
X227200000Y-68700000D01*
X227200000Y-66900000D01*
X229000000Y-66900000D01*
X229000000Y-68700000D01*
G37*
G36*
X242333352Y-66930743D02*
G01*
X242478940Y-66991047D01*
X242609974Y-67078602D01*
X242721398Y-67190026D01*
X242808953Y-67321060D01*
X242869257Y-67466648D01*
X242900000Y-67621207D01*
X242900000Y-67778793D01*
X242869257Y-67933352D01*
X242808953Y-68078940D01*
X242721398Y-68209974D01*
X242609974Y-68321398D01*
X242478940Y-68408953D01*
X242333352Y-68469257D01*
X242178793Y-68500000D01*
X242021207Y-68500000D01*
X241866648Y-68469257D01*
X241721060Y-68408953D01*
X241590026Y-68321398D01*
X241478602Y-68209974D01*
X241391047Y-68078940D01*
X241330743Y-67933352D01*
X241300000Y-67778793D01*
X241300000Y-67621207D01*
X241330743Y-67466648D01*
X241391047Y-67321060D01*
X241478602Y-67190026D01*
X241590026Y-67078602D01*
X241721060Y-66991047D01*
X241866648Y-66930743D01*
X242021207Y-66900000D01*
X242178793Y-66900000D01*
X242333352Y-66930743D01*
G37*
G36*
X238933352Y-66930743D02*
G01*
X239078940Y-66991047D01*
X239209974Y-67078602D01*
X239321398Y-67190026D01*
X239408953Y-67321060D01*
X239469257Y-67466648D01*
X239500000Y-67621207D01*
X239500000Y-67778793D01*
X239469257Y-67933352D01*
X239408953Y-68078940D01*
X239321398Y-68209974D01*
X239209974Y-68321398D01*
X239078940Y-68408953D01*
X238933352Y-68469257D01*
X238778793Y-68500000D01*
X238621207Y-68500000D01*
X238466648Y-68469257D01*
X238321060Y-68408953D01*
X238190026Y-68321398D01*
X238078602Y-68209974D01*
X237991047Y-68078940D01*
X237930743Y-67933352D01*
X237900000Y-67778793D01*
X237900000Y-67621207D01*
X237930743Y-67466648D01*
X237991047Y-67321060D01*
X238078602Y-67190026D01*
X238190026Y-67078602D01*
X238321060Y-66991047D01*
X238466648Y-66930743D01*
X238621207Y-66900000D01*
X238778793Y-66900000D01*
X238933352Y-66930743D01*
G37*
M02*
